  0
SECTION
  2
HEADER
  9
$ACADVER
  1
AC1032
  9
$ACADMAINTVER
 90
4
  9
$DWGCODEPAGE
  3
ANSI_936
  9
$LASTSAVEDBY
  1
cjh
  9
$REQUIREDVERSIONS
160
0
  9
$INSBASE
 10
0.0
 20
0.0
 30
0.0
  9
$EXTMIN
 10
-98.19236016371079
 20
-11.0
 30
0.0
  9
$EXTMAX
 10
1240.0
 20
957.8650225929761
 30
0.0
  9
$LIMMIN
 10
0.0
 20
0.0
  9
$LIMMAX
 10
12.0
 20
9.0
  9
$ORTHOMODE
 70
1
  9
$REGENMODE
 70
1
  9
$FILLMODE
 70
1
  9
$QTEXTMODE
 70
0
  9
$MIRRTEXT
 70
0
  9
$LTSCALE
 40
1.0
  9
$ATTMODE
 70
1
  9
$TEXTSIZE
 40
30.08968642865239
  9
$TRACEWID
 40
1.0
  9
$TEXTSTYLE
  7
Standard
  9
$CLAYER
  8
0
  9
$CELTYPE
  6
ByLayer
  9
$CECOLOR
 62
256
  9
$CELTSCALE
 40
1.0
  9
$DISPSILH
 70
0
  9
$DIMSCALE
 40
10.0
  9
$DIMASZ
 40
2.5
  9
$DIMEXO
 40
0.625
  9
$DIMDLI
 40
3.75
  9
$DIMRND
 40
0.0
  9
$DIMDLE
 40
0.0
  9
$DIMEXE
 40
1.25
  9
$DIMTP
 40
0.0
  9
$DIMTM
 40
0.0
  9
$DIMTXT
 40
2.5
  9
$DIMCEN
 40
2.5
  9
$DIMTSZ
 40
0.0
  9
$DIMTOL
 70
0
  9
$DIMLIM
 70
0
  9
$DIMTIH
 70
0
  9
$DIMTOH
 70
0
  9
$DIMSE1
 70
0
  9
$DIMSE2
 70
0
  9
$DIMTAD
 70
1
  9
$DIMZIN
 70
8
  9
$DIMBLK
  1

  9
$DIMASO
 70
1
  9
$DIMSHO
 70
1
  9
$DIMPOST
  1

  9
$DIMAPOST
  1

  9
$DIMALT
 70
0
  9
$DIMALTD
 70
3
  9
$DIMALTF
 40
0.03937007874016
  9
$DIMLFAC
 40
1.0
  9
$DIMTOFL
 70
1
  9
$DIMTVP
 40
0.0
  9
$DIMTIX
 70
0
  9
$DIMSOXD
 70
0
  9
$DIMSAH
 70
0
  9
$DIMBLK1
  1

  9
$DIMBLK2
  1

  9
$DIMSTYLE
  2
副本 ISO-25 1-10
  9
$DIMCLRD
 70
0
  9
$DIMCLRE
 70
0
  9
$DIMCLRT
 70
0
  9
$DIMTFAC
 40
1.0
  9
$DIMGAP
 40
0.625
  9
$DIMJUST
 70
0
  9
$DIMSD1
 70
0
  9
$DIMSD2
 70
0
  9
$DIMTOLJ
 70
0
  9
$DIMTZIN
 70
8
  9
$DIMALTZ
 70
0
  9
$DIMALTTZ
 70
0
  9
$DIMUPT
 70
0
  9
$DIMDEC
 70
2
  9
$DIMTDEC
 70
2
  9
$DIMALTU
 70
2
  9
$DIMALTTD
 70
3
  9
$DIMTXSTY
  7
Standard
  9
$DIMAUNIT
 70
0
  9
$DIMADEC
 70
0
  9
$DIMALTRND
 40
0.0
  9
$DIMAZIN
 70
0
  9
$DIMDSEP
 70
44
  9
$DIMATFIT
 70
3
  9
$DIMFRAC
 70
0
  9
$DIMLDRBLK
  1

  9
$DIMLUNIT
 70
2
  9
$DIMLWD
 70
-2
  9
$DIMLWE
 70
-2
  9
$DIMTMOVE
 70
0
  9
$DIMFXL
 40
1.0
  9
$DIMFXLON
 70
0
  9
$DIMJOGANG
 40
0.7853981633974483
  9
$DIMTFILL
 70
0
  9
$DIMTFILLCLR
 70
0
  9
$DIMARCSYM
 70
0
  9
$DIMLTYPE
  6

  9
$DIMLTEX1
  6

  9
$DIMLTEX2
  6

  9
$DIMTXTDIRECTION
 70
0
  9
$LUNITS
 70
2
  9
$LUPREC
 70
4
  9
$SKETCHINC
 40
1.0
  9
$FILLETRAD
 40
0.0
  9
$AUNITS
 70
0
  9
$AUPREC
 70
0
  9
$MENU
  1
.
  9
$ELEVATION
 40
0.0
  9
$PELEVATION
 40
0.0
  9
$THICKNESS
 40
0.0
  9
$LIMCHECK
 70
0
  9
$CHAMFERA
 40
0.0
  9
$CHAMFERB
 40
0.0
  9
$CHAMFERC
 40
0.0
  9
$CHAMFERD
 40
0.0
  9
$SKPOLY
 70
0
  9
$TDCREATE
 40
2461310.011597222
  9
$TDUCREATE
 40
2461205.595138889
  9
$TDUPDATE
 40
2461310.011597222
  9
$TDUUPDATE
 40
2461284.526944572
  9
$TDINDWG
 40
0.1324768519
  9
$TDUSRTIMER
 40
0.1324768519
  9
$USRTIMER
 70
1
  9
$ANGBASE
 50
0.0
  9
$ANGDIR
 70
0
  9
$PDMODE
 70
0
  9
$PDSIZE
 40
0.0
  9
$PLINEWID
 40
0.0
  9
$SPLFRAME
 70
0
  9
$SPLINETYPE
 70
6
  9
$SPLINESEGS
 70
8
  9
$HANDSEED
  5
89F
  9
$SURFTAB1
 70
6
  9
$SURFTAB2
 70
6
  9
$SURFTYPE
 70
6
  9
$SURFU
 70
6
  9
$SURFV
 70
6
  9
$UCSBASE
  2

  9
$UCSNAME
  2

  9
$UCSORG
 10
0.0
 20
0.0
 30
0.0
  9
$UCSXDIR
 10
1.0
 20
0.0
 30
0.0
  9
$UCSYDIR
 10
0.0
 20
1.0
 30
0.0
  9
$UCSORTHOREF
  2

  9
$UCSORTHOVIEW
 70
0
  9
$UCSORGTOP
 10
0.0
 20
0.0
 30
0.0
  9
$UCSORGBOTTOM
 10
0.0
 20
0.0
 30
0.0
  9
$UCSORGLEFT
 10
0.0
 20
0.0
 30
0.0
  9
$UCSORGRIGHT
 10
0.0
 20
0.0
 30
0.0
  9
$UCSORGFRONT
 10
0.0
 20
0.0
 30
0.0
  9
$UCSORGBACK
 10
0.0
 20
0.0
 30
0.0
  9
$PUCSBASE
  2

  9
$PUCSNAME
  2

  9
$PUCSORG
 10
0.0
 20
0.0
 30
0.0
  9
$PUCSXDIR
 10
1.0
 20
0.0
 30
0.0
  9
$PUCSYDIR
 10
0.0
 20
1.0
 30
0.0
  9
$PUCSORTHOREF
  2

  9
$PUCSORTHOVIEW
 70
0
  9
$PUCSORGTOP
 10
0.0
 20
0.0
 30
0.0
  9
$PUCSORGBOTTOM
 10
0.0
 20
0.0
 30
0.0
  9
$PUCSORGLEFT
 10
0.0
 20
0.0
 30
0.0
  9
$PUCSORGRIGHT
 10
0.0
 20
0.0
 30
0.0
  9
$PUCSORGFRONT
 10
0.0
 20
0.0
 30
0.0
  9
$PUCSORGBACK
 10
0.0
 20
0.0
 30
0.0
  9
$USERI1
 70
0
  9
$USERI2
 70
0
  9
$USERI3
 70
0
  9
$USERI4
 70
0
  9
$USERI5
 70
0
  9
$USERR1
 40
0.0
  9
$USERR2
 40
0.0
  9
$USERR3
 40
0.0
  9
$USERR4
 40
0.0
  9
$USERR5
 40
0.0
  9
$WORLDVIEW
 70
1
  9
$SHADEDGE
 70
3
  9
$SHADEDIF
 70
70
  9
$TILEMODE
 70
1
  9
$MAXACTVP
 70
64
  9
$PINSBASE
 10
0.0
 20
0.0
 30
0.0
  9
$PLIMCHECK
 70
0
  9
$PEXTMIN
 10
0.0
 20
0.0
 30
0.0
  9
$PEXTMAX
 10
0.0
 20
0.0
 30
0.0
  9
$PLIMMIN
 10
0.0
 20
0.0
  9
$PLIMMAX
 10
12.0
 20
9.0
  9
$UNITMODE
 70
0
  9
$VISRETAIN
 70
1
  9
$PLINEGEN
 70
0
  9
$PSLTSCALE
 70
1
  9
$TREEDEPTH
 70
3020
  9
$CMLSTYLE
  2
Standard
  9
$CMLJUST
 70
0
  9
$CMLSCALE
 40
20.0
  9
$PROXYGRAPHICS
 70
1
  9
$MEASUREMENT
 70
1
  9
$CELWEIGHT
370
-1
  9
$ENDCAPS
280
0
  9
$JOINSTYLE
280
0
  9
$LWDISPLAY
290
0
  9
$INSUNITS
 70
4
  9
$HYPERLINKBASE
  1

  9
$STYLESHEET
  1

  9
$XEDIT
290
1
  9
$CEPSNTYPE
380
0
  9
$PSTYLEMODE
290
1
  9
$FINGERPRINTGUID
  2
{C99B5CAF-2CCC-EE40-94F6-CAAD6E25A943}
  9
$VERSIONGUID
  2
{AF4D0591-9E46-40E4-A94B-64C3181E8B60}
  9
$EXTNAMES
290
1
  9
$PSVPSCALE
 40
0.0
  9
$OLESTARTUP
290
0
  9
$SORTENTS
280
127
  9
$INDEXCTL
280
0
  9
$HIDETEXT
280
1
  9
$XCLIPFRAME
280
2
  9
$HALOGAP
280
0
  9
$OBSCOLOR
 70
257
  9
$OBSLTYPE
280
0
  9
$INTERSECTIONDISPLAY
280
0
  9
$INTERSECTIONCOLOR
 70
257
  9
$DIMASSOC
280
2
  9
$PROJECTNAME
  1

  9
$CAMERADISPLAY
290
0
  9
$LENSLENGTH
 40
50.0
  9
$CAMERAHEIGHT
 40
0.0
  9
$STEPSPERSEC
 40
2.0
  9
$STEPSIZE
 40
6.0
  9
$3DDWFPREC
 40
2.0
  9
$PSOLWIDTH
 40
5.0
  9
$PSOLHEIGHT
 40
80.0
  9
$LOFTANG1
 40
1.570796326794897
  9
$LOFTANG2
 40
1.570796326794897
  9
$LOFTMAG1
 40
0.0
  9
$LOFTMAG2
 40
0.0
  9
$LOFTPARAM
 70
7
  9
$LOFTNORMALS
280
1
  9
$LATITUDE
 40
37.795
  9
$LONGITUDE
 40
-122.394
  9
$NORTHDIRECTION
 40
0.0
  9
$TIMEZONE
 70
-8000
  9
$LIGHTGLYPHDISPLAY
280
1
  9
$TILEMODELIGHTSYNCH
280
1
  9
$CMATERIAL
347
EC
  9
$SOLIDHIST
280
0
  9
$SHOWHIST
280
1
  9
$DWFFRAME
280
2
  9
$DGNFRAME
280
0
  9
$REALWORLDSCALE
290
1
  9
$INTERFERECOLOR
 62
1
  9
$INTERFEREOBJVS
345
F9
  9
$INTERFEREVPVS
346
F6
  9
$CSHADOW
280
0
  9
$SHADOWPLANELOCATION
 40
0.0
  0
ENDSEC
  0
SECTION
  2
CLASSES
  0
CLASS
  1
ACDBDICTIONARYWDFLT
  2
AcDbDictionaryWithDefault
  3
ObjectDBX Classes
 90
0
 91
3
280
0
281
0
  0
CLASS
  1
ACDBPLACEHOLDER
  2
AcDbPlaceHolder
  3
ObjectDBX Classes
 90
0
 91
1
280
0
281
0
  0
CLASS
  1
LAYOUT
  2
AcDbLayout
  3
ObjectDBX Classes
 90
0
 91
1
280
0
281
0
  0
CLASS
  1
DICTIONARYVAR
  2
AcDbDictionaryVar
  3
ObjectDBX Classes
 90
0
 91
3
280
0
281
0
  0
CLASS
  1
TABLESTYLE
  2
AcDbTableStyle
  3
ObjectDBX Classes
 90
4095
 91
3
280
0
281
0
  0
CLASS
  1
MATERIAL
  2
AcDbMaterial
  3
ObjectDBX Classes
 90
1153
 91
3
280
0
281
0
  0
CLASS
  1
VISUALSTYLE
  2
AcDbVisualStyle
  3
ObjectDBX Classes
 90
4095
 91
3
280
0
281
0
  0
CLASS
  1
SCALE
  2
AcDbScale
  3
ObjectDBX Classes
 90
1153
 91
3
280
0
281
0
  0
CLASS
  1
MLEADERSTYLE
  2
AcDbMLeaderStyle
  3
ACDB_MLEADERSTYLE_CLASS
 90
4095
 91
3
280
0
281
0
  0
CLASS
  1
CELLSTYLEMAP
  2
AcDbCellStyleMap
  3
ObjectDBX Classes
 90
1152
 91
3
280
0
281
0
  0
CLASS
  1
EXACXREFPANELOBJECT
  2
ExAcXREFPanelObject
  3
EXAC_ESW
 90
1025
 91
1
280
1
281
0
  0
CLASS
  1
NPOCOLLECTION
  2
AcDbImpNonPersistentObjectsCollection
  3
ObjectDBX Classes
 90
1153
 91
1
280
1
281
0
  0
CLASS
  1
LAYER_INDEX
  2
AcDbLayerIndex
  3
ObjectDBX Classes
 90
0
 91
3
280
0
281
0
  0
CLASS
  1
SPATIAL_INDEX
  2
AcDbSpatialIndex
  3
AutoCAD 2000
 90
0
 91
3
280
0
281
0
  0
CLASS
  1
IDBUFFER
  2
AcDbIdBuffer
  3
ObjectDBX Classes
 90
0
 91
3
280
0
281
0
  0
CLASS
  1
ACDBSECTIONVIEWSTYLE
  2
AcDbSectionViewStyle
  3
ObjectDBX Classes
 90
1025
 91
3
280
0
281
0
  0
CLASS
  1
ACDBDETAILVIEWSTYLE
  2
AcDbDetailViewStyle
  3
ObjectDBX Classes
 90
1025
 91
3
280
0
281
0
  0
CLASS
  1
DIMASSOC
  2
AcDbDimAssoc
  3
"AcDbDimAssoc|Product Desc:     AcDim ARX App For Dimension|Company:          Autodesk, Inc.|WEB Address:      www.autodesk.com"
 90
0
 91
3
280
0
281
0
  0
CLASS
  1
ACDBASSOCNETWORK
  2
AcDbAssocNetwork
  3
ObjectDBX Classes
 90
1025
 91
3
280
1
281
0
  0
CLASS
  1
ACDBASSOC2DCONSTRAINTGROUP
  2
AcDbAssoc2dConstraintGroup
  3
ObjectDBX Classes
 90
1025
 91
2
280
1
281
0
  0
CLASS
  1
ACDBASSOCGEOMDEPENDENCY
  2
AcDbAssocGeomDependency
  3
ObjectDBX Classes
 90
1025
 91
4
280
1
281
0
  0
CLASS
  1
SUN
  2
AcDbSun
  3
SCENEOE
 90
1153
 91
0
280
0
281
0
  0
CLASS
  1
MENTALRAYRENDERSETTINGS
  2
AcDbMentalRayRenderSettings
  3
SCENEOE
 90
1024
 91
0
280
0
281
0
  0
CLASS
  1
RASTERVARIABLES
  2
AcDbRasterVariables
  3
ISM
 90
0
 91
0
280
0
281
0
  0
ENDSEC
  0
SECTION
  2
TABLES
  0
TABLE
  2
VPORT
  5
8
330
0
100
AcDbSymbolTable
 70
1
  0
VPORT
  5
EA
330
8
100
AcDbSymbolTableRecord
100
AcDbViewportTableRecord
  2
*Active
 70
0
 10
0.0
 20
0.0
 11
1.0
 21
1.0
 12
1213.226466963676
 22
456.3573956949454
 13
0.0
 23
0.0
 14
10.0
 24
10.0
 15
10.0
 25
10.0
 16
0.0
 26
0.0
 36
1.0
 17
0.0
 27
0.0
 37
0.0
 40
763.8190552737706
 41
2.384902143522833
 42
50.0
 43
0.0
 44
0.0
 50
0.0
 51
0.0
 71
0
 72
1000
 73
1
 74
3
 75
0
 76
1
 77
0
 78
0
281
0
 65
1
110
0.0
120
0.0
130
0.0
111
1.0
121
0.0
131
0.0
112
0.0
122
1.0
132
0.0
 79
0
146
0.0
 60
3
 61
5
348
F5
292
1
282
1
141
0.0
142
0.0
 63
250
421
3355443
1001
ACAD_NAV_VCDISPLAY
1070
3
  0
ENDTAB
  0
TABLE
  2
LTYPE
  5
5
330
0
100
AcDbSymbolTable
 70
3
  0
LTYPE
  5
14
330
5
100
AcDbSymbolTableRecord
100
AcDbLinetypeTableRecord
  2
ByBlock
 70
0
  3

 72
65
 73
0
 40
0.0
  0
LTYPE
  5
15
330
5
100
AcDbSymbolTableRecord
100
AcDbLinetypeTableRecord
  2
ByLayer
 70
0
  3

 72
65
 73
0
 40
0.0
  0
LTYPE
  5
16
330
5
100
AcDbSymbolTableRecord
100
AcDbLinetypeTableRecord
  2
Continuous
 70
0
  3
Solid line
 72
65
 73
0
 40
0.0
  0
ENDTAB
  0
TABLE
  2
LAYER
  5
2
102
{ACAD_XDICTIONARY
360
1FF
102
}
330
0
100
AcDbSymbolTable
 70
2
  0
LAYER
  5
10
330
2
100
AcDbSymbolTableRecord
100
AcDbLayerTableRecord
  2
0
 70
0
 62
7
  6
Continuous
370
-3
390
F
347
EE
348
0
  0
LAYER
  5
310
330
2
100
AcDbSymbolTableRecord
100
AcDbLayerTableRecord
  2
Defpoints
 70
0
 62
7
  6
Continuous
290
0
370
-3
390
F
347
EE
348
0
  0
ENDTAB
  0
TABLE
  2
STYLE
  5
3
330
0
100
AcDbSymbolTable
 70
2
  0
STYLE
  5
11
330
3
100
AcDbSymbolTableRecord
100
AcDbTextStyleTableRecord
  2
Standard
 70
0
 40
0.0
 41
1.0
 50
0.0
 71
0
 42
30.08968642865239
  3
arial.ttf
  4

1001
ACAD
1000
Arial
1071
34
  0
STYLE
  5
132
330
3
100
AcDbSymbolTableRecord
100
AcDbTextStyleTableRecord
  2
Annotative
 70
0
 40
0.0
 41
1.0
 50
0.0
 71
0
 42
2.5
  3
arial.ttf
  4

1001
AcadAnnotative
1000
AnnotativeData
1002
{
1070
1
1070
1
1002
}
1001
ACAD
1000
Arial
1071
34
  0
ENDTAB
  0
TABLE
  2
VIEW
  5
6
330
0
100
AcDbSymbolTable
 70
0
  0
ENDTAB
  0
TABLE
  2
UCS
  5
7
330
0
100
AcDbSymbolTable
 70
0
  0
ENDTAB
  0
TABLE
  2
APPID
  5
9
330
0
100
AcDbSymbolTable
 70
15
  0
APPID
  5
12
330
9
100
AcDbSymbolTableRecord
100
AcDbRegAppTableRecord
  2
ACAD
 70
0
  0
APPID
  5
9E
330
9
100
AcDbSymbolTableRecord
100
AcDbRegAppTableRecord
  2
ACAD_PSEXT
 70
0
  0
APPID
  5
133
330
9
100
AcDbSymbolTableRecord
100
AcDbRegAppTableRecord
  2
AcadAnnoPO
 70
0
  0
APPID
  5
134
330
9
100
AcDbSymbolTableRecord
100
AcDbRegAppTableRecord
  2
AcadAnnotative
 70
0
  0
APPID
  5
135
330
9
100
AcDbSymbolTableRecord
100
AcDbRegAppTableRecord
  2
ACAD_DSTYLE_DIMJAG
 70
0
  0
APPID
  5
136
330
9
100
AcDbSymbolTableRecord
100
AcDbRegAppTableRecord
  2
ACAD_DSTYLE_DIMTALN
 70
0
  0
APPID
  5
165
330
9
100
AcDbSymbolTableRecord
100
AcDbRegAppTableRecord
  2
ACAD_MLEADERVER
 70
0
  0
APPID
  5
217
330
9
100
AcDbSymbolTableRecord
100
AcDbRegAppTableRecord
  2
ACAD_NAV_VCDISPLAY
 70
0
  0
APPID
  5
2CE
330
9
100
AcDbSymbolTableRecord
100
AcDbRegAppTableRecord
  2
ACAD_EXEMPT_FROM_CAD_STANDARDS
 70
0
  0
APPID
  5
2F3
330
9
100
AcDbSymbolTableRecord
100
AcDbRegAppTableRecord
  2
Acad_TC
 70
0
  0
APPID
  5
30D
330
9
100
AcDbSymbolTableRecord
100
AcDbRegAppTableRecord
  2
ACAD_DSTYLE_DIMBREAK
 70
0
  0
APPID
  5
38D
330
9
100
AcDbSymbolTableRecord
100
AcDbRegAppTableRecord
  2
AcadAnnoMonitorAlertIconDisabled
 70
0
  0
APPID
  5
510
330
9
100
AcDbSymbolTableRecord
100
AcDbRegAppTableRecord
  2
ACAD_DSTYLE_DIMRADIAL_EXTENSION
 70
0
  0
APPID
  5
89B
330
9
100
AcDbSymbolTableRecord
100
AcDbRegAppTableRecord
  2
HATCHBACKGROUNDCOLOR
 70
0
  0
APPID
  5
89C
330
9
100
AcDbSymbolTableRecord
100
AcDbRegAppTableRecord
  2
EZDXF
 70
0
  0
ENDTAB
  0
TABLE
  2
DIMSTYLE
  5
A
330
0
100
AcDbSymbolTable
 70
4
100
AcDbDimStyleTable
  0
DIMSTYLE
105
1B0
330
A
100
AcDbSymbolTableRecord
100
AcDbDimStyleTableRecord
  2
Standard
 70
0
 40
1.0
 41
2.5
 42
0.625
 43
3.75
 44
1.25
 45
0.0
 46
0.0
 47
0.0
 48
0.0
 49
2.5
140
2.5
141
2.5
142
0.0
143
0.03937007874
144
1.0
145
0.0
146
1.0
147
0.625
148
0.0
 69
0
 70
0
 71
0
 72
0
 73
0
 74
0
 75
0
 76
0
 77
1
 78
8
 79
3
170
0
171
3
172
1
173
0
174
0
175
0
176
0
177
0
178
0
179
2
271
2
272
2
273
2
274
3
275
0
276
0
277
2
278
44
279
0
280
0
281
0
282
0
283
0
284
8
285
0
286
0
288
0
289
3
290
0
340
11
371
-2
372
-2
  0
DIMSTYLE
105
137
330
A
100
AcDbSymbolTableRecord
100
AcDbDimStyleTableRecord
  2
Annotative
 70
0
 40
0.0
 41
2.5
 42
0.625
 43
3.75
 44
1.25
 45
0.0
 46
0.0
 47
0.0
 48
0.0
 49
2.5
140
2.5
141
2.5
142
0.0
143
0.03937007874016
144
1.0
145
0.0
146
1.0
147
0.625
148
0.0
 69
0
 70
0
 71
0
 72
0
 73
0
 74
0
 75
0
 76
0
 77
1
 78
8
 79
3
170
0
171
3
172
1
173
0
174
0
175
0
176
0
177
0
178
0
179
2
271
2
272
2
273
2
274
3
275
0
276
0
277
2
278
44
279
0
280
0
281
0
282
0
283
0
284
8
285
0
286
0
288
0
289
3
290
0
340
11
371
-2
372
-2
1001
AcadAnnotative
1000
AnnotativeData
1002
{
1070
1
1070
1
1002
}
1001
ACAD_DSTYLE_DIMJAG
1070
388
1040
1.5
1001
ACAD_DSTYLE_DIMTALN
1070
392
1070
0
  0
DIMSTYLE
105
27
330
A
100
AcDbSymbolTableRecord
100
AcDbDimStyleTableRecord
  2
ISO-25
 70
0
 40
1.0
 41
2.5
 42
0.625
 43
3.75
 44
1.25
 45
0.0
 46
0.0
 47
0.0
 48
0.0
 49
2.5
140
2.5
141
2.5
142
0.0
143
0.03937007874016
144
1.0
145
0.0
146
1.0
147
0.625
148
0.0
 69
0
 70
0
 71
0
 72
0
 73
0
 74
0
 75
0
 76
0
 77
1
 78
8
 79
3
170
0
171
3
172
1
173
0
174
0
175
0
176
0
177
0
178
0
179
2
271
2
272
2
273
2
274
3
275
0
276
0
277
2
278
44
279
0
280
0
281
0
282
0
283
0
284
8
285
0
286
0
288
0
289
3
290
0
340
11
371
-2
372
-2
  0
DIMSTYLE
105
30E
102
{ACAD_REACTORS
330
529
330
539
330
555
330
56D
330
585
330
59D
330
5B5
330
5CD
330
5E9
330
601
330
619
330
631
330
64D
330
665
330
67D
330
695
330
6B1
330
6C9
330
6E5
330
6FD
330
719
330
761
330
779
330
791
330
7A9
330
7C1
102
}
330
A
100
AcDbSymbolTableRecord
100
AcDbDimStyleTableRecord
  2
副本 ISO-25 1-10
 70
0
 40
10.0
 41
2.5
 42
0.625
 43
3.75
 44
1.25
 45
0.0
 46
0.0
 47
0.0
 48
0.0
 49
2.5
140
2.5
141
2.5
142
0.0
143
0.03937007874016
144
1.0
145
0.0
146
1.0
147
0.625
148
0.0
 69
0
 70
0
 71
0
 72
0
 73
0
 74
0
 75
0
 76
0
 77
1
 78
8
 79
3
170
0
171
3
172
1
173
0
174
0
175
0
176
0
177
0
178
0
179
2
271
2
272
2
273
2
274
3
275
0
276
0
277
2
278
44
279
0
280
0
281
0
282
0
283
0
284
8
285
0
286
0
288
0
289
3
290
0
340
11
371
-2
372
-2
1001
ACAD_DSTYLE_DIMBREAK
1070
391
1040
3.75
1001
ACAD_DSTYLE_DIMJAG
1070
388
1040
1.5
1001
ACAD_DSTYLE_DIMTALN
1070
392
1070
0
  0
ENDTAB
  0
TABLE
  2
BLOCK_RECORD
  5
1
330
0
100
AcDbSymbolTable
 70
29
  0
BLOCK_RECORD
  5
1F
102
{ACAD_XDICTIONARY
360
1CE
102
}
330
1
100
AcDbSymbolTableRecord
100
AcDbBlockTableRecord
  2
*Model_Space
340
22
 70
0
280
1
281
0
  0
BLOCK_RECORD
  5
D2
330
1
100
AcDbSymbolTableRecord
100
AcDbBlockTableRecord
  2
*Paper_Space
340
D3
 70
0
280
1
281
0
  0
BLOCK_RECORD
  5
D6
330
1
100
AcDbSymbolTableRecord
100
AcDbBlockTableRecord
  2
*Paper_Space0
340
D7
 70
0
280
1
281
0
  0
BLOCK_RECORD
  5
52A
330
1
100
AcDbSymbolTableRecord
100
AcDbBlockTableRecord
  2
*D1
340
0
 70
0
280
1
281
0
  0
BLOCK_RECORD
  5
53A
330
1
100
AcDbSymbolTableRecord
100
AcDbBlockTableRecord
  2
*D2
340
0
 70
0
280
1
281
0
  0
BLOCK_RECORD
  5
556
330
1
100
AcDbSymbolTableRecord
100
AcDbBlockTableRecord
  2
*D3
340
0
 70
0
280
1
281
0
  0
BLOCK_RECORD
  5
56E
330
1
100
AcDbSymbolTableRecord
100
AcDbBlockTableRecord
  2
*D4
340
0
 70
0
280
1
281
0
  0
BLOCK_RECORD
  5
586
330
1
100
AcDbSymbolTableRecord
100
AcDbBlockTableRecord
  2
*D5
340
0
 70
0
280
1
281
0
  0
BLOCK_RECORD
  5
59E
330
1
100
AcDbSymbolTableRecord
100
AcDbBlockTableRecord
  2
*D6
340
0
 70
0
280
1
281
0
  0
BLOCK_RECORD
  5
5B6
330
1
100
AcDbSymbolTableRecord
100
AcDbBlockTableRecord
  2
*D7
340
0
 70
0
280
1
281
0
  0
BLOCK_RECORD
  5
5CE
330
1
100
AcDbSymbolTableRecord
100
AcDbBlockTableRecord
  2
*D8
340
0
 70
0
280
1
281
0
  0
BLOCK_RECORD
  5
5EA
330
1
100
AcDbSymbolTableRecord
100
AcDbBlockTableRecord
  2
*D9
340
0
 70
0
280
1
281
0
  0
BLOCK_RECORD
  5
602
330
1
100
AcDbSymbolTableRecord
100
AcDbBlockTableRecord
  2
*D10
340
0
 70
0
280
1
281
0
  0
BLOCK_RECORD
  5
61A
330
1
100
AcDbSymbolTableRecord
100
AcDbBlockTableRecord
  2
*D11
340
0
 70
0
280
1
281
0
  0
BLOCK_RECORD
  5
632
330
1
100
AcDbSymbolTableRecord
100
AcDbBlockTableRecord
  2
*D12
340
0
 70
0
280
1
281
0
  0
BLOCK_RECORD
  5
64E
330
1
100
AcDbSymbolTableRecord
100
AcDbBlockTableRecord
  2
*D13
340
0
 70
0
280
1
281
0
  0
BLOCK_RECORD
  5
666
330
1
100
AcDbSymbolTableRecord
100
AcDbBlockTableRecord
  2
*D14
340
0
 70
0
280
1
281
0
  0
BLOCK_RECORD
  5
67E
330
1
100
AcDbSymbolTableRecord
100
AcDbBlockTableRecord
  2
*D15
340
0
 70
0
280
1
281
0
  0
BLOCK_RECORD
  5
696
330
1
100
AcDbSymbolTableRecord
100
AcDbBlockTableRecord
  2
*D16
340
0
 70
0
280
1
281
0
  0
BLOCK_RECORD
  5
6B2
330
1
100
AcDbSymbolTableRecord
100
AcDbBlockTableRecord
  2
*D17
340
0
 70
0
280
1
281
0
  0
BLOCK_RECORD
  5
6CA
330
1
100
AcDbSymbolTableRecord
100
AcDbBlockTableRecord
  2
*D18
340
0
 70
0
280
1
281
0
  0
BLOCK_RECORD
  5
6E6
330
1
100
AcDbSymbolTableRecord
100
AcDbBlockTableRecord
  2
*D19
340
0
 70
0
280
1
281
0
  0
BLOCK_RECORD
  5
6FE
330
1
100
AcDbSymbolTableRecord
100
AcDbBlockTableRecord
  2
*D20
340
0
 70
0
280
1
281
0
  0
BLOCK_RECORD
  5
71A
330
1
100
AcDbSymbolTableRecord
100
AcDbBlockTableRecord
  2
*D21
340
0
 70
0
280
1
281
0
  0
BLOCK_RECORD
  5
762
330
1
100
AcDbSymbolTableRecord
100
AcDbBlockTableRecord
  2
*D23
340
0
 70
0
280
1
281
0
  0
BLOCK_RECORD
  5
77A
330
1
100
AcDbSymbolTableRecord
100
AcDbBlockTableRecord
  2
*D24
340
0
 70
0
280
1
281
0
  0
BLOCK_RECORD
  5
792
330
1
100
AcDbSymbolTableRecord
100
AcDbBlockTableRecord
  2
*D25
340
0
 70
0
280
1
281
0
  0
BLOCK_RECORD
  5
7AA
330
1
100
AcDbSymbolTableRecord
100
AcDbBlockTableRecord
  2
*D26
340
0
 70
0
280
1
281
0
  0
BLOCK_RECORD
  5
7C2
330
1
100
AcDbSymbolTableRecord
100
AcDbBlockTableRecord
  2
*D27
340
0
 70
0
280
1
281
0
  0
ENDTAB
  0
ENDSEC
  0
SECTION
  2
BLOCKS
  0
BLOCK
  5
20
330
1F
100
AcDbEntity
  8
0
100
AcDbBlockBegin
  2
*Model_Space
 70
0
 10
0.0
 20
0.0
 30
0.0
  3
*Model_Space
  1

  0
ENDBLK
  5
21
330
1F
100
AcDbEntity
  8
0
100
AcDbBlockEnd
  0
BLOCK
  5
D4
330
D2
100
AcDbEntity
 67
1
  8
0
100
AcDbBlockBegin
  2
*Paper_Space
 70
0
 10
0.0
 20
0.0
 30
0.0
  3
*Paper_Space
  1

  0
ENDBLK
  5
D5
330
D2
100
AcDbEntity
 67
1
  8
0
100
AcDbBlockEnd
  0
BLOCK
  5
D8
330
D6
100
AcDbEntity
  8
0
100
AcDbBlockBegin
  2
*Paper_Space0
 70
0
 10
0.0
 20
0.0
 30
0.0
  3
*Paper_Space0
  1

  0
ENDBLK
  5
D9
330
D6
100
AcDbEntity
  8
0
100
AcDbBlockEnd
  0
BLOCK
  5
52B
330
52A
100
AcDbEntity
  8
0
100
AcDbBlockBegin
  2
*D1
 70
1
 10
0.0
 20
0.0
 30
0.0
  3
*D1
  1

  0
LINE
  5
533
330
52A
100
AcDbEntity
  8
0
 62
0
370
-2
440
16777216
100
AcDbLine
 10
328.6823416324787
 20
375.1320117246142
 30
0.0
 11
264.4290755492056
 21
301.8985372952325
 31
0.0
  0
MTEXT
  5
534
330
52A
100
AcDbEntity
  8
0
 62
0
440
16777216
100
AcDbMText
 10
290.5067535847646
 20
360.4516526719374
 30
0.0
 40
25.0
 41
0.0
 46
0.0
 71
5
  1
R85
 11
0.6595154075132383
 21
0.7516910450794576
 31
0.0
  0
SOLID
  5
535
330
52A
100
AcDbEntity
  8
0
 62
0
440
16777216
100
AcDbTrace
 10
261.2970295280412
 20
304.6465181598711
 30
0.0
 11
267.56112157037
 21
299.150556430594
 31
0.0
 12
247.9411903613747
 22
283.1062611682461
 32
0.0
 13
247.9411903613747
 23
283.1062611682461
 33
0.0
  0
POINT
  5
536
330
52A
100
AcDbEntity
  8
Defpoints
 62
0
440
16777216
100
AcDbPoint
 10
247.9411903613747
 20
283.1062611682461
 30
0.0
  0
POINT
  5
537
330
52A
100
AcDbEntity
  8
Defpoints
 62
0
440
16777216
100
AcDbPoint
 10
303.9999999999999
 20
346.9999999999999
 30
0.0
  0
ENDBLK
  5
52C
330
52A
100
AcDbEntity
  8
0
100
AcDbBlockEnd
  0
BLOCK
  5
53B
330
53A
100
AcDbEntity
  8
0
100
AcDbBlockBegin
  2
*D2
 70
1
 10
0.0
 20
0.0
 30
0.0
  3
*D2
  1

  0
LINE
  5
549
330
53A
100
AcDbEntity
  8
0
 62
0
370
-2
440
16777216
100
AcDbLine
 10
218.9999999999999
 20
353.25
 30
0.0
 11
218.9999999999999
 21
388.1549253626777
 31
0.0
  0
LINE
  5
54A
330
53A
100
AcDbEntity
  8
0
 62
0
370
-2
440
16777216
100
AcDbLine
 10
164.0
 20
353.25
 30
0.0
 11
164.0
 21
388.1549253626777
 31
0.0
  0
LINE
  5
54B
330
53A
100
AcDbEntity
  8
0
 62
0
370
-2
440
16777216
100
AcDbLine
 10
243.9999999999999
 20
375.6549253626777
 30
0.0
 11
268.9999999999999
 21
375.6549253626777
 31
0.0
  0
LINE
  5
54C
330
53A
100
AcDbEntity
  8
0
 62
0
370
-2
440
16777216
100
AcDbLine
 10
139.0
 20
375.6549253626777
 30
0.0
 11
114.0
 21
375.6549253626777
 31
0.0
  0
LINE
  5
54D
330
53A
100
AcDbEntity
  8
0
 62
0
370
-2
440
16777216
100
AcDbLine
 10
218.9999999999999
 20
375.6549253626777
 30
0.0
 11
164.0
 21
375.6549253626777
 31
0.0
  0
SOLID
  5
54E
330
53A
100
AcDbEntity
  8
0
 62
0
440
16777216
100
AcDbTrace
 10
243.9999999999999
 20
379.8215920293443
 30
0.0
 11
243.9999999999999
 21
371.488258696011
 31
0.0
 12
218.9999999999999
 22
375.6549253626777
 32
0.0
 13
218.9999999999999
 23
375.6549253626777
 33
0.0
  0
SOLID
  5
54F
330
53A
100
AcDbEntity
  8
0
 62
0
440
16777216
100
AcDbTrace
 10
139.0
 20
379.8215920293443
 30
0.0
 11
139.0
 21
371.488258696011
 31
0.0
 12
164.0
 22
375.6549253626777
 32
0.0
 13
164.0
 23
375.6549253626777
 33
0.0
  0
MTEXT
  5
550
330
53A
100
AcDbEntity
  8
0
 62
0
440
16777216
100
AcDbMText
 10
191.5
 20
394.6180904377118
 30
0.0
 40
25.0
 41
0.0
 46
0.0
 71
5
  1
55
  0
POINT
  5
551
330
53A
100
AcDbEntity
  8
Defpoints
 62
0
440
16777216
100
AcDbPoint
 10
218.9999999999999
 20
347.0
 30
0.0
  0
POINT
  5
552
330
53A
100
AcDbEntity
  8
Defpoints
 62
0
440
16777216
100
AcDbPoint
 10
164.0
 20
347.0
 30
0.0
  0
POINT
  5
553
330
53A
100
AcDbEntity
  8
Defpoints
 62
0
440
16777216
100
AcDbPoint
 10
164.0
 20
375.6549253626777
 30
0.0
  0
ENDBLK
  5
53C
330
53A
100
AcDbEntity
  8
0
100
AcDbBlockEnd
  0
BLOCK
  5
557
330
556
100
AcDbEntity
  8
0
100
AcDbBlockBegin
  2
*D3
 70
1
 10
0.0
 20
0.0
 30
0.0
  3
*D3
  1

  0
LINE
  5
563
330
556
100
AcDbEntity
  8
0
 62
0
370
-2
440
16777216
100
AcDbLine
 10
164.0
 20
200.75
 30
0.0
 11
164.0
 21
34.21653014258845
 31
0.0
  0
LINE
  5
564
330
556
100
AcDbEntity
  8
0
 62
0
370
-2
440
16777216
100
AcDbLine
 10
303.9999999999999
 20
200.75
 30
0.0
 11
303.9999999999999
 21
34.21653014258845
 31
0.0
  0
LINE
  5
565
330
556
100
AcDbEntity
  8
0
 62
0
370
-2
440
16777216
100
AcDbLine
 10
189.0
 20
46.71653014258845
 30
0.0
 11
278.9999999999999
 21
46.71653014258845
 31
0.0
  0
SOLID
  5
566
330
556
100
AcDbEntity
  8
0
 62
0
440
16777216
100
AcDbTrace
 10
189.0
 20
50.88319680925512
 30
0.0
 11
189.0
 21
42.54986347592179
 31
0.0
 12
164.0
 22
46.71653014258845
 32
0.0
 13
164.0
 23
46.71653014258845
 33
0.0
  0
SOLID
  5
567
330
556
100
AcDbEntity
  8
0
 62
0
440
16777216
100
AcDbTrace
 10
278.9999999999999
 20
50.88319680925512
 30
0.0
 11
278.9999999999999
 21
42.54986347592179
 31
0.0
 12
303.9999999999999
 22
46.71653014258845
 32
0.0
 13
303.9999999999999
 23
46.71653014258845
 33
0.0
  0
MTEXT
  5
568
330
556
100
AcDbEntity
  8
0
 62
0
440
16777216
100
AcDbMText
 10
233.9999999999999
 20
65.73085483563074
 30
0.0
 40
25.0
 41
0.0
 46
0.0
 71
5
  1
140
  0
POINT
  5
569
330
556
100
AcDbEntity
  8
Defpoints
 62
0
440
16777216
100
AcDbPoint
 10
164.0
 20
207.0
 30
0.0
  0
POINT
  5
56A
330
556
100
AcDbEntity
  8
Defpoints
 62
0
440
16777216
100
AcDbPoint
 10
303.9999999999999
 20
207.0
 30
0.0
  0
POINT
  5
56B
330
556
100
AcDbEntity
  8
Defpoints
 62
0
440
16777216
100
AcDbPoint
 10
303.9999999999999
 20
46.71653014258845
 30
0.0
  0
ENDBLK
  5
558
330
556
100
AcDbEntity
  8
0
100
AcDbBlockEnd
  0
BLOCK
  5
56F
330
56E
100
AcDbEntity
  8
0
100
AcDbBlockBegin
  2
*D4
 70
1
 10
0.0
 20
0.0
 30
0.0
  3
*D4
  1

  0
LINE
  5
57B
330
56E
100
AcDbEntity
  8
0
 62
0
370
-2
440
16777216
100
AcDbLine
 10
484.0
 20
266.25
 30
0.0
 11
484.0
 21
323.6364629256368
 31
0.0
  0
LINE
  5
57C
330
56E
100
AcDbEntity
  8
0
 62
0
370
-2
440
16777216
100
AcDbLine
 10
624.0
 20
266.25
 30
0.0
 11
624.0
 21
323.6364629256368
 31
0.0
  0
LINE
  5
57D
330
56E
100
AcDbEntity
  8
0
 62
0
370
-2
440
16777216
100
AcDbLine
 10
509.0
 20
311.1364629256368
 30
0.0
 11
599.0
 21
311.1364629256368
 31
0.0
  0
SOLID
  5
57E
330
56E
100
AcDbEntity
  8
0
 62
0
440
16777216
100
AcDbTrace
 10
509.0
 20
315.3031295923035
 30
0.0
 11
509.0
 21
306.9697962589701
 31
0.0
 12
484.0
 22
311.1364629256368
 32
0.0
 13
484.0
 23
311.1364629256368
 33
0.0
  0
SOLID
  5
57F
330
56E
100
AcDbEntity
  8
0
 62
0
440
16777216
100
AcDbTrace
 10
599.0
 20
315.3031295923035
 30
0.0
 11
599.0
 21
306.9697962589701
 31
0.0
 12
624.0
 22
311.1364629256368
 32
0.0
 13
624.0
 23
311.1364629256368
 33
0.0
  0
MTEXT
  5
580
330
56E
100
AcDbEntity
  8
0
 62
0
440
16777216
100
AcDbMText
 10
554.0
 20
330.1507876186791
 30
0.0
 40
25.0
 41
0.0
 46
0.0
 71
5
  1
140
  0
POINT
  5
581
330
56E
100
AcDbEntity
  8
Defpoints
 62
0
440
16777216
100
AcDbPoint
 10
484.0
 20
260.0
 30
0.0
  0
POINT
  5
582
330
56E
100
AcDbEntity
  8
Defpoints
 62
0
440
16777216
100
AcDbPoint
 10
624.0
 20
260.0
 30
0.0
  0
POINT
  5
583
330
56E
100
AcDbEntity
  8
Defpoints
 62
0
440
16777216
100
AcDbPoint
 10
624.0
 20
311.1364629256368
 30
0.0
  0
ENDBLK
  5
570
330
56E
100
AcDbEntity
  8
0
100
AcDbBlockEnd
  0
BLOCK
  5
587
330
586
100
AcDbEntity
  8
0
100
AcDbBlockBegin
  2
*D5
 70
1
 10
0.0
 20
0.0
 30
0.0
  3
*D5
  1

  0
LINE
  5
593
330
586
100
AcDbEntity
  8
0
 62
0
370
-2
440
16777216
100
AcDbLine
 10
630.2500000000002
 20
260.0000000000001
 30
0.0
 11
663.5839593226941
 21
260.0000000000002
 31
0.0
  0
LINE
  5
594
330
586
100
AcDbEntity
  8
0
 62
0
370
-2
440
16777216
100
AcDbLine
 10
630.2500000000002
 20
185.0000000000001
 30
0.0
 11
663.5839593226942
 21
185.0000000000001
 31
0.0
  0
LINE
  5
595
330
586
100
AcDbEntity
  8
0
 62
0
370
-2
440
16777216
100
AcDbLine
 10
651.0839593226942
 20
235.0000000000001
 30
0.0
 11
651.0839593226942
 21
210.0000000000001
 31
0.0
  0
SOLID
  5
596
330
586
100
AcDbEntity
  8
0
 62
0
440
16777216
100
AcDbTrace
 10
646.9172926560276
 20
235.0000000000001
 30
0.0
 11
655.2506259893609
 21
235.0000000000001
 31
0.0
 12
651.0839593226941
 22
260.0000000000002
 32
0.0
 13
651.0839593226941
 23
260.0000000000002
 33
0.0
  0
SOLID
  5
597
330
586
100
AcDbEntity
  8
0
 62
0
440
16777216
100
AcDbTrace
 10
646.9172926560276
 20
210.0000000000001
 30
0.0
 11
655.2506259893609
 21
210.0000000000001
 31
0.0
 12
651.0839593226942
 22
185.0000000000001
 32
0.0
 13
651.0839593226942
 23
185.0000000000001
 33
0.0
  0
MTEXT
  5
598
330
586
100
AcDbEntity
  8
0
 62
0
440
16777216
100
AcDbMText
 10
632.12079424766
 20
222.4999999999999
 30
0.0
 40
25.0
 41
0.0
 46
0.0
 71
5
  1
75
 11
6.123233995736766e-17
 21
1.0
 31
0.0
  0
POINT
  5
599
330
586
100
AcDbEntity
  8
Defpoints
 62
0
440
16777216
100
AcDbPoint
 10
624.0000000000002
 20
260.0000000000001
 30
0.0
  0
POINT
  5
59A
330
586
100
AcDbEntity
  8
Defpoints
 62
0
440
16777216
100
AcDbPoint
 10
624.0000000000002
 20
185.0000000000001
 30
0.0
  0
POINT
  5
59B
330
586
100
AcDbEntity
  8
Defpoints
 62
0
440
16777216
100
AcDbPoint
 10
651.0839593226942
 20
185.0000000000001
 30
0.0
  0
ENDBLK
  5
588
330
586
100
AcDbEntity
  8
0
100
AcDbBlockEnd
  0
BLOCK
  5
59F
330
59E
100
AcDbEntity
  8
0
100
AcDbBlockBegin
  2
*D6
 70
1
 10
0.0
 20
0.0
 30
0.0
  3
*D6
  1

  0
LINE
  5
5AB
330
59E
100
AcDbEntity
  8
0
 62
0
370
-2
440
16777216
100
AcDbLine
 10
709.4634483594746
 20
266.25
 30
0.0
 11
709.4634483594746
 21
340.5593371850564
 31
0.0
  0
LINE
  5
5AC
330
59E
100
AcDbEntity
  8
0
 62
0
370
-2
440
16777216
100
AcDbLine
 10
1064.463448359475
 20
266.25
 30
0.0
 11
1064.463448359475
 21
340.5593371850564
 31
0.0
  0
LINE
  5
5AD
330
59E
100
AcDbEntity
  8
0
 62
0
370
-2
440
16777216
100
AcDbLine
 10
734.4634483594746
 20
328.0593371850564
 30
0.0
 11
1039.463448359475
 21
328.0593371850564
 31
0.0
  0
SOLID
  5
5AE
330
59E
100
AcDbEntity
  8
0
 62
0
440
16777216
100
AcDbTrace
 10
734.4634483594746
 20
332.2260038517231
 30
0.0
 11
734.4634483594746
 21
323.8926705183897
 31
0.0
 12
709.4634483594746
 22
328.0593371850564
 32
0.0
 13
709.4634483594746
 23
328.0593371850564
 33
0.0
  0
SOLID
  5
5AF
330
59E
100
AcDbEntity
  8
0
 62
0
440
16777216
100
AcDbTrace
 10
1039.463448359475
 20
332.2260038517231
 30
0.0
 11
1039.463448359475
 21
323.8926705183897
 31
0.0
 12
1064.463448359475
 22
328.0593371850564
 32
0.0
 13
1064.463448359475
 23
328.0593371850564
 33
0.0
  0
MTEXT
  5
5B0
330
59E
100
AcDbEntity
  8
0
 62
0
440
16777216
100
AcDbMText
 10
886.9634483594746
 20
347.0821884811
 30
0.0
 40
25.0
 41
0.0
 46
0.0
 71
5
  1
355
  0
POINT
  5
5B1
330
59E
100
AcDbEntity
  8
Defpoints
 62
0
440
16777216
100
AcDbPoint
 10
709.4634483594746
 20
260.0
 30
0.0
  0
POINT
  5
5B2
330
59E
100
AcDbEntity
  8
Defpoints
 62
0
440
16777216
100
AcDbPoint
 10
1064.463448359475
 20
260.0
 30
0.0
  0
POINT
  5
5B3
330
59E
100
AcDbEntity
  8
Defpoints
 62
0
440
16777216
100
AcDbPoint
 10
1064.463448359475
 20
328.0593371850564
 30
0.0
  0
ENDBLK
  5
5A0
330
59E
100
AcDbEntity
  8
0
100
AcDbBlockEnd
  0
BLOCK
  5
5B7
330
5B6
100
AcDbEntity
  8
0
100
AcDbBlockBegin
  2
*D7
 70
1
 10
0.0
 20
0.0
 30
0.0
  3
*D7
  1

  0
LINE
  5
5C3
330
5B6
100
AcDbEntity
  8
0
 62
0
370
-2
440
16777216
100
AcDbLine
 10
1070.713448359475
 20
260.0000000000001
 30
0.0
 11
1106.996394905339
 21
260.0000000000001
 31
0.0
  0
LINE
  5
5C4
330
5B6
100
AcDbEntity
  8
0
 62
0
370
-2
440
16777216
100
AcDbLine
 10
1071.250000000001
 20
110.0000000000001
 30
0.0
 11
1106.996394905339
 21
110.0000000000001
 31
0.0
  0
LINE
  5
5C5
330
5B6
100
AcDbEntity
  8
0
 62
0
370
-2
440
16777216
100
AcDbLine
 10
1094.496394905339
 20
235.0000000000001
 30
0.0
 11
1094.496394905339
 21
135.0000000000001
 31
0.0
  0
SOLID
  5
5C6
330
5B6
100
AcDbEntity
  8
0
 62
0
440
16777216
100
AcDbTrace
 10
1090.329728238672
 20
235.0000000000001
 30
0.0
 11
1098.663061572006
 21
235.0000000000001
 31
0.0
 12
1094.496394905339
 22
260.0000000000001
 32
0.0
 13
1094.496394905339
 23
260.0000000000001
 33
0.0
  0
SOLID
  5
5C7
330
5B6
100
AcDbEntity
  8
0
 62
0
440
16777216
100
AcDbTrace
 10
1090.329728238672
 20
135.0000000000001
 30
0.0
 11
1098.663061572006
 21
135.0000000000001
 31
0.0
 12
1094.496394905339
 22
110.0000000000001
 32
0.0
 13
1094.496394905339
 23
110.0000000000001
 33
0.0
  0
MTEXT
  5
5C8
330
5B6
100
AcDbEntity
  8
0
 62
0
440
16777216
100
AcDbMText
 10
1075.482070212297
 20
184.9999999999997
 30
0.0
 40
25.0
 41
0.0
 46
0.0
 71
5
  1
150
 11
6.123233995736766e-17
 21
1.0
 31
0.0
  0
POINT
  5
5C9
330
5B6
100
AcDbEntity
  8
Defpoints
 62
0
440
16777216
100
AcDbPoint
 10
1064.463448359475
 20
260.0000000000001
 30
0.0
  0
POINT
  5
5CA
330
5B6
100
AcDbEntity
  8
Defpoints
 62
0
440
16777216
100
AcDbPoint
 10
1065.000000000001
 20
110.0000000000001
 30
0.0
  0
POINT
  5
5CB
330
5B6
100
AcDbEntity
  8
Defpoints
 62
0
440
16777216
100
AcDbPoint
 10
1094.496394905339
 20
110.0000000000001
 30
0.0
  0
ENDBLK
  5
5B8
330
5B6
100
AcDbEntity
  8
0
100
AcDbBlockEnd
  0
BLOCK
  5
5CF
330
5CE
100
AcDbEntity
  8
0
100
AcDbBlockBegin
  2
*D8
 70
1
 10
0.0
 20
0.0
 30
0.0
  3
*D8
  1

  0
LINE
  5
852
330
5CE
100
AcDbEntity
  8
0
 62
0
370
-2
440
16777216
100
AcDbLine
 10
1149.731724179737
 20
285.35
 30
0.0
 11
1149.731724179737
 21
336.0403854241949
 31
0.0
  0
LINE
  5
853
330
5CE
100
AcDbEntity
  8
0
 62
0
370
-2
440
16777216
100
AcDbLine
 10
1156.731724179737
 20
285.35
 30
0.0
 11
1156.731724179737
 21
336.0403854241949
 31
0.0
  0
LINE
  5
854
330
5CE
100
AcDbEntity
  8
0
 62
0
370
-2
440
16777216
100
AcDbLine
 10
1181.731724179737
 20
323.5403854241949
 30
0.0
 11
1206.731724179737
 21
323.5403854241949
 31
0.0
  0
LINE
  5
855
330
5CE
100
AcDbEntity
  8
0
 62
0
370
-2
440
16777216
100
AcDbLine
 10
1124.731724179737
 20
323.5403854241949
 30
0.0
 11
1071.048231683148
 21
323.5403854241949
 31
0.0
  0
LINE
  5
856
330
5CE
100
AcDbEntity
  8
0
 62
0
370
-2
440
16777216
100
AcDbLine
 10
1156.731724179737
 20
323.5403854241949
 30
0.0
 11
1149.731724179737
 21
323.5403854241949
 31
0.0
  0
SOLID
  5
857
330
5CE
100
AcDbEntity
  8
0
 62
0
440
16777216
100
AcDbTrace
 10
1181.731724179737
 20
327.7070520908616
 30
0.0
 11
1181.731724179737
 21
319.3737187575283
 31
0.0
 12
1156.731724179737
 22
323.5403854241949
 32
0.0
 13
1156.731724179737
 23
323.5403854241949
 33
0.0
  0
SOLID
  5
858
330
5CE
100
AcDbEntity
  8
0
 62
0
440
16777216
100
AcDbTrace
 10
1124.731724179737
 20
327.7070520908616
 30
0.0
 11
1124.731724179737
 21
319.3737187575283
 31
0.0
 12
1149.731724179737
 22
323.5403854241949
 32
0.0
 13
1149.731724179737
 23
323.5403854241949
 33
0.0
  0
MTEXT
  5
859
330
5CE
100
AcDbEntity
  8
0
 62
0
440
16777216
100
AcDbMText
 10
1085.389977931443
 20
342.2903854241949
 30
0.0
 40
25.0
 41
0.0
 46
0.0
 71
5
  1
7
  0
POINT
  5
85A
330
5CE
100
AcDbEntity
  8
Defpoints
 62
0
440
16777216
100
AcDbPoint
 10
1149.731724179737
 20
279.1
 30
0.0
  0
POINT
  5
85B
330
5CE
100
AcDbEntity
  8
Defpoints
 62
0
440
16777216
100
AcDbPoint
 10
1156.731724179737
 20
279.1
 30
0.0
  0
POINT
  5
85C
330
5CE
100
AcDbEntity
  8
Defpoints
 62
0
440
16777216
100
AcDbPoint
 10
1156.731724179737
 20
323.5403854241949
 30
0.0
  0
ENDBLK
  5
5D0
330
5CE
100
AcDbEntity
  8
0
100
AcDbBlockEnd
  0
BLOCK
  5
5EB
330
5EA
100
AcDbEntity
  8
0
100
AcDbBlockBegin
  2
*D9
 70
1
 10
0.0
 20
0.0
 30
0.0
  3
*D9
  1

  0
LINE
  5
5F7
330
5EA
100
AcDbEntity
  8
0
 62
0
370
-2
440
16777216
100
AcDbLine
 10
1162.981724179738
 20
279.1000000000001
 30
0.0
 11
1183.1913755754
 21
279.1000000000001
 31
0.0
  0
LINE
  5
5F8
330
5EA
100
AcDbEntity
  8
0
 62
0
370
-2
440
16777216
100
AcDbLine
 10
1162.981724179738
 20
90.90000000000006
 30
0.0
 11
1183.1913755754
 21
90.90000000000006
 31
0.0
  0
LINE
  5
5F9
330
5EA
100
AcDbEntity
  8
0
 62
0
370
-2
440
16777216
100
AcDbLine
 10
1170.6913755754
 20
254.1000000000001
 30
0.0
 11
1170.6913755754
 21
115.9000000000001
 31
0.0
  0
SOLID
  5
5FA
330
5EA
100
AcDbEntity
  8
0
 62
0
440
16777216
100
AcDbTrace
 10
1166.524708908733
 20
254.1000000000001
 30
0.0
 11
1174.858042242066
 21
254.1000000000001
 31
0.0
 12
1170.6913755754
 22
279.1000000000001
 32
0.0
 13
1170.6913755754
 23
279.1000000000001
 33
0.0
  0
SOLID
  5
5FB
330
5EA
100
AcDbEntity
  8
0
 62
0
440
16777216
100
AcDbTrace
 10
1166.524708908733
 20
115.9000000000001
 30
0.0
 11
1174.858042242066
 21
115.9000000000001
 31
0.0
 12
1170.6913755754
 22
90.90000000000006
 32
0.0
 13
1170.6913755754
 23
90.90000000000006
 33
0.0
  0
MTEXT
  5
5FC
330
5EA
100
AcDbEntity
  8
0
 62
0
440
16777216
100
AcDbMText
 10
1149.417501086995
 20
184.9999999999997
 30
0.0
 40
25.0
 41
0.0
 46
0.0
 71
5
  1
188,2
 11
6.123233995736766e-17
 21
1.0
 31
0.0
  0
POINT
  5
5FD
330
5EA
100
AcDbEntity
  8
Defpoints
 62
0
440
16777216
100
AcDbPoint
 10
1156.731724179738
 20
279.1000000000001
 30
0.0
  0
POINT
  5
5FE
330
5EA
100
AcDbEntity
  8
Defpoints
 62
0
440
16777216
100
AcDbPoint
 10
1156.731724179738
 20
90.90000000000006
 30
0.0
  0
POINT
  5
5FF
330
5EA
100
AcDbEntity
  8
Defpoints
 62
0
440
16777216
100
AcDbPoint
 10
1170.6913755754
 20
90.90000000000006
 30
0.0
  0
ENDBLK
  5
5EC
330
5EA
100
AcDbEntity
  8
0
100
AcDbBlockEnd
  0
BLOCK
  5
603
330
602
100
AcDbEntity
  8
0
100
AcDbBlockBegin
  2
*D10
 70
1
 10
0.0
 20
0.0
 30
0.0
  3
*D10
  1

  0
LINE
  5
60F
330
602
100
AcDbEntity
  8
0
 62
0
370
-2
440
16777216
100
AcDbLine
 10
110.0
 20
638.25
 30
0.0
 11
110.0
 21
706.9387947843966
 31
0.0
  0
LINE
  5
610
330
602
100
AcDbEntity
  8
0
 62
0
370
-2
440
16777216
100
AcDbLine
 10
250.0
 20
638.25
 30
0.0
 11
250.0
 21
706.9387947843966
 31
0.0
  0
LINE
  5
611
330
602
100
AcDbEntity
  8
0
 62
0
370
-2
440
16777216
100
AcDbLine
 10
135.0
 20
694.4387947843966
 30
0.0
 11
225.0
 21
694.4387947843966
 31
0.0
  0
SOLID
  5
612
330
602
100
AcDbEntity
  8
0
 62
0
440
16777216
100
AcDbTrace
 10
135.0
 20
698.6054614510632
 30
0.0
 11
135.0
 21
690.27212811773
 31
0.0
 12
110.0
 22
694.4387947843966
 32
0.0
 13
110.0
 23
694.4387947843966
 33
0.0
  0
SOLID
  5
613
330
602
100
AcDbEntity
  8
0
 62
0
440
16777216
100
AcDbTrace
 10
225.0
 20
698.6054614510632
 30
0.0
 11
225.0
 21
690.27212811773
 31
0.0
 12
250.0
 22
694.4387947843966
 32
0.0
 13
250.0
 23
694.4387947843966
 33
0.0
  0
MTEXT
  5
614
330
602
100
AcDbEntity
  8
0
 62
0
440
16777216
100
AcDbMText
 10
180.0
 20
713.4531194774389
 30
0.0
 40
25.0
 41
0.0
 46
0.0
 71
5
  1
140
  0
POINT
  5
615
330
602
100
AcDbEntity
  8
Defpoints
 62
0
440
16777216
100
AcDbPoint
 10
110.0
 20
632.0
 30
0.0
  0
POINT
  5
616
330
602
100
AcDbEntity
  8
Defpoints
 62
0
440
16777216
100
AcDbPoint
 10
250.0
 20
632.0
 30
0.0
  0
POINT
  5
617
330
602
100
AcDbEntity
  8
Defpoints
 62
0
440
16777216
100
AcDbPoint
 10
250.0
 20
694.4387947843966
 30
0.0
  0
ENDBLK
  5
604
330
602
100
AcDbEntity
  8
0
100
AcDbBlockEnd
  0
BLOCK
  5
61B
330
61A
100
AcDbEntity
  8
0
100
AcDbBlockBegin
  2
*D11
 70
1
 10
0.0
 20
0.0
 30
0.0
  3
*D11
  1

  0
LINE
  5
627
330
61A
100
AcDbEntity
  8
0
 62
0
370
-2
440
16777216
100
AcDbLine
 10
256.2500000000002
 20
632.0000000000003
 30
0.0
 11
282.6232492591973
 21
632.0000000000003
 31
0.0
  0
LINE
  5
628
330
61A
100
AcDbEntity
  8
0
 62
0
370
-2
440
16777216
100
AcDbLine
 10
256.2500000000001
 20
557.0000000000003
 30
0.0
 11
282.6232492591973
 21
557.0000000000003
 31
0.0
  0
LINE
  5
629
330
61A
100
AcDbEntity
  8
0
 62
0
370
-2
440
16777216
100
AcDbLine
 10
270.1232492591973
 20
607.0000000000003
 30
0.0
 11
270.1232492591973
 21
582.0000000000003
 31
0.0
  0
SOLID
  5
62A
330
61A
100
AcDbEntity
  8
0
 62
0
440
16777216
100
AcDbTrace
 10
265.9565825925307
 20
607.0000000000003
 30
0.0
 11
274.289915925864
 21
607.0000000000003
 31
0.0
 12
270.1232492591973
 22
632.0000000000003
 32
0.0
 13
270.1232492591973
 23
632.0000000000003
 33
0.0
  0
SOLID
  5
62B
330
61A
100
AcDbEntity
  8
0
 62
0
440
16777216
100
AcDbTrace
 10
265.9565825925307
 20
582.0000000000003
 30
0.0
 11
274.289915925864
 21
582.0000000000003
 31
0.0
 12
270.1232492591973
 22
557.0000000000003
 32
0.0
 13
270.1232492591973
 23
557.0000000000003
 33
0.0
  0
MTEXT
  5
62C
330
61A
100
AcDbEntity
  8
0
 62
0
440
16777216
100
AcDbMText
 10
251.1600841841633
 20
594.5000000000001
 30
0.0
 40
25.0
 41
0.0
 46
0.0
 71
5
  1
75
 11
6.123233995736766e-17
 21
1.0
 31
0.0
  0
POINT
  5
62D
330
61A
100
AcDbEntity
  8
Defpoints
 62
0
440
16777216
100
AcDbPoint
 10
250.0000000000001
 20
632.0000000000002
 30
0.0
  0
POINT
  5
62E
330
61A
100
AcDbEntity
  8
Defpoints
 62
0
440
16777216
100
AcDbPoint
 10
250.0000000000001
 20
557.0000000000002
 30
0.0
  0
POINT
  5
62F
330
61A
100
AcDbEntity
  8
Defpoints
 62
0
440
16777216
100
AcDbPoint
 10
270.1232492591973
 20
557.0000000000003
 30
0.0
  0
ENDBLK
  5
61C
330
61A
100
AcDbEntity
  8
0
100
AcDbBlockEnd
  0
BLOCK
  5
633
330
632
100
AcDbEntity
  8
0
100
AcDbBlockBegin
  2
*D12
 70
1
 10
0.0
 20
0.0
 30
0.0
  3
*D12
  1

  0
LINE
  5
641
330
632
100
AcDbEntity
  8
0
 62
0
370
-2
440
16777216
100
AcDbLine
 10
330.0
 20
453.75
 30
0.0
 11
330.0
 21
420.6918993687077
 31
0.0
  0
LINE
  5
642
330
632
100
AcDbEntity
  8
0
 62
0
370
-2
440
16777216
100
AcDbLine
 10
390.0
 20
453.75
 30
0.0
 11
390.0
 21
420.6918993687077
 31
0.0
  0
LINE
  5
643
330
632
100
AcDbEntity
  8
0
 62
0
370
-2
440
16777216
100
AcDbLine
 10
305.0
 20
433.1918993687077
 30
0.0
 11
280.0
 21
433.1918993687077
 31
0.0
  0
LINE
  5
644
330
632
100
AcDbEntity
  8
0
 62
0
370
-2
440
16777216
100
AcDbLine
 10
415.0
 20
433.1918993687077
 30
0.0
 11
440.0
 21
433.1918993687077
 31
0.0
  0
LINE
  5
645
330
632
100
AcDbEntity
  8
0
 62
0
370
-2
440
16777216
100
AcDbLine
 10
330.0
 20
433.1918993687077
 30
0.0
 11
390.0
 21
433.1918993687077
 31
0.0
  0
SOLID
  5
646
330
632
100
AcDbEntity
  8
0
 62
0
440
16777216
100
AcDbTrace
 10
305.0
 20
437.3585660353744
 30
0.0
 11
305.0
 21
429.025232702041
 31
0.0
 12
330.0
 22
433.1918993687077
 32
0.0
 13
330.0
 23
433.1918993687077
 33
0.0
  0
SOLID
  5
647
330
632
100
AcDbEntity
  8
0
 62
0
440
16777216
100
AcDbTrace
 10
415.0
 20
437.3585660353744
 30
0.0
 11
415.0
 21
429.025232702041
 31
0.0
 12
390.0
 22
433.1918993687077
 32
0.0
 13
390.0
 23
433.1918993687077
 33
0.0
  0
MTEXT
  5
648
330
632
100
AcDbEntity
  8
0
 62
0
440
16777216
100
AcDbMText
 10
360.0
 20
452.20622406175
 30
0.0
 40
25.0
 41
0.0
 46
0.0
 71
5
  1
60
  0
POINT
  5
649
330
632
100
AcDbEntity
  8
Defpoints
 62
0
440
16777216
100
AcDbPoint
 10
330.0
 20
460.0
 30
0.0
  0
POINT
  5
64A
330
632
100
AcDbEntity
  8
Defpoints
 62
0
440
16777216
100
AcDbPoint
 10
390.0
 20
460.0
 30
0.0
  0
POINT
  5
64B
330
632
100
AcDbEntity
  8
Defpoints
 62
0
440
16777216
100
AcDbPoint
 10
390.0
 20
433.1918993687077
 30
0.0
  0
ENDBLK
  5
634
330
632
100
AcDbEntity
  8
0
100
AcDbBlockEnd
  0
BLOCK
  5
64F
330
64E
100
AcDbEntity
  8
0
100
AcDbBlockBegin
  2
*D13
 70
1
 10
0.0
 20
0.0
 30
0.0
  3
*D13
  1

  0
LINE
  5
65B
330
64E
100
AcDbEntity
  8
0
 62
0
370
-2
440
16777216
100
AcDbLine
 10
323.7500000000001
 20
580.0000000000002
 30
0.0
 11
297.8372657925122
 21
580.0000000000002
 31
0.0
  0
LINE
  5
65C
330
64E
100
AcDbEntity
  8
0
 62
0
370
-2
440
16777216
100
AcDbLine
 10
323.7500000000001
 20
460.0000000000002
 30
0.0
 11
297.8372657925122
 21
460.0000000000002
 31
0.0
  0
LINE
  5
65D
330
64E
100
AcDbEntity
  8
0
 62
0
370
-2
440
16777216
100
AcDbLine
 10
310.3372657925122
 20
555.0000000000002
 30
0.0
 11
310.3372657925122
 21
485.0000000000002
 31
0.0
  0
SOLID
  5
65E
330
64E
100
AcDbEntity
  8
0
 62
0
440
16777216
100
AcDbTrace
 10
306.1705991258455
 20
555.0000000000002
 30
0.0
 11
314.5039324591789
 21
555.0000000000002
 31
0.0
 12
310.3372657925122
 22
580.0000000000002
 32
0.0
 13
310.3372657925122
 23
580.0000000000002
 33
0.0
  0
SOLID
  5
65F
330
64E
100
AcDbEntity
  8
0
 62
0
440
16777216
100
AcDbTrace
 10
306.1705991258455
 20
485.0000000000002
 30
0.0
 11
314.5039324591789
 21
485.0000000000002
 31
0.0
 12
310.3372657925122
 22
460.0000000000002
 32
0.0
 13
310.3372657925122
 23
460.0000000000002
 33
0.0
  0
MTEXT
  5
660
330
64E
100
AcDbEntity
  8
0
 62
0
440
16777216
100
AcDbMText
 10
291.32294109947
 20
520.0
 30
0.0
 40
25.0
 41
0.0
 46
0.0
 71
5
  1
120
 11
6.123233995736766e-17
 21
1.0
 31
0.0
  0
POINT
  5
661
330
64E
100
AcDbEntity
  8
Defpoints
 62
0
440
16777216
100
AcDbPoint
 10
330.0000000000001
 20
580.0000000000002
 30
0.0
  0
POINT
  5
662
330
64E
100
AcDbEntity
  8
Defpoints
 62
0
440
16777216
100
AcDbPoint
 10
330.0000000000001
 20
460.0000000000002
 30
0.0
  0
POINT
  5
663
330
64E
100
AcDbEntity
  8
Defpoints
 62
0
440
16777216
100
AcDbPoint
 10
310.3372657925122
 20
460.0000000000002
 30
0.0
  0
ENDBLK
  5
650
330
64E
100
AcDbEntity
  8
0
100
AcDbBlockEnd
  0
BLOCK
  5
667
330
666
100
AcDbEntity
  8
0
100
AcDbBlockBegin
  2
*D14
 70
1
 10
0.0
 20
0.0
 30
0.0
  3
*D14
  1

  0
LINE
  5
673
330
666
100
AcDbEntity
  8
0
 62
0
370
-2
440
16777216
100
AcDbLine
 10
390.0
 20
458.75
 30
0.0
 11
390.0
 21
403.7690251092881
 31
0.0
  0
LINE
  5
674
330
666
100
AcDbEntity
  8
0
 62
0
370
-2
440
16777216
100
AcDbLine
 10
920.0
 20
458.75
 30
0.0
 11
920.0
 21
403.7690251092881
 31
0.0
  0
LINE
  5
675
330
666
100
AcDbEntity
  8
0
 62
0
370
-2
440
16777216
100
AcDbLine
 10
415.0
 20
416.2690251092881
 30
0.0
 11
895.0
 21
416.2690251092881
 31
0.0
  0
SOLID
  5
676
330
666
100
AcDbEntity
  8
0
 62
0
440
16777216
100
AcDbTrace
 10
415.0
 20
420.4356917759548
 30
0.0
 11
415.0
 21
412.1023584426214
 31
0.0
 12
390.0
 22
416.2690251092881
 32
0.0
 13
390.0
 23
416.2690251092881
 33
0.0
  0
SOLID
  5
677
330
666
100
AcDbEntity
  8
0
 62
0
440
16777216
100
AcDbTrace
 10
895.0
 20
420.4356917759548
 30
0.0
 11
895.0
 21
412.1023584426214
 31
0.0
 12
920.0
 22
416.2690251092881
 32
0.0
 13
920.0
 23
416.2690251092881
 33
0.0
  0
MTEXT
  5
678
330
666
100
AcDbEntity
  8
0
 62
0
440
16777216
100
AcDbMText
 10
655.0
 20
435.2918764053318
 30
0.0
 40
25.0
 41
0.0
 46
0.0
 71
5
  1
530
  0
POINT
  5
679
330
666
100
AcDbEntity
  8
Defpoints
 62
0
440
16777216
100
AcDbPoint
 10
390.0
 20
465.0
 30
0.0
  0
POINT
  5
67A
330
666
100
AcDbEntity
  8
Defpoints
 62
0
440
16777216
100
AcDbPoint
 10
920.0
 20
465.0
 30
0.0
  0
POINT
  5
67B
330
666
100
AcDbEntity
  8
Defpoints
 62
0
440
16777216
100
AcDbPoint
 10
920.0
 20
416.2690251092881
 30
0.0
  0
ENDBLK
  5
668
330
666
100
AcDbEntity
  8
0
100
AcDbBlockEnd
  0
BLOCK
  5
67F
330
67E
100
AcDbEntity
  8
0
100
AcDbBlockBegin
  2
*D15
 70
1
 10
0.0
 20
0.0
 30
0.0
  3
*D15
  1

  0
LINE
  5
68B
330
67E
100
AcDbEntity
  8
0
 62
0
370
-2
440
16777216
100
AcDbLine
 10
926.2500000000005
 20
465.0000000000002
 30
0.0
 11
975.7858825795611
 21
465.0000000000002
 31
0.0
  0
LINE
  5
68C
330
67E
100
AcDbEntity
  8
0
 62
0
370
-2
440
16777216
100
AcDbLine
 10
926.2500000000005
 20
695.0000000000002
 30
0.0
 11
975.7858825795611
 21
695.0000000000002
 31
0.0
  0
LINE
  5
68D
330
67E
100
AcDbEntity
  8
0
 62
0
370
-2
440
16777216
100
AcDbLine
 10
963.2858825795611
 20
490.0000000000002
 30
0.0
 11
963.2858825795611
 21
670.0000000000002
 31
0.0
  0
SOLID
  5
68E
330
67E
100
AcDbEntity
  8
0
 62
0
440
16777216
100
AcDbTrace
 10
959.1192159128944
 20
490.0000000000002
 30
0.0
 11
967.4525492462277
 21
490.0000000000002
 31
0.0
 12
963.2858825795611
 22
465.0000000000002
 32
0.0
 13
963.2858825795611
 23
465.0000000000002
 33
0.0
  0
SOLID
  5
68F
330
67E
100
AcDbEntity
  8
0
 62
0
440
16777216
100
AcDbTrace
 10
959.1192159128944
 20
670.0000000000002
 30
0.0
 11
967.4525492462277
 21
670.0000000000002
 31
0.0
 12
963.2858825795611
 22
695.0000000000002
 32
0.0
 13
963.2858825795611
 23
695.0000000000002
 33
0.0
  0
MTEXT
  5
690
330
67E
100
AcDbEntity
  8
0
 62
0
440
16777216
100
AcDbMText
 10
944.2630312835173
 20
579.9999999999998
 30
0.0
 40
25.0
 41
0.0
 46
0.0
 71
5
  1
230
 11
6.123233995736766e-17
 21
1.0
 31
0.0
  0
POINT
  5
691
330
67E
100
AcDbEntity
  8
Defpoints
 62
0
440
16777216
100
AcDbPoint
 10
920.0000000000005
 20
465.0000000000002
 30
0.0
  0
POINT
  5
692
330
67E
100
AcDbEntity
  8
Defpoints
 62
0
440
16777216
100
AcDbPoint
 10
920.0000000000005
 20
695.0000000000002
 30
0.0
  0
POINT
  5
693
330
67E
100
AcDbEntity
  8
Defpoints
 62
0
440
16777216
100
AcDbPoint
 10
963.2858825795611
 20
695.0000000000002
 30
0.0
  0
ENDBLK
  5
680
330
67E
100
AcDbEntity
  8
0
100
AcDbBlockEnd
  0
BLOCK
  5
697
330
696
100
AcDbEntity
  8
0
100
AcDbBlockBegin
  2
*D16
 70
1
 10
0.0
 20
0.0
 30
0.0
  3
*D16
  1

  0
LINE
  5
83E
330
696
100
AcDbEntity
  8
0
 62
0
370
-2
440
16777216
100
AcDbLine
 10
1145.0
 20
421.75
 30
0.0
 11
1145.0
 21
388.8864388987611
 31
0.0
  0
LINE
  5
83F
330
696
100
AcDbEntity
  8
0
 62
0
370
-2
440
16777216
100
AcDbLine
 10
1190.0
 20
421.75
 30
0.0
 11
1190.0
 21
388.8864388987611
 31
0.0
  0
LINE
  5
840
330
696
100
AcDbEntity
  8
0
 62
0
370
-2
440
16777216
100
AcDbLine
 10
1215.0
 20
401.3864388987611
 30
0.0
 11
1240.0
 21
401.3864388987611
 31
0.0
  0
LINE
  5
841
330
696
100
AcDbEntity
  8
0
 62
0
370
-2
440
16777216
100
AcDbLine
 10
1120.0
 20
401.3864388987611
 30
0.0
 11
1045.494542974079
 21
401.3864388987611
 31
0.0
  0
LINE
  5
842
330
696
100
AcDbEntity
  8
0
 62
0
370
-2
440
16777216
100
AcDbLine
 10
1190.0
 20
401.3864388987611
 30
0.0
 11
1145.0
 21
401.3864388987611
 31
0.0
  0
SOLID
  5
843
330
696
100
AcDbEntity
  8
0
 62
0
440
16777216
100
AcDbTrace
 10
1215.0
 20
405.5531055654278
 30
0.0
 11
1215.0
 21
397.2197722320944
 31
0.0
 12
1190.0
 22
401.3864388987611
 32
0.0
 13
1190.0
 23
401.3864388987611
 33
0.0
  0
SOLID
  5
844
330
696
100
AcDbEntity
  8
0
 62
0
440
16777216
100
AcDbTrace
 10
1120.0
 20
405.5531055654278
 30
0.0
 11
1120.0
 21
397.2197722320944
 31
0.0
 12
1145.0
 22
401.3864388987611
 32
0.0
 13
1145.0
 23
401.3864388987611
 33
0.0
  0
MTEXT
  5
845
330
696
100
AcDbEntity
  8
0
 62
0
440
16777216
100
AcDbMText
 10
1070.24727148704
 20
420.3496039737952
 30
0.0
 40
25.0
 41
0.0
 46
0.0
 71
5
  1
45
  0
POINT
  5
846
330
696
100
AcDbEntity
  8
Defpoints
 62
0
440
16777216
100
AcDbPoint
 10
1145.0
 20
428.0
 30
0.0
  0
POINT
  5
847
330
696
100
AcDbEntity
  8
Defpoints
 62
0
440
16777216
100
AcDbPoint
 10
1190.0
 20
428.0
 30
0.0
  0
POINT
  5
848
330
696
100
AcDbEntity
  8
Defpoints
 62
0
440
16777216
100
AcDbPoint
 10
1190.0
 20
401.3864388987611
 30
0.0
  0
ENDBLK
  5
698
330
696
100
AcDbEntity
  8
0
100
AcDbBlockEnd
  0
BLOCK
  5
6B3
330
6B2
100
AcDbEntity
  8
0
100
AcDbBlockBegin
  2
*D17
 70
1
 10
0.0
 20
0.0
 30
0.0
  3
*D17
  1

  0
LINE
  5
849
330
6B2
100
AcDbEntity
  8
0
 62
0
370
-2
440
16777216
100
AcDbLine
 10
1183.750000000001
 20
728.0000000000002
 30
0.0
 11
1111.784865630414
 21
728.0000000000002
 31
0.0
  0
LINE
  5
84A
330
6B2
100
AcDbEntity
  8
0
 62
0
370
-2
440
16777216
100
AcDbLine
 10
1183.750000000001
 20
628.0000000000002
 30
0.0
 11
1111.784865630414
 21
628.0000000000002
 31
0.0
  0
LINE
  5
84B
330
6B2
100
AcDbEntity
  8
0
 62
0
370
-2
440
16777216
100
AcDbLine
 10
1124.284865630414
 20
703.0000000000002
 30
0.0
 11
1124.284865630414
 21
653.0000000000002
 31
0.0
  0
SOLID
  5
84C
330
6B2
100
AcDbEntity
  8
0
 62
0
440
16777216
100
AcDbTrace
 10
1120.118198963747
 20
703.0000000000002
 30
0.0
 11
1128.451532297081
 21
703.0000000000002
 31
0.0
 12
1124.284865630414
 22
728.0000000000002
 32
0.0
 13
1124.284865630414
 23
728.0000000000002
 33
0.0
  0
SOLID
  5
84D
330
6B2
100
AcDbEntity
  8
0
 62
0
440
16777216
100
AcDbTrace
 10
1120.118198963747
 20
653.0000000000002
 30
0.0
 11
1128.451532297081
 21
653.0000000000002
 31
0.0
 12
1124.284865630414
 22
628.0000000000002
 32
0.0
 13
1124.284865630414
 23
628.0000000000002
 33
0.0
  0
MTEXT
  5
84E
330
6B2
100
AcDbEntity
  8
0
 62
0
440
16777216
100
AcDbMText
 10
1105.270540937372
 20
677.9999999999998
 30
0.0
 40
25.0
 41
0.0
 46
0.0
 71
5
  1
100
 11
6.123233995736766e-17
 21
1.0
 31
0.0
  0
POINT
  5
84F
330
6B2
100
AcDbEntity
  8
Defpoints
 62
0
440
16777216
100
AcDbPoint
 10
1190.000000000001
 20
728.0000000000002
 30
0.0
  0
POINT
  5
850
330
6B2
100
AcDbEntity
  8
Defpoints
 62
0
440
16777216
100
AcDbPoint
 10
1190.000000000001
 20
628.0000000000002
 30
0.0
  0
POINT
  5
851
330
6B2
100
AcDbEntity
  8
Defpoints
 62
0
440
16777216
100
AcDbPoint
 10
1124.284865630414
 20
628.0000000000002
 30
0.0
  0
ENDBLK
  5
6B4
330
6B2
100
AcDbEntity
  8
0
100
AcDbBlockEnd
  0
BLOCK
  5
6CB
330
6CA
100
AcDbEntity
  8
0
100
AcDbBlockBegin
  2
*D18
 70
1
 10
0.0
 20
0.0
 30
0.0
  3
*D18
  1

  0
LINE
  5
6D9
330
6CA
100
AcDbEntity
  8
0
 62
0
370
-2
440
16777216
100
AcDbLine
 10
34.0
 20
701.75
 30
0.0
 11
34.0
 21
651.2410669317428
 31
0.0
  0
LINE
  5
6DA
330
6CA
100
AcDbEntity
  8
0
 62
0
370
-2
440
16777216
100
AcDbLine
 10
-4e-16
 20
701.75
 30
0.0
 11
-3.5e-15
 21
651.2410669317428
 31
0.0
  0
LINE
  5
6DB
330
6CA
100
AcDbEntity
  8
0
 62
0
370
-2
440
16777216
100
AcDbLine
 10
59.0
 20
663.7410669317428
 30
0.0
 11
84.0
 21
663.7410669317428
 31
0.0
  0
LINE
  5
6DC
330
6CA
100
AcDbEntity
  8
0
 62
0
370
-2
440
16777216
100
AcDbLine
 10
-25.0
 20
663.7410669317428
 30
0.0
 11
-98.19236016371079
 21
663.7410669317428
 31
0.0
  0
LINE
  5
6DD
330
6CA
100
AcDbEntity
  8
0
 62
0
370
-2
440
16777216
100
AcDbLine
 10
34.0
 20
663.7410669317428
 30
0.0
 11
-2.7e-15
 21
663.7410669317428
 31
0.0
  0
SOLID
  5
6DE
330
6CA
100
AcDbEntity
  8
0
 62
0
440
16777216
100
AcDbTrace
 10
59.0
 20
667.9077335984094
 30
0.0
 11
59.0
 21
659.5744002650762
 31
0.0
 12
34.0
 22
663.7410669317428
 32
0.0
 13
34.0
 23
663.7410669317428
 33
0.0
  0
SOLID
  5
6DF
330
6CA
100
AcDbEntity
  8
0
 62
0
440
16777216
100
AcDbTrace
 10
-25.0
 20
667.9077335984094
 30
0.0
 11
-25.0
 21
659.5744002650762
 31
0.0
 12
-2.7e-15
 22
663.7410669317428
 32
0.0
 13
-2.7e-15
 23
663.7410669317428
 33
0.0
  0
MTEXT
  5
6E0
330
6CA
100
AcDbEntity
  8
0
 62
0
440
16777216
100
AcDbMText
 10
-74.0961800818554
 20
682.7639182277865
 30
0.0
 40
25.0
 41
0.0
 46
0.0
 71
5
  1
34
  0
POINT
  5
6E1
330
6CA
100
AcDbEntity
  8
Defpoints
 62
0
440
16777216
100
AcDbPoint
 10
34.0
 20
708.0
 30
0.0
  0
POINT
  5
6E2
330
6CA
100
AcDbEntity
  8
Defpoints
 62
0
440
16777216
100
AcDbPoint
 10
0.0
 20
708.0
 30
0.0
  0
POINT
  5
6E3
330
6CA
100
AcDbEntity
  8
Defpoints
 62
0
440
16777216
100
AcDbPoint
 10
-2.7e-15
 20
663.7410669317428
 30
0.0
  0
ENDBLK
  5
6CC
330
6CA
100
AcDbEntity
  8
0
100
AcDbBlockEnd
  0
BLOCK
  5
6E7
330
6E6
100
AcDbEntity
  8
0
100
AcDbBlockBegin
  2
*D19
 70
1
 10
0.0
 20
0.0
 30
0.0
  3
*D19
  1

  0
LINE
  5
6F3
330
6E6
100
AcDbEntity
  8
0
 62
0
370
-2
440
16777216
100
AcDbLine
 10
40.25000000000001
 20
788.0000000000005
 30
0.0
 11
74.12948333898389
 21
788.0000000000005
 31
0.0
  0
LINE
  5
6F4
330
6E6
100
AcDbEntity
  8
0
 62
0
370
-2
440
16777216
100
AcDbLine
 10
40.25000000000001
 20
708.0000000000002
 30
0.0
 11
74.1294833389839
 21
708.0000000000002
 31
0.0
  0
LINE
  5
6F5
330
6E6
100
AcDbEntity
  8
0
 62
0
370
-2
440
16777216
100
AcDbLine
 10
61.6294833389839
 20
763.0000000000003
 30
0.0
 11
61.6294833389839
 21
733.0000000000002
 31
0.0
  0
SOLID
  5
6F6
330
6E6
100
AcDbEntity
  8
0
 62
0
440
16777216
100
AcDbTrace
 10
57.46281667231723
 20
763.0000000000003
 30
0.0
 11
65.79615000565056
 21
763.0000000000003
 31
0.0
 12
61.62948333898389
 22
788.0000000000005
 32
0.0
 13
61.62948333898389
 23
788.0000000000005
 33
0.0
  0
SOLID
  5
6F7
330
6E6
100
AcDbEntity
  8
0
 62
0
440
16777216
100
AcDbTrace
 10
57.46281667231724
 20
733.0000000000002
 30
0.0
 11
65.79615000565057
 21
733.0000000000002
 31
0.0
 12
61.62948333898391
 22
708.0000000000002
 32
0.0
 13
61.62948333898391
 23
708.0000000000002
 33
0.0
  0
MTEXT
  5
6F8
330
6E6
100
AcDbEntity
  8
0
 62
0
440
16777216
100
AcDbMText
 10
42.6151586459418
 20
748.0000000000002
 30
0.0
 40
25.0
 41
0.0
 46
0.0
 71
5
  1
80
 11
6.123233995736766e-17
 21
1.0
 31
0.0
  0
POINT
  5
6F9
330
6E6
100
AcDbEntity
  8
Defpoints
 62
0
440
16777216
100
AcDbPoint
 10
34.00000000000001
 20
788.0000000000005
 30
0.0
  0
POINT
  5
6FA
330
6E6
100
AcDbEntity
  8
Defpoints
 62
0
440
16777216
100
AcDbPoint
 10
34.00000000000001
 20
708.0000000000002
 30
0.0
  0
POINT
  5
6FB
330
6E6
100
AcDbEntity
  8
Defpoints
 62
0
440
16777216
100
AcDbPoint
 10
61.62948333898391
 20
708.0000000000002
 30
0.0
  0
ENDBLK
  5
6E8
330
6E6
100
AcDbEntity
  8
0
100
AcDbBlockEnd
  0
BLOCK
  5
6FF
330
6FE
100
AcDbEntity
  8
0
100
AcDbBlockBegin
  2
*D20
 70
1
 10
0.0
 20
0.0
 30
0.0
  3
*D20
  1

  0
LINE
  5
7DD
330
6FE
100
AcDbEntity
  8
0
 62
0
370
-2
440
16777216
100
AcDbLine
 10
323.2500000000001
 20
805.0000000000005
 30
0.0
 11
222.0864367911998
 21
805.0000000000003
 31
0.0
  0
LINE
  5
7DE
330
6FE
100
AcDbEntity
  8
0
 62
0
370
-2
440
16777216
100
AcDbLine
 10
323.2500000000001
 20
745.0000000000002
 30
0.0
 11
222.0864367911998
 21
745.0000000000001
 31
0.0
  0
LINE
  5
7DF
330
6FE
100
AcDbEntity
  8
0
 62
0
370
-2
440
16777216
100
AcDbLine
 10
234.5864367911998
 20
830.0000000000003
 30
0.0
 11
234.5864367911998
 21
855.0000000000003
 31
0.0
  0
LINE
  5
7E0
330
6FE
100
AcDbEntity
  8
0
 62
0
370
-2
440
16777216
100
AcDbLine
 10
234.5864367911998
 20
720.0000000000001
 30
0.0
 11
234.5864367911998
 21
695.0000000000001
 31
0.0
  0
LINE
  5
7E1
330
6FE
100
AcDbEntity
  8
0
 62
0
370
-2
440
16777216
100
AcDbLine
 10
234.5864367911998
 20
805.0000000000003
 30
0.0
 11
234.5864367911998
 21
745.0000000000001
 31
0.0
  0
SOLID
  5
7E2
330
6FE
100
AcDbEntity
  8
0
 62
0
440
16777216
100
AcDbTrace
 10
230.4197701245331
 20
830.0000000000003
 30
0.0
 11
238.7531034578664
 21
830.0000000000003
 31
0.0
 12
234.5864367911998
 22
805.0000000000003
 32
0.0
 13
234.5864367911998
 23
805.0000000000003
 33
0.0
  0
SOLID
  5
7E3
330
6FE
100
AcDbEntity
  8
0
 62
0
440
16777216
100
AcDbTrace
 10
230.4197701245331
 20
720.0000000000001
 30
0.0
 11
238.7531034578664
 21
720.0000000000001
 31
0.0
 12
234.5864367911998
 22
745.0000000000001
 32
0.0
 13
234.5864367911998
 23
745.0000000000001
 33
0.0
  0
MTEXT
  5
7E4
330
6FE
100
AcDbEntity
  8
0
 62
0
440
16777216
100
AcDbMText
 10
215.5721120981577
 20
775.0
 30
0.0
 40
25.0
 41
0.0
 46
0.0
 71
5
  1
60
 11
6.123233995736766e-17
 21
1.0
 31
0.0
  0
POINT
  5
7E5
330
6FE
100
AcDbEntity
  8
Defpoints
 62
0
440
16777216
100
AcDbPoint
 10
329.5000000000001
 20
805.0000000000005
 30
0.0
  0
POINT
  5
7E6
330
6FE
100
AcDbEntity
  8
Defpoints
 62
0
440
16777216
100
AcDbPoint
 10
329.5000000000001
 20
745.0000000000002
 30
0.0
  0
POINT
  5
7E7
330
6FE
100
AcDbEntity
  8
Defpoints
 62
0
440
16777216
100
AcDbPoint
 10
234.5864367911998
 20
745.0000000000001
 30
0.0
  0
ENDBLK
  5
700
330
6FE
100
AcDbEntity
  8
0
100
AcDbBlockEnd
  0
BLOCK
  5
71B
330
71A
100
AcDbEntity
  8
0
100
AcDbBlockBegin
  2
*D21
 70
1
 10
0.0
 20
0.0
 30
0.0
  3
*D21
  1

  0
LINE
  5
727
330
71A
100
AcDbEntity
  8
0
 62
0
370
-2
440
16777216
100
AcDbLine
 10
329.5
 20
738.75
 30
0.0
 11
329.5
 21
711.4657703493344
 31
0.0
  0
LINE
  5
728
330
71A
100
AcDbEntity
  8
0
 62
0
370
-2
440
16777216
100
AcDbLine
 10
249.5
 20
738.75
 30
0.0
 11
249.5
 21
711.4657703493344
 31
0.0
  0
LINE
  5
729
330
71A
100
AcDbEntity
  8
0
 62
0
370
-2
440
16777216
100
AcDbLine
 10
304.5
 20
723.9657703493344
 30
0.0
 11
274.5
 21
723.9657703493344
 31
0.0
  0
SOLID
  5
72A
330
71A
100
AcDbEntity
  8
0
 62
0
440
16777216
100
AcDbTrace
 10
304.5
 20
728.1324370160011
 30
0.0
 11
304.5
 21
719.7991036826678
 31
0.0
 12
329.5
 22
723.9657703493344
 32
0.0
 13
329.5
 23
723.9657703493344
 33
0.0
  0
SOLID
  5
72B
330
71A
100
AcDbEntity
  8
0
 62
0
440
16777216
100
AcDbTrace
 10
274.5
 20
728.1324370160011
 30
0.0
 11
274.5
 21
719.7991036826678
 31
0.0
 12
249.5
 22
723.9657703493344
 32
0.0
 13
249.5
 23
723.9657703493344
 33
0.0
  0
MTEXT
  5
72C
330
71A
100
AcDbEntity
  8
0
 62
0
440
16777216
100
AcDbMText
 10
289.5
 20
742.9800950423768
 30
0.0
 40
25.0
 41
0.0
 46
0.0
 71
5
  1
80
  0
POINT
  5
72D
330
71A
100
AcDbEntity
  8
Defpoints
 62
0
440
16777216
100
AcDbPoint
 10
329.5
 20
745.0
 30
0.0
  0
POINT
  5
72E
330
71A
100
AcDbEntity
  8
Defpoints
 62
0
440
16777216
100
AcDbPoint
 10
249.5
 20
745.0
 30
0.0
  0
POINT
  5
72F
330
71A
100
AcDbEntity
  8
Defpoints
 62
0
440
16777216
100
AcDbPoint
 10
249.5
 20
723.9657703493344
 30
0.0
  0
ENDBLK
  5
71C
330
71A
100
AcDbEntity
  8
0
100
AcDbBlockEnd
  0
BLOCK
  5
763
330
762
100
AcDbEntity
  8
0
100
AcDbBlockBegin
  2
*D23
 70
1
 10
0.0
 20
0.0
 30
0.0
  3
*D23
  1

  0
LINE
  5
76F
330
762
100
AcDbEntity
  8
0
 62
0
370
-2
440
16777216
100
AcDbLine
 10
961.0
 20
753.75
 30
0.0
 11
961.0
 21
726.2094304179163
 31
0.0
  0
LINE
  5
770
330
762
100
AcDbEntity
  8
0
 62
0
370
-2
440
16777216
100
AcDbLine
 10
881.0
 20
753.75
 30
0.0
 11
881.0
 21
726.2094304179163
 31
0.0
  0
LINE
  5
771
330
762
100
AcDbEntity
  8
0
 62
0
370
-2
440
16777216
100
AcDbLine
 10
936.0
 20
738.7094304179163
 30
0.0
 11
906.0
 21
738.7094304179163
 31
0.0
  0
SOLID
  5
772
330
762
100
AcDbEntity
  8
0
 62
0
440
16777216
100
AcDbTrace
 10
936.0
 20
742.876097084583
 30
0.0
 11
936.0
 21
734.5427637512497
 31
0.0
 12
961.0
 22
738.7094304179163
 32
0.0
 13
961.0
 23
738.7094304179163
 33
0.0
  0
SOLID
  5
773
330
762
100
AcDbEntity
  8
0
 62
0
440
16777216
100
AcDbTrace
 10
906.0
 20
742.876097084583
 30
0.0
 11
906.0
 21
734.5427637512497
 31
0.0
 12
881.0
 22
738.7094304179163
 32
0.0
 13
881.0
 23
738.7094304179163
 33
0.0
  0
MTEXT
  5
774
330
762
100
AcDbEntity
  8
0
 62
0
440
16777216
100
AcDbMText
 10
921.0
 20
757.7237551109587
 30
0.0
 40
25.0
 41
0.0
 46
0.0
 71
5
  1
80
  0
POINT
  5
775
330
762
100
AcDbEntity
  8
Defpoints
 62
0
440
16777216
100
AcDbPoint
 10
961.0
 20
760.0
 30
0.0
  0
POINT
  5
776
330
762
100
AcDbEntity
  8
Defpoints
 62
0
440
16777216
100
AcDbPoint
 10
881.0
 20
760.0
 30
0.0
  0
POINT
  5
777
330
762
100
AcDbEntity
  8
Defpoints
 62
0
440
16777216
100
AcDbPoint
 10
881.0
 20
738.7094304179163
 30
0.0
  0
ENDBLK
  5
764
330
762
100
AcDbEntity
  8
0
100
AcDbBlockEnd
  0
BLOCK
  5
77B
330
77A
100
AcDbEntity
  8
0
100
AcDbBlockBegin
  2
*D24
 70
1
 10
0.0
 20
0.0
 30
0.0
  3
*D24
  1

  0
LINE
  5
787
330
77A
100
AcDbEntity
  8
0
 62
0
370
-2
440
16777216
100
AcDbLine
 10
874.5
 20
753.75
 30
0.0
 11
874.5
 21
727.2671067736478
 31
0.0
  0
LINE
  5
788
330
77A
100
AcDbEntity
  8
0
 62
0
370
-2
440
16777216
100
AcDbLine
 10
774.5
 20
753.75
 30
0.0
 11
774.5
 21
727.2671067736478
 31
0.0
  0
LINE
  5
789
330
77A
100
AcDbEntity
  8
0
 62
0
370
-2
440
16777216
100
AcDbLine
 10
849.5
 20
739.7671067736478
 30
0.0
 11
799.5
 21
739.7671067736478
 31
0.0
  0
SOLID
  5
78A
330
77A
100
AcDbEntity
  8
0
 62
0
440
16777216
100
AcDbTrace
 10
849.5
 20
743.9337734403144
 30
0.0
 11
849.5
 21
735.6004401069812
 31
0.0
 12
874.5
 22
739.7671067736478
 32
0.0
 13
874.5
 23
739.7671067736478
 33
0.0
  0
SOLID
  5
78B
330
77A
100
AcDbEntity
  8
0
 62
0
440
16777216
100
AcDbTrace
 10
799.5
 20
743.9337734403144
 30
0.0
 11
799.5
 21
735.6004401069812
 31
0.0
 12
774.5
 22
739.7671067736478
 32
0.0
 13
774.5
 23
739.7671067736478
 33
0.0
  0
MTEXT
  5
78C
330
77A
100
AcDbEntity
  8
0
 62
0
440
16777216
100
AcDbMText
 10
824.5
 20
758.7814314666902
 30
0.0
 40
25.0
 41
0.0
 46
0.0
 71
5
  1
100
  0
POINT
  5
78D
330
77A
100
AcDbEntity
  8
Defpoints
 62
0
440
16777216
100
AcDbPoint
 10
874.5
 20
760.0
 30
0.0
  0
POINT
  5
78E
330
77A
100
AcDbEntity
  8
Defpoints
 62
0
440
16777216
100
AcDbPoint
 10
774.5
 20
760.0
 30
0.0
  0
POINT
  5
78F
330
77A
100
AcDbEntity
  8
Defpoints
 62
0
440
16777216
100
AcDbPoint
 10
774.5
 20
739.7671067736478
 30
0.0
  0
ENDBLK
  5
77C
330
77A
100
AcDbEntity
  8
0
100
AcDbBlockEnd
  0
BLOCK
  5
793
330
792
100
AcDbEntity
  8
0
100
AcDbBlockBegin
  2
*D25
 70
1
 10
0.0
 20
0.0
 30
0.0
  3
*D25
  1

  0
LINE
  5
79F
330
792
100
AcDbEntity
  8
0
 62
0
370
-2
440
16777216
100
AcDbLine
 10
759.5
 20
753.75
 30
0.0
 11
759.5
 21
723.0364013507228
 31
0.0
  0
LINE
  5
7A0
330
792
100
AcDbEntity
  8
0
 62
0
370
-2
440
16777216
100
AcDbLine
 10
509.5
 20
753.75
 30
0.0
 11
509.5
 21
723.0364013507228
 31
0.0
  0
LINE
  5
7A1
330
792
100
AcDbEntity
  8
0
 62
0
370
-2
440
16777216
100
AcDbLine
 10
734.5
 20
735.5364013507228
 30
0.0
 11
534.5
 21
735.5364013507228
 31
0.0
  0
SOLID
  5
7A2
330
792
100
AcDbEntity
  8
0
 62
0
440
16777216
100
AcDbTrace
 10
734.5
 20
739.7030680173895
 30
0.0
 11
734.5
 21
731.3697346840562
 31
0.0
 12
759.5
 22
735.5364013507228
 32
0.0
 13
759.5
 23
735.5364013507228
 33
0.0
  0
SOLID
  5
7A3
330
792
100
AcDbEntity
  8
0
 62
0
440
16777216
100
AcDbTrace
 10
534.5
 20
739.7030680173895
 30
0.0
 11
534.5
 21
731.3697346840562
 31
0.0
 12
509.5
 22
735.5364013507228
 32
0.0
 13
509.5
 23
735.5364013507228
 33
0.0
  0
MTEXT
  5
7A4
330
792
100
AcDbEntity
  8
0
 62
0
440
16777216
100
AcDbMText
 10
634.5
 20
754.5507260437652
 30
0.0
 40
25.0
 41
0.0
 46
0.0
 71
5
  1
250
  0
POINT
  5
7A5
330
792
100
AcDbEntity
  8
Defpoints
 62
0
440
16777216
100
AcDbPoint
 10
759.5
 20
760.0
 30
0.0
  0
POINT
  5
7A6
330
792
100
AcDbEntity
  8
Defpoints
 62
0
440
16777216
100
AcDbPoint
 10
509.5
 20
760.0
 30
0.0
  0
POINT
  5
7A7
330
792
100
AcDbEntity
  8
Defpoints
 62
0
440
16777216
100
AcDbPoint
 10
509.5
 20
735.5364013507228
 30
0.0
  0
ENDBLK
  5
794
330
792
100
AcDbEntity
  8
0
100
AcDbBlockEnd
  0
BLOCK
  5
7AB
330
7AA
100
AcDbEntity
  8
0
100
AcDbBlockBegin
  2
*D26
 70
1
 10
0.0
 20
0.0
 30
0.0
  3
*D26
  1

  0
LINE
  5
7B7
330
7AA
100
AcDbEntity
  8
0
 62
0
370
-2
440
16777216
100
AcDbLine
 10
489.5
 20
753.75
 30
0.0
 11
489.5
 21
720.9210514059823
 31
0.0
  0
LINE
  5
7B8
330
7AA
100
AcDbEntity
  8
0
 62
0
370
-2
440
16777216
100
AcDbLine
 10
389.5
 20
753.75
 30
0.0
 11
389.5
 21
720.9210514059823
 31
0.0
  0
LINE
  5
7B9
330
7AA
100
AcDbEntity
  8
0
 62
0
370
-2
440
16777216
100
AcDbLine
 10
464.5
 20
733.4210514059823
 30
0.0
 11
414.5
 21
733.4210514059823
 31
0.0
  0
SOLID
  5
7BA
330
7AA
100
AcDbEntity
  8
0
 62
0
440
16777216
100
AcDbTrace
 10
464.5
 20
737.587718072649
 30
0.0
 11
464.5
 21
729.2543847393157
 31
0.0
 12
489.5
 22
733.4210514059823
 32
0.0
 13
489.5
 23
733.4210514059823
 33
0.0
  0
SOLID
  5
7BB
330
7AA
100
AcDbEntity
  8
0
 62
0
440
16777216
100
AcDbTrace
 10
414.5
 20
737.587718072649
 30
0.0
 11
414.5
 21
729.2543847393157
 31
0.0
 12
389.5
 22
733.4210514059823
 32
0.0
 13
389.5
 23
733.4210514059823
 33
0.0
  0
MTEXT
  5
7BC
330
7AA
100
AcDbEntity
  8
0
 62
0
440
16777216
100
AcDbMText
 10
439.5
 20
752.4353760990247
 30
0.0
 40
25.0
 41
0.0
 46
0.0
 71
5
  1
100
  0
POINT
  5
7BD
330
7AA
100
AcDbEntity
  8
Defpoints
 62
0
440
16777216
100
AcDbPoint
 10
489.5
 20
760.0
 30
0.0
  0
POINT
  5
7BE
330
7AA
100
AcDbEntity
  8
Defpoints
 62
0
440
16777216
100
AcDbPoint
 10
389.5
 20
760.0
 30
0.0
  0
POINT
  5
7BF
330
7AA
100
AcDbEntity
  8
Defpoints
 62
0
440
16777216
100
AcDbPoint
 10
389.5
 20
733.4210514059823
 30
0.0
  0
ENDBLK
  5
7AC
330
7AA
100
AcDbEntity
  8
0
100
AcDbBlockEnd
  0
BLOCK
  5
7C3
330
7C2
100
AcDbEntity
  8
0
100
AcDbBlockBegin
  2
*D27
 70
1
 10
0.0
 20
0.0
 30
0.0
  3
*D27
  1

  0
LINE
  5
7D1
330
7C2
100
AcDbEntity
  8
0
 62
0
370
-2
440
16777216
100
AcDbLine
 10
383.2500000000002
 20
805.0000000000005
 30
0.0
 11
360.4001168031148
 21
805.0000000000005
 31
0.0
  0
LINE
  5
7D2
330
7C2
100
AcDbEntity
  8
0
 62
0
370
-2
440
16777216
100
AcDbLine
 10
383.2500000000002
 20
760.0000000000002
 30
0.0
 11
360.4001168031148
 21
760.0000000000002
 31
0.0
  0
LINE
  5
7D3
330
7C2
100
AcDbEntity
  8
0
 62
0
370
-2
440
16777216
100
AcDbLine
 10
372.9001168031148
 20
830.0000000000005
 30
0.0
 11
372.9001168031148
 21
855.0000000000005
 31
0.0
  0
LINE
  5
7D4
330
7C2
100
AcDbEntity
  8
0
 62
0
370
-2
440
16777216
100
AcDbLine
 10
372.9001168031148
 20
735.0000000000002
 30
0.0
 11
372.9001168031148
 21
660.4945429740793
 31
0.0
  0
LINE
  5
7D5
330
7C2
100
AcDbEntity
  8
0
 62
0
370
-2
440
16777216
100
AcDbLine
 10
372.9001168031148
 20
805.0000000000005
 30
0.0
 11
372.9001168031148
 21
760.0000000000002
 31
0.0
  0
SOLID
  5
7D6
330
7C2
100
AcDbEntity
  8
0
 62
0
440
16777216
100
AcDbTrace
 10
368.7334501364481
 20
830.0000000000005
 30
0.0
 11
377.0667834697815
 21
830.0000000000005
 31
0.0
 12
372.9001168031148
 22
805.0000000000005
 32
0.0
 13
372.9001168031148
 23
805.0000000000005
 33
0.0
  0
SOLID
  5
7D7
330
7C2
100
AcDbEntity
  8
0
 62
0
440
16777216
100
AcDbTrace
 10
368.7334501364481
 20
735.0000000000002
 30
0.0
 11
377.0667834697815
 21
735.0000000000002
 31
0.0
 12
372.9001168031148
 22
760.0000000000002
 32
0.0
 13
372.9001168031148
 23
760.0000000000002
 33
0.0
  0
MTEXT
  5
7D8
330
7C2
100
AcDbEntity
  8
0
 62
0
440
16777216
100
AcDbMText
 10
353.9369517280808
 20
685.2472714870396
 30
0.0
 40
25.0
 41
0.0
 46
0.0
 71
5
  1
45
 11
6.123233995736766e-17
 21
1.0
 31
0.0
  0
POINT
  5
7D9
330
7C2
100
AcDbEntity
  8
Defpoints
 62
0
440
16777216
100
AcDbPoint
 10
389.5000000000002
 20
805.0000000000005
 30
0.0
  0
POINT
  5
7DA
330
7C2
100
AcDbEntity
  8
Defpoints
 62
0
440
16777216
100
AcDbPoint
 10
389.5000000000002
 20
760.0000000000002
 30
0.0
  0
POINT
  5
7DB
330
7C2
100
AcDbEntity
  8
Defpoints
 62
0
440
16777216
100
AcDbPoint
 10
372.9001168031148
 20
760.0000000000002
 30
0.0
  0
ENDBLK
  5
7C4
330
7C2
100
AcDbEntity
  8
0
100
AcDbBlockEnd
  0
ENDSEC
  0
SECTION
  2
ENTITIES
  0
LINE
  5
2D8
330
1F
100
AcDbEntity
  8
0
100
AcDbLine
 10
1000.0
 20
1347.1000000000001
 30
0.0
 11
122.55000000000001
 21
1347.1000000000001
 31
0.0
  0
LINE
  5
2D9
330
1F
100
AcDbEntity
  8
0
100
AcDbLine
 10
122.55000000000001
 20
1111.65
 30
0.0
 11
122.55000000000001
 21
327.95000000000005
 31
0.0
  0
LINE
  5
2DC
330
1F
100
AcDbEntity
  8
0
100
AcDbLine
 10
43.0
 20
1347.1000000000001
 30
0.0
 11
43.0
 21
1111.65
 31
0.0
  0
LINE
  5
2DD
330
1F
100
AcDbEntity
  8
0
100
AcDbLine
 10
122.55000000000001
 20
1111.65
 30
0.0
 11
43.0
 21
1111.65
 31
0.0
  0
LINE
  5
2E0
330
1F
100
AcDbEntity
  8
0
100
AcDbLine
 10
43.0
 20
131.75
 30
0.0
 11
43.0
 21
327.95000000000005
 31
0.0
  0
LINE
  5
2E2
330
1F
100
AcDbEntity
  8
0
100
AcDbLine
 10
122.55000000000001
 20
327.95000000000005
 30
0.0
 11
43.0
 21
327.95000000000005
 31
0.0
  0
LINE
  5
2E6
330
1F
100
AcDbEntity
  8
0
100
AcDbLine
 10
99.65
 20
58.150000000000006
 30
0.0
 11
99.65
 21
58.150000000000006
 31
0.0
  0
LINE
  5
2E7
330
1F
100
AcDbEntity
  8
0
100
AcDbLine
 10
141.1
 20
50.0
 30
0.0
 11
141.1
 21
87.05000000000001
 31
0.0
  0
LINE
  5
2E8
102
{ACAD_REACTORS
330
6FC
102
}
330
1F
100
AcDbEntity
  8
0
100
AcDbLine
 10
141.1
 20
87.05000000000001
 30
0.0
 11
228.3
 21
87.05000000000001
 31
0.0
  0
LINE
  5
2E9
102
{ACAD_REACTORS
330
6E4
330
6FC
102
}
330
1F
100
AcDbEntity
  8
0
100
AcDbLine
 10
228.3
 20
50.0
 30
0.0
 11
228.3
 21
87.05000000000001
 31
0.0
  0
LINE
  5
2F0
330
1F
100
AcDbEntity
  8
0
100
AcDbLine
 10
136.70000000000002
 20
1010.3000000000001
 30
0.0
 11
122.55000000000001
 21
1010.3000000000001
 31
0.0
  0
LINE
  5
2F2
330
1F
100
AcDbEntity
  8
0
100
AcDbLine
 10
122.55000000000001
 20
1097.5
 30
0.0
 11
136.70000000000002
 21
1097.5
 31
0.0
  0
LINE
  5
349
330
1F
100
AcDbEntity
  8
0
100
AcDbLine
 10
99.65
 20
58.150000000000006
 30
0.0
 11
99.65
 21
50.0
 31
0.0
  0
MTEXT
  5
34A
330
1F
100
AcDbEntity
  8
0
100
AcDbMText
 10
8.301940505443781
 20
777.4397294531682
 30
0.0
 40
10.0
 41
10.0
 46
0.0
 71
1
 72
5
  1
{\fSimSun|b0|i0|c134|p2;后门柜}
101
Embedded Object
 70
1
 10
1.0
 20
0.0
 30
0.0
 11
8.301940505443781
 21
777.4397294531682
 31
0.0
 40
10.0
 41
0.0
 42
13.07262569832402
 43
49.47858472998138
 71
2
 72
1
 44
10.0
 45
12.5
 73
0
 74
0
 46
-49.47858472998138
  0
LINE
  5
34C
330
1F
100
AcDbEntity
  8
0
100
AcDbLine
 10
122.55000000000001
 20
1003.2
 30
0.0
 11
171.60000000000002
 21
1003.2
 31
0.0
  0
LINE
  5
34D
102
{ACAD_REACTORS
330
790
102
}
330
1F
100
AcDbEntity
  8
0
100
AcDbLine
 10
171.60000000000002
 20
1003.2
 30
0.0
 11
171.60000000000002
 21
894.2
 31
0.0
  0
LINE
  5
34E
330
1F
100
AcDbEntity
  8
0
100
AcDbLine
 10
171.60000000000002
 20
894.2
 30
0.0
 11
122.55000000000001
 21
894.2
 31
0.0
  0
LINE
  5
34F
330
1F
100
AcDbEntity
  8
0
100
AcDbLine
 10
122.55000000000001
 20
1097.5
 30
0.0
 11
171.60000000000002
 21
1097.5
 31
0.0
  0
LINE
  5
350
102
{ACAD_REACTORS
330
778
102
}
330
1F
100
AcDbEntity
  8
0
100
AcDbLine
 10
171.60000000000002
 20
1097.5
 30
0.0
 11
171.60000000000002
 21
1010.3000000000001
 31
0.0
  0
LINE
  5
351
102
{ACAD_REACTORS
330
778
102
}
330
1F
100
AcDbEntity
  8
0
100
AcDbLine
 10
171.60000000000002
 20
1010.3000000000001
 30
0.0
 11
122.55000000000001
 21
1010.3000000000001
 31
0.0
  0
LINE
  5
352
330
1F
100
AcDbEntity
  8
0
100
AcDbLine
 10
171.60000000000002
 20
877.85
 30
0.0
 11
171.60000000000002
 21
877.85
 31
0.0
  0
LINE
  5
353
330
1F
100
AcDbEntity
  8
0
100
AcDbLine
 10
171.60000000000002
 20
877.85
 30
0.0
 11
122.55000000000001
 21
877.85
 31
0.0
  0
LINE
  5
354
102
{ACAD_REACTORS
330
7A8
102
}
330
1F
100
AcDbEntity
  8
0
100
AcDbLine
 10
171.60000000000002
 20
877.85
 30
0.0
 11
171.60000000000002
 21
605.35
 31
0.0
  0
LINE
  5
355
330
1F
100
AcDbEntity
  8
0
100
AcDbLine
 10
171.60000000000002
 20
605.35
 30
0.0
 11
122.55000000000001
 21
605.35
 31
0.0
  0
LINE
  5
356
330
1F
100
AcDbEntity
  8
0
100
AcDbLine
 10
171.60000000000002
 20
605.35
 30
0.0
 11
171.60000000000002
 21
658.4000000000001
 31
0.0
  0
LINE
  5
357
330
1F
100
AcDbEntity
  8
0
100
AcDbLine
 10
171.60000000000002
 20
583.5500000000001
 30
0.0
 11
122.55000000000001
 21
583.5500000000001
 31
0.0
  0
LINE
  5
358
102
{ACAD_REACTORS
330
7C0
102
}
330
1F
100
AcDbEntity
  8
0
100
AcDbLine
 10
171.60000000000002
 20
583.5500000000001
 30
0.0
 11
171.60000000000002
 21
474.55
 31
0.0
  0
LINE
  5
359
102
{ACAD_REACTORS
330
7DC
102
}
330
1F
100
AcDbEntity
  8
0
100
AcDbLine
 10
171.60000000000002
 20
474.55
 30
0.0
 11
122.55000000000001
 21
474.55
 31
0.0
  0
LINE
  5
35A
330
1F
100
AcDbEntity
  8
0
100
AcDbLine
 10
187.95000000000002
 20
409.15000000000003
 30
0.0
 11
187.95000000000002
 21
409.15000000000003
 31
0.0
  0
LINE
  5
35B
102
{ACAD_REACTORS
330
718
102
}
330
1F
100
AcDbEntity
  8
0
100
AcDbLine
 10
187.95000000000002
 20
409.15000000000003
 30
0.0
 11
122.55000000000001
 21
409.15000000000003
 31
0.0
  0
LINE
  5
35C
102
{ACAD_REACTORS
330
718
330
730
102
}
330
1F
100
AcDbEntity
  8
0
100
AcDbLine
 10
187.95000000000002
 20
409.15000000000003
 30
0.0
 11
187.95000000000002
 21
321.95000000000005
 31
0.0
  0
LINE
  5
35D
102
{ACAD_REACTORS
330
730
102
}
330
1F
100
AcDbEntity
  8
0
100
AcDbLine
 10
187.95000000000002
 20
321.95000000000005
 30
0.0
 11
122.55000000000001
 21
321.95000000000005
 31
0.0
  0
LINE
  5
35E
330
1F
100
AcDbEntity
  8
0
100
AcDbLine
 10
122.55000000000001
 20
327.95000000000005
 30
0.0
 11
122.55000000000001
 21
321.95000000000005
 31
0.0
  0
LINE
  5
3B1
330
1F
100
AcDbEntity
  8
0
100
AcDbLine
 10
99.65
 20
50.0
 30
0.0
 11
99.65
 21
131.75
 31
0.0
  0
LINE
  5
3B2
330
1F
100
AcDbEntity
  8
0
100
AcDbLine
 10
99.65
 20
131.75
 30
0.0
 11
43.0
 21
131.75
 31
0.0
  0
LINE
  5
3BD
102
{ACAD_REACTORS
330
6C8
102
}
330
1F
100
AcDbEntity
  8
0
100
AcDbLine
 10
206.5
 20
1347.1000000000001
 30
0.0
 11
315.5
 21
1347.1000000000001
 31
0.0
  0
LINE
  5
3BE
330
1F
100
AcDbEntity
  8
0
100
AcDbLine
 10
315.5
 20
1347.1000000000001
 30
0.0
 11
315.5
 21
1298.0500000000002
 31
0.0
  0
LINE
  5
3C0
330
1F
100
AcDbEntity
  8
0
100
AcDbLine
 10
315.5
 20
1298.0500000000002
 30
0.0
 11
206.5
 21
1298.0500000000002
 31
0.0
  0
LINE
  5
3C5
330
1F
100
AcDbEntity
  8
0
100
AcDbLine
 10
315.5
 20
1298.0500000000002
 30
0.0
 11
315.5
 21
1347.1000000000001
 31
0.0
  0
LINE
  5
3C6
102
{ACAD_REACTORS
330
6C8
102
}
330
1F
100
AcDbEntity
  8
0
100
AcDbLine
 10
315.5
 20
1347.1000000000001
 30
0.0
 11
424.5
 21
1347.1000000000001
 31
0.0
  0
LINE
  5
3C7
330
1F
100
AcDbEntity
  8
0
100
AcDbLine
 10
424.5
 20
1347.1000000000001
 30
0.0
 11
424.5
 21
1298.0500000000002
 31
0.0
  0
LINE
  5
3C8
330
1F
100
AcDbEntity
  8
0
100
AcDbLine
 10
424.5
 20
1298.0500000000002
 30
0.0
 11
315.5
 21
1298.0500000000002
 31
0.0
  0
LINE
  5
3C9
330
1F
100
AcDbEntity
  8
0
100
AcDbLine
 10
424.5
 20
1298.0500000000002
 30
0.0
 11
424.5
 21
1347.1000000000001
 31
0.0
  0
LINE
  5
3CA
330
1F
100
AcDbEntity
  8
0
100
AcDbLine
 10
424.5
 20
1347.1000000000001
 30
0.0
 11
533.5
 21
1347.1000000000001
 31
0.0
  0
LINE
  5
3CB
102
{ACAD_REACTORS
330
6B0
102
}
330
1F
100
AcDbEntity
  8
0
100
AcDbLine
 10
533.5
 20
1347.1000000000001
 30
0.0
 11
533.5
 21
1298.0500000000002
 31
0.0
  0
LINE
  5
3CC
102
{ACAD_REACTORS
330
6B0
102
}
330
1F
100
AcDbEntity
  8
0
100
AcDbLine
 10
533.5
 20
1298.0500000000002
 30
0.0
 11
424.5
 21
1298.0500000000002
 31
0.0
  0
LINE
  5
3CE
330
1F
100
AcDbEntity
  8
0
100
AcDbLine
 10
242.45000000000002
 20
1052.8
 30
0.0
 11
242.45000000000002
 21
1052.8
 31
0.0
  0
LINE
  5
3CF
330
1F
100
AcDbEntity
  8
0
100
AcDbLine
 10
242.45000000000002
 20
1052.8
 30
0.0
 11
242.45000000000002
 21
475.1
 31
0.0
  0
LINE
  5
3D0
330
1F
100
AcDbEntity
  8
0
100
AcDbLine
 10
242.45000000000002
 20
475.1
 30
0.0
 11
242.45000000000002
 21
475.1
 31
0.0
  0
LINE
  5
3D2
330
1F
100
AcDbEntity
  8
0
100
AcDbLine
 10
493.15000000000003
 20
475.1
 30
0.0
 11
493.15000000000003
 21
1052.8
 31
0.0
  0
LINE
  5
3D3
330
1F
100
AcDbEntity
  8
0
100
AcDbLine
 10
493.15000000000003
 20
1052.8
 30
0.0
 11
242.45000000000002
 21
1052.8
 31
0.0
  0
LINE
  5
3D4
330
1F
100
AcDbEntity
  8
0
100
AcDbLine
 10
315.5
 20
1052.8
 30
0.0
 11
315.5
 21
1052.8
 31
0.0
  0
LINE
  5
3D6
330
1F
100
AcDbEntity
  8
0
100
AcDbLine
 10
315.5
 20
1052.8
 30
0.0
 11
493.15000000000003
 21
1052.8
 31
0.0
  0
LINE
  5
3D7
102
{ACAD_REACTORS
330
67C
330
694
102
}
330
1F
100
AcDbEntity
  8
0
100
AcDbLine
 10
493.15000000000003
 20
1052.8
 30
0.0
 11
242.45000000000002
 21
1052.8
 31
0.0
  0
LINE
  5
3D8
102
{ACAD_REACTORS
330
694
102
}
330
1F
100
AcDbEntity
  8
0
100
AcDbLine
 10
242.45000000000002
 20
1052.8
 30
0.0
 11
242.45000000000002
 21
475.1
 31
0.0
  0
LINE
  5
3D9
330
1F
100
AcDbEntity
  8
0
100
AcDbLine
 10
242.45000000000002
 20
475.1
 30
0.0
 11
493.15000000000003
 21
475.1
 31
0.0
  0
LINE
  5
3DB
330
1F
100
AcDbEntity
  8
0
100
AcDbLine
 10
367.8
 20
475.1
 30
0.0
 11
367.8
 21
409.70000000000005
 31
0.0
  0
LINE
  5
3DC
330
1F
100
AcDbEntity
  8
0
100
AcDbLine
 10
367.8
 20
409.70000000000005
 30
0.0
 11
237.0
 21
409.70000000000005
 31
0.0
  0
LINE
  5
3DD
330
1F
100
AcDbEntity
  8
0
100
AcDbLine
 10
237.0
 20
409.70000000000005
 30
0.0
 11
237.0
 21
409.70000000000005
 31
0.0
  0
LINE
  5
3DE
330
1F
100
AcDbEntity
  8
0
100
AcDbLine
 10
237.0
 20
409.70000000000005
 30
0.0
 11
237.0
 21
475.1
 31
0.0
  0
LINE
  5
3DF
330
1F
100
AcDbEntity
  8
0
100
AcDbLine
 10
242.45000000000002
 20
475.1
 30
0.0
 11
237.0
 21
475.1
 31
0.0
  0
LINE
  5
3E0
330
1F
100
AcDbEntity
  8
0
100
AcDbLine
 10
367.8
 20
475.1
 30
0.0
 11
367.8
 21
409.70000000000005
 31
0.0
  0
LINE
  5
3E1
102
{ACAD_REACTORS
330
664
102
}
330
1F
100
AcDbEntity
  8
0
100
AcDbLine
 10
367.8
 20
409.70000000000005
 30
0.0
 11
498.6
 21
409.70000000000005
 31
0.0
  0
LINE
  5
3E2
102
{ACAD_REACTORS
330
64C
330
664
102
}
330
1F
100
AcDbEntity
  8
0
100
AcDbLine
 10
498.6
 20
409.70000000000005
 30
0.0
 11
498.6
 21
475.1
 31
0.0
  0
LINE
  5
3E3
102
{ACAD_REACTORS
330
64C
330
67C
102
}
330
1F
100
AcDbEntity
  8
0
100
AcDbLine
 10
498.6
 20
475.1
 30
0.0
 11
493.15000000000003
 21
475.1
 31
0.0
  0
LINE
  5
3EC
330
1F
100
AcDbEntity
  8
0
100
AcDbLine
 10
714.4000000000001
 20
76.15
 30
0.0
 11
714.4000000000001
 21
76.15
 31
0.0
  0
LINE
  5
3EE
330
1F
100
AcDbEntity
  8
0
100
AcDbLine
 10
621.75
 20
168.8
 30
0.0
 11
621.75
 21
168.8
 31
0.0
  0
ARC
  5
3F1
330
1F
100
AcDbEntity
  8
0
100
AcDbCircle
 10
621.75
 20
76.15
 30
0.0
 40
92.65
100
AcDbArc
 50
359.9999999999999
 51
90.00000000000004
  0
ARC
  5
3F2
102
{ACAD_REACTORS
330
538
102
}
330
1F
100
AcDbEntity
  8
0
100
AcDbCircle
 10
621.75
 20
381.35
 30
0.0
 40
92.65
100
AcDbArc
 50
270.0
 51
0.0
  0
ARC
  5
3F3
330
1F
100
AcDbEntity
  8
0
100
AcDbCircle
 10
926.95
 20
76.15
 30
0.0
 40
92.65
100
AcDbArc
 50
90.0
 51
180.00000000000006
  0
ARC
  5
3F4
330
1F
100
AcDbEntity
  8
0
100
AcDbCircle
 10
926.95
 20
381.35
 30
0.0
 40
92.65
100
AcDbArc
 50
180.0
 51
270.0
  0
LINE
  5
3F5
102
{ACAD_REACTORS
330
554
102
}
330
1F
100
AcDbEntity
  8
0
100
AcDbLine
 10
621.75
 20
168.8
 30
0.0
 11
621.75
 21
288.7
 31
0.0
  0
LINE
  5
3F6
330
1F
100
AcDbEntity
  8
0
100
AcDbLine
 10
714.4000000000001
 20
381.35
 30
0.0
 11
834.3000000000001
 21
381.35
 31
0.0
  0
LINE
  5
3F7
330
1F
100
AcDbEntity
  8
0
100
AcDbLine
 10
926.95
 20
288.7
 30
0.0
 11
926.95
 21
168.8
 31
0.0
  0
LINE
  5
3F8
330
1F
100
AcDbEntity
  8
0
100
AcDbLine
 10
714.4000000000001
 20
76.15
 30
0.0
 11
834.3000000000001
 21
76.15
 31
0.0
  0
LINE
  5
3FB
330
1F
100
AcDbEntity
  8
0
100
AcDbLine
 10
880.1
 20
1210.8500000000001
 30
0.0
 11
880.1
 21
823.9000000000001
 31
0.0
  0
LINE
  5
3FC
330
1F
100
AcDbEntity
  8
0
100
AcDbLine
 10
880.1
 20
823.9000000000001
 30
0.0
 11
716.6
 21
823.9000000000001
 31
0.0
  0
LINE
  5
3FF
102
{ACAD_REACTORS
330
5B4
102
}
330
1F
100
AcDbEntity
  8
0
100
AcDbLine
 10
716.6
 20
823.3000000000001
 30
0.0
 11
716.6
 21
1210.25
 31
0.0
  0
LINE
  5
400
330
1F
100
AcDbEntity
  8
0
100
AcDbLine
 10
880.1
 20
1210.8500000000001
 30
0.0
 11
880.1
 21
823.9000000000001
 31
0.0
  0
LINE
  5
401
102
{ACAD_REACTORS
330
5B4
330
5CC
102
}
330
1F
100
AcDbEntity
  8
0
100
AcDbLine
 10
716.6
 20
1210.25
 30
0.0
 11
880.1
 21
1210.8500000000001
 31
0.0
  0
LINE
  5
403
330
1F
100
AcDbEntity
  8
0
100
AcDbLine
 10
716.6
 20
730.1500000000001
 30
0.0
 11
716.6
 21
730.1500000000001
 31
0.0
  0
LINE
  5
406
330
1F
100
AcDbEntity
  8
0
100
AcDbLine
 10
716.6
 20
730.1500000000001
 30
0.0
 11
880.1
 21
730.1500000000001
 31
0.0
  0
LINE
  5
407
330
1F
100
AcDbEntity
  8
0
100
AcDbLine
 10
880.1
 20
730.1500000000001
 30
0.0
 11
880.1
 21
424.95000000000005
 31
0.0
  0
LINE
  5
408
330
1F
100
AcDbEntity
  8
0
100
AcDbLine
 10
880.1
 20
424.95000000000005
 30
0.0
 11
716.6
 21
424.95000000000005
 31
0.0
  0
LINE
  5
409
102
{ACAD_REACTORS
330
584
330
59C
102
}
330
1F
100
AcDbEntity
  8
0
100
AcDbLine
 10
716.6
 20
424.95000000000005
 30
0.0
 11
716.6
 21
730.1500000000001
 31
0.0
  0
LINE
  5
40A
102
{ACAD_REACTORS
330
59C
102
}
330
1F
100
AcDbEntity
  8
0
100
AcDbLine
 10
798.35
 20
424.95000000000005
 30
0.0
 11
798.35
 21
730.1500000000001
 31
0.0
  0
LINE
  5
40B
102
{ACAD_REACTORS
330
584
102
}
330
1F
100
AcDbEntity
  8
0
100
AcDbLine
 10
880.1
 20
577.5500000000001
 30
0.0
 11
716.6
 21
577.5500000000001
 31
0.0
  0
LINE
  5
41F
330
1F
100
AcDbEntity
  8
0
100
AcDbLine
 10
43.0
 20
1347.1000000000001
 30
0.0
 11
122.55000000000001
 21
1347.1000000000001
 31
0.0
  0
LINE
  5
420
330
1F
100
AcDbEntity
  8
0
100
AcDbLine
 10
179.25
 20
50.0
 30
0.0
 11
99.65
 21
50.0
 31
0.0
  0
LINE
  5
445
330
1F
100
AcDbEntity
  8
0
100
AcDbLine
 10
545.45
 20
169.9
 30
0.0
 11
311.1
 21
169.9
 31
0.0
  0
LINE
  5
446
330
1F
100
AcDbEntity
  8
0
100
AcDbLine
 10
545.45
 20
169.9
 30
0.0
 11
545.45
 21
333.40000000000003
 31
0.0
  0
LINE
  5
447
330
1F
100
AcDbEntity
  8
0
100
AcDbLine
 10
545.45
 20
333.40000000000003
 30
0.0
 11
392.85
 21
333.40000000000003
 31
0.0
  0
LINE
  5
448
330
1F
100
AcDbEntity
  8
0
100
AcDbLine
 10
392.85
 20
333.40000000000003
 30
0.0
 11
479.55
 21
333.40000000000003
 31
0.0
  0
LINE
  5
449
102
{ACAD_REACTORS
330
618
102
}
330
1F
100
AcDbEntity
  8
0
100
AcDbLine
 10
311.1
 20
169.9
 30
0.0
 11
311.1
 21
322.5
 31
0.0
  0
LINE
  5
44A
102
{ACAD_REACTORS
330
618
330
630
102
}
330
1F
100
AcDbEntity
  8
0
100
AcDbLine
 10
311.1
 20
322.5
 30
0.0
 11
392.85
 21
322.5
 31
0.0
  0
LINE
  5
44B
330
1F
100
AcDbEntity
  8
0
100
AcDbLine
 10
392.85
 20
333.40000000000003
 30
0.0
 11
392.85
 21
169.9
 31
0.0
  0
LINE
  5
44C
330
1F
100
AcDbEntity
  8
0
100
AcDbLine
 10
545.45
 20
251.65
 30
0.0
 11
392.85
 21
251.65
 31
0.0
  0
LINE
  5
4C7
102
{ACAD_REACTORS
330
4DF
102
}
330
1F
100
AcDbEntity
  8
0
100
AcDbLine
 10
695.8000000000001
 20
1303.2
 30
0.0
 11
695.8000000000001
 21
1310.8500000000001
 31
0.0
  0
LINE
  5
4C8
102
{ACAD_REACTORS
330
4E0
330
5E8
330
600
102
}
330
1F
100
AcDbEntity
  8
0
100
AcDbLine
 10
695.8000000000001
 20
1310.8500000000001
 30
0.0
 11
900.9000000000001
 21
1310.8500000000001
 31
0.0
  0
LINE
  5
4D7
102
{ACAD_REACTORS
330
4DE
330
5E8
102
}
330
1F
100
AcDbEntity
  8
0
100
AcDbLine
 10
695.8000000000001
 20
1303.2
 30
0.0
 11
900.9000000000001
 21
1303.2
 31
0.0
  0
LINE
  5
4E1
102
{ACAD_REACTORS
330
600
102
}
330
1F
100
AcDbEntity
  8
0
100
AcDbLine
 10
900.9000000000001
 20
1310.8500000000001
 30
0.0
 11
900.9000000000001
 21
1303.2
 31
0.0
  0
LINE
  5
4F7
330
1F
100
AcDbEntity
  8
0
100
AcDbLine
 10
1000.0
 20
1347.1000000000001
 30
0.0
 11
1000.0
 21
954.7
 31
0.0
  0
LINE
  5
4F8
330
1F
100
AcDbEntity
  8
0
100
AcDbLine
 10
1000.0
 20
954.7
 30
0.0
 11
916.0500000000001
 21
954.7
 31
0.0
  0
LINE
  5
4F9
330
1F
100
AcDbEntity
  8
0
100
AcDbLine
 10
916.0500000000001
 20
954.7
 30
0.0
 11
916.0500000000001
 21
867.5
 31
0.0
  0
LINE
  5
4FA
330
1F
100
AcDbEntity
  8
0
100
AcDbLine
 10
916.0500000000001
 20
867.5
 30
0.0
 11
1000.0
 21
867.5
 31
0.0
  0
LINE
  5
4FE
330
1F
100
AcDbEntity
  8
0
100
AcDbLine
 10
1000.0
 20
131.75
 30
0.0
 11
918.25
 21
131.75
 31
0.0
  0
LINE
  5
500
330
1F
100
AcDbEntity
  8
0
100
AcDbLine
 10
1000.0
 20
131.75
 30
0.0
 11
1000.0
 21
867.5
 31
0.0
  0
LINE
  5
517
102
{ACAD_REACTORS
330
56C
102
}
330
1F
100
AcDbEntity
  8
0
100
AcDbLine
 10
774.35
 20
381.35
 30
0.0
 11
774.35
 21
76.15
 31
0.0
  0
LINE
  5
518
102
{ACAD_REACTORS
330
554
330
56C
102
}
330
1F
100
AcDbEntity
  8
0
100
AcDbLine
 10
621.75
 20
228.75
 30
0.0
 11
926.95
 21
228.75
 31
0.0
  0
DIMENSION
  5
529
102
{ACAD_XDICTIONARY
360
532
102
}
102
{ACAD_REACTORS
330
538
102
}
330
1F
100
AcDbEntity
  8
0
100
AcDbDimension
280
0
  2
*D1
  3
副本 ISO-25 1-10
 10
303.9999999999999
 20
346.9999999999999
 30
0.0
 11
304.7996511847576
 21
347.9114125734166
 31
0.0
 70
164
 71
5
 42
85.0
 73
0
 74
0
 75
0
100
AcDbRadialDimension
 15
247.9411903613747
 25
283.1062611682461
 35
0.0
 40
0.0
1001
ACAD_DSTYLE_DIMRADIAL_EXTENSION
1070
387
1070
1
1070
388
1040
3.141592653589793
1070
390
1040
4.71238898038469
  0
DIMENSION
  5
539
102
{ACAD_XDICTIONARY
360
548
102
}
102
{ACAD_REACTORS
330
554
102
}
330
1F
100
AcDbEntity
  8
0
100
AcDbDimension
280
0
  2
*D2
  3
副本 ISO-25 1-10
 10
164.0
 20
375.6549253626777
 30
0.0
 11
191.5
 21
394.6180904377118
 31
0.0
 70
32
 71
5
 42
54.99999999999994
 73
0
 74
0
 75
0
100
AcDbAlignedDimension
 13
218.9999999999999
 23
347.0
 33
0.0
 14
164.0
 24
347.0
 34
0.0
 50
0.0
100
AcDbRotatedDimension
  0
DIMENSION
  5
555
102
{ACAD_XDICTIONARY
360
562
102
}
102
{ACAD_REACTORS
330
56C
102
}
330
1F
100
AcDbEntity
  8
0
100
AcDbDimension
280
0
  2
*D3
  3
副本 ISO-25 1-10
 10
303.9999999999999
 20
46.71653014258845
 30
0.0
 11
233.9999999999999
 21
65.73085483563074
 31
0.0
 70
32
 71
5
 42
139.9999999999999
 73
0
 74
0
 75
0
100
AcDbAlignedDimension
 13
164.0
 23
207.0
 33
0.0
 14
303.9999999999999
 24
207.0
 34
0.0
 50
0.0
100
AcDbRotatedDimension
  0
DIMENSION
  5
56D
102
{ACAD_XDICTIONARY
360
57A
102
}
102
{ACAD_REACTORS
330
584
102
}
330
1F
100
AcDbEntity
  8
0
100
AcDbDimension
280
0
  2
*D4
  3
副本 ISO-25 1-10
 10
624.0
 20
311.1364629256368
 30
0.0
 11
554.0
 21
330.1507876186791
 31
0.0
 70
32
 71
5
 42
140.0
 73
0
 74
0
 75
0
100
AcDbAlignedDimension
 13
484.0
 23
260.0
 33
0.0
 14
624.0
 24
260.0
 34
0.0
 50
0.0
100
AcDbRotatedDimension
  0
DIMENSION
  5
585
102
{ACAD_XDICTIONARY
360
592
102
}
102
{ACAD_REACTORS
330
59C
102
}
330
1F
100
AcDbEntity
  8
0
100
AcDbDimension
280
0
  2
*D5
  3
副本 ISO-25 1-10
 10
651.0839593226942
 20
185.0000000000001
 30
0.0
 11
632.12079424766
 21
222.4999999999999
 31
0.0
 70
32
 71
5
 42
75.00000000000006
 73
0
 74
0
 75
0
100
AcDbAlignedDimension
 13
624.0
 23
260.0
 33
0.0
 14
624.0
 24
185.0
 34
0.0
 50
90.0
100
AcDbRotatedDimension
  0
DIMENSION
  5
59D
102
{ACAD_XDICTIONARY
360
5AA
102
}
102
{ACAD_REACTORS
330
5B4
102
}
330
1F
100
AcDbEntity
  8
0
100
AcDbDimension
280
0
  2
*D6
  3
副本 ISO-25 1-10
 10
1064.463448359475
 20
328.0593371850564
 30
0.0
 11
886.9634483594746
 21
347.0821884811
 31
0.0
 70
32
 71
5
 42
355.0
 73
0
 74
0
 75
0
100
AcDbAlignedDimension
 13
709.4634483594746
 23
260.0
 33
0.0
 14
1064.463448359475
 24
260.0
 34
0.0
 50
0.0
100
AcDbRotatedDimension
  0
DIMENSION
  5
5B5
102
{ACAD_XDICTIONARY
360
5C2
102
}
102
{ACAD_REACTORS
330
5CC
102
}
330
1F
100
AcDbEntity
  8
0
100
AcDbDimension
280
0
  2
*D7
  3
副本 ISO-25 1-10
 10
1094.496394905339
 20
110.0000000000001
 30
0.0
 11
1075.482070212297
 21
184.9999999999997
 31
0.0
 70
32
 71
5
 42
150.0000000000001
 73
0
 74
0
 75
0
100
AcDbAlignedDimension
 13
1064.463448359475
 23
260.0
 33
0.0
 14
1065.0
 24
110.0
 34
0.0
 50
90.0
100
AcDbRotatedDimension
  0
DIMENSION
  5
5CD
102
{ACAD_XDICTIONARY
360
5DC
102
}
102
{ACAD_REACTORS
330
5E8
102
}
330
1F
100
AcDbEntity
  8
0
100
AcDbDimension
280
0
  2
*D8
  3
副本 ISO-25 1-10
 10
1156.731724179737
 20
323.5403854241949
 30
0.0
 11
1085.389977931443
 21
323.5403854241949
 31
0.0
 70
160
 71
5
 42
7.0
 73
0
 74
0
 75
0
100
AcDbAlignedDimension
 13
1149.731724179737
 23
279.1
 33
0.0
 14
1156.731724179737
 24
279.1
 34
0.0
 50
0.0
100
AcDbRotatedDimension
  0
DIMENSION
  5
5E9
102
{ACAD_XDICTIONARY
360
5F6
102
}
102
{ACAD_REACTORS
330
600
102
}
330
1F
100
AcDbEntity
  8
0
100
AcDbDimension
280
0
  2
*D9
  3
副本 ISO-25 1-10
 10
1170.6913755754
 20
90.90000000000006
 30
0.0
 11
1149.417501086995
 21
184.9999999999997
 31
0.0
 70
32
 71
5
 42
188.2
 73
0
 74
0
 75
0
100
AcDbAlignedDimension
 13
1156.731724179737
 23
279.1
 33
0.0
 14
1156.731724179737
 24
90.90000000000003
 34
0.0
 50
90.0
100
AcDbRotatedDimension
  0
DIMENSION
  5
601
102
{ACAD_XDICTIONARY
360
60E
102
}
102
{ACAD_REACTORS
330
618
102
}
330
1F
100
AcDbEntity
  8
0
100
AcDbDimension
280
0
  2
*D10
  3
副本 ISO-25 1-10
 10
250.0
 20
694.4387947843966
 30
0.0
 11
180.0
 21
713.4531194774389
 31
0.0
 70
32
 71
5
 42
140.0
 73
0
 74
0
 75
0
100
AcDbAlignedDimension
 13
110.0
 23
632.0
 33
0.0
 14
250.0
 24
632.0
 34
0.0
 50
0.0
100
AcDbRotatedDimension
  0
DIMENSION
  5
619
102
{ACAD_XDICTIONARY
360
626
102
}
102
{ACAD_REACTORS
330
630
102
}
330
1F
100
AcDbEntity
  8
0
100
AcDbDimension
280
0
  2
*D11
  3
副本 ISO-25 1-10
 10
270.1232492591973
 20
557.0000000000003
 30
0.0
 11
251.1600841841633
 21
594.5000000000001
 31
0.0
 70
32
 71
5
 42
75.0
 73
0
 74
0
 75
0
100
AcDbAlignedDimension
 13
250.0
 23
632.0
 33
0.0
 14
250.0
 24
557.0
 34
0.0
 50
90.0
100
AcDbRotatedDimension
  0
DIMENSION
  5
631
102
{ACAD_XDICTIONARY
360
640
102
}
102
{ACAD_REACTORS
330
64C
102
}
330
1F
100
AcDbEntity
  8
0
100
AcDbDimension
280
0
  2
*D12
  3
副本 ISO-25 1-10
 10
390.0
 20
433.1918993687077
 30
0.0
 11
360.0
 21
452.20622406175
 31
0.0
 70
32
 71
5
 42
60.0
 73
0
 74
0
 75
0
100
AcDbAlignedDimension
 13
330.0
 23
460.0
 33
0.0
 14
390.0
 24
460.0
 34
0.0
 50
0.0
100
AcDbRotatedDimension
  0
DIMENSION
  5
64D
102
{ACAD_XDICTIONARY
360
65A
102
}
102
{ACAD_REACTORS
330
664
102
}
330
1F
100
AcDbEntity
  8
0
100
AcDbDimension
280
0
  2
*D13
  3
副本 ISO-25 1-10
 10
310.3372657925122
 20
460.0000000000002
 30
0.0
 11
291.32294109947
 21
520.0
 31
0.0
 70
32
 71
5
 42
119.9999999999999
 73
0
 74
0
 75
0
100
AcDbAlignedDimension
 13
330.0
 23
580.0
 33
0.0
 14
330.0
 24
460.0
 34
0.0
 50
90.0
100
AcDbRotatedDimension
  0
DIMENSION
  5
665
102
{ACAD_XDICTIONARY
360
672
102
}
102
{ACAD_REACTORS
330
67C
102
}
330
1F
100
AcDbEntity
  8
0
100
AcDbDimension
280
0
  2
*D14
  3
副本 ISO-25 1-10
 10
920.0
 20
416.2690251092881
 30
0.0
 11
655.0
 21
435.2918764053318
 31
0.0
 70
32
 71
5
 42
530.0
 73
0
 74
0
 75
0
100
AcDbAlignedDimension
 13
390.0
 23
465.0
 33
0.0
 14
920.0
 24
465.0
 34
0.0
 50
0.0
100
AcDbRotatedDimension
  0
DIMENSION
  5
67D
102
{ACAD_XDICTIONARY
360
68A
102
}
102
{ACAD_REACTORS
330
694
102
}
330
1F
100
AcDbEntity
  8
0
100
AcDbDimension
280
0
  2
*D15
  3
副本 ISO-25 1-10
 10
963.2858825795611
 20
695.0000000000002
 30
0.0
 11
944.2630312835173
 21
579.9999999999998
 31
0.0
 70
32
 71
5
 42
230.0
 73
0
 74
0
 75
0
100
AcDbAlignedDimension
 13
920.0
 23
465.0
 33
0.0
 14
920.0
 24
695.0
 34
0.0
 50
90.0
100
AcDbRotatedDimension
  0
DIMENSION
  5
695
102
{ACAD_XDICTIONARY
360
6A4
102
}
102
{ACAD_REACTORS
330
6B0
102
}
330
1F
100
AcDbEntity
  8
0
100
AcDbDimension
280
0
  2
*D16
  3
副本 ISO-25 1-10
 10
1190.0
 20
401.3864388987611
 30
0.0
 11
1070.24727148704
 21
401.3864388987611
 31
0.0
 70
160
 71
5
 42
45.0
 73
0
 74
0
 75
0
100
AcDbAlignedDimension
 13
1145.0
 23
428.0
 33
0.0
 14
1190.0
 24
428.0
 34
0.0
 50
0.0
100
AcDbRotatedDimension
  0
DIMENSION
  5
6B1
102
{ACAD_XDICTIONARY
360
6BE
102
}
102
{ACAD_REACTORS
330
6C8
102
}
330
1F
100
AcDbEntity
  8
0
100
AcDbDimension
280
0
  2
*D17
  3
副本 ISO-25 1-10
 10
1124.284865630414
 20
628.0000000000002
 30
0.0
 11
1124.284865630414
 21
677.9999999999998
 31
0.0
 70
160
 71
5
 42
100.0
 73
0
 74
0
 75
0
100
AcDbAlignedDimension
 13
1190.0
 23
728.0
 33
0.0
 14
1190.0
 24
628.0
 34
0.0
 50
90.0
100
AcDbRotatedDimension
  0
DIMENSION
  5
6C9
102
{ACAD_XDICTIONARY
360
6D8
102
}
102
{ACAD_REACTORS
330
6E4
102
}
330
1F
100
AcDbEntity
  8
0
100
AcDbDimension
280
0
  2
*D18
  3
副本 ISO-25 1-10
 10
-2.7e-15
 20
663.7410669317428
 30
0.0
 11
-74.0961800818554
 21
682.7639182277865
 31
0.0
 70
32
 71
5
 42
34.0
 73
0
 74
0
 75
0
100
AcDbAlignedDimension
 13
34.0
 23
708.0
 33
0.0
 14
0.0
 24
708.0
 34
0.0
 50
0.0
100
AcDbRotatedDimension
  0
DIMENSION
  5
6E5
102
{ACAD_XDICTIONARY
360
6F2
102
}
102
{ACAD_REACTORS
330
6FC
102
}
330
1F
100
AcDbEntity
  8
0
100
AcDbDimension
280
0
  2
*D19
  3
副本 ISO-25 1-10
 10
61.62948333898391
 20
708.0000000000002
 30
0.0
 11
42.6151586459418
 21
748.0000000000002
 31
0.0
 70
32
 71
5
 42
80.00000000000011
 73
0
 74
0
 75
0
100
AcDbAlignedDimension
 13
34.0
 23
788.0
 33
0.0
 14
34.0
 24
708.0
 34
0.0
 50
90.0
100
AcDbRotatedDimension
  0
DIMENSION
  5
6FD
102
{ACAD_XDICTIONARY
360
70C
102
}
102
{ACAD_REACTORS
330
718
102
}
330
1F
100
AcDbEntity
  8
0
100
AcDbDimension
280
0
  2
*D20
  3
副本 ISO-25 1-10
 10
234.5864367911998
 20
745.0000000000001
 30
0.0
 11
234.5864367912
 21
775.0
 31
0.0
 70
160
 71
5
 42
60.00000000000011
 73
0
 74
0
 75
0
100
AcDbAlignedDimension
 13
329.5
 23
805.0
 33
0.0
 14
329.5
 24
745.0
 34
0.0
 50
90.0
100
AcDbRotatedDimension
  0
DIMENSION
  5
719
102
{ACAD_XDICTIONARY
360
726
102
}
102
{ACAD_REACTORS
330
730
102
}
330
1F
100
AcDbEntity
  8
0
100
AcDbDimension
280
0
  2
*D21
  3
副本 ISO-25 1-10
 10
249.5
 20
723.9657703493344
 30
0.0
 11
289.5
 21
742.9800950423768
 31
0.0
 70
32
 71
5
 42
80.0
 73
0
 74
0
 75
0
100
AcDbAlignedDimension
 13
329.5
 23
745.0
 33
0.0
 14
249.5
 24
745.0
 34
0.0
 50
0.0
100
AcDbRotatedDimension
  0
DIMENSION
  5
761
102
{ACAD_XDICTIONARY
360
76E
102
}
102
{ACAD_REACTORS
330
778
102
}
330
1F
100
AcDbEntity
  8
0
100
AcDbDimension
280
0
  2
*D23
  3
副本 ISO-25 1-10
 10
881.0
 20
738.7094304179163
 30
0.0
 11
921.0
 21
757.7237551109587
 31
0.0
 70
32
 71
5
 42
80.0
 73
0
 74
0
 75
0
100
AcDbAlignedDimension
 13
961.0
 23
760.0
 33
0.0
 14
881.0
 24
760.0
 34
0.0
 50
0.0
100
AcDbRotatedDimension
  0
DIMENSION
  5
779
102
{ACAD_XDICTIONARY
360
786
102
}
102
{ACAD_REACTORS
330
790
102
}
330
1F
100
AcDbEntity
  8
0
100
AcDbDimension
280
0
  2
*D24
  3
副本 ISO-25 1-10
 10
774.5
 20
739.7671067736478
 30
0.0
 11
824.5
 21
758.7814314666902
 31
0.0
 70
32
 71
5
 42
100.0
 73
0
 74
0
 75
0
100
AcDbAlignedDimension
 13
874.5
 23
760.0
 33
0.0
 14
774.5
 24
760.0
 34
0.0
 50
0.0
100
AcDbRotatedDimension
  0
DIMENSION
  5
791
102
{ACAD_XDICTIONARY
360
79E
102
}
102
{ACAD_REACTORS
330
7A8
102
}
330
1F
100
AcDbEntity
  8
0
100
AcDbDimension
280
0
  2
*D25
  3
副本 ISO-25 1-10
 10
509.5
 20
735.5364013507228
 30
0.0
 11
634.5
 21
754.5507260437652
 31
0.0
 70
32
 71
5
 42
250.0
 73
0
 74
0
 75
0
100
AcDbAlignedDimension
 13
759.5
 23
760.0
 33
0.0
 14
509.5
 24
760.0
 34
0.0
 50
0.0
100
AcDbRotatedDimension
  0
DIMENSION
  5
7A9
102
{ACAD_XDICTIONARY
360
7B6
102
}
102
{ACAD_REACTORS
330
7C0
102
}
330
1F
100
AcDbEntity
  8
0
100
AcDbDimension
280
0
  2
*D26
  3
副本 ISO-25 1-10
 10
389.5
 20
733.4210514059823
 30
0.0
 11
439.5
 21
752.4353760990247
 31
0.0
 70
32
 71
5
 42
100.0
 73
0
 74
0
 75
0
100
AcDbAlignedDimension
 13
489.5
 23
760.0
 33
0.0
 14
389.5
 24
760.0
 34
0.0
 50
0.0
100
AcDbRotatedDimension
  0
DIMENSION
  5
7C1
102
{ACAD_XDICTIONARY
360
7D0
102
}
102
{ACAD_REACTORS
330
7DC
102
}
330
1F
100
AcDbEntity
  8
0
100
AcDbDimension
280
0
  2
*D27
  3
副本 ISO-25 1-10
 10
372.9001168031148
 20
760.0000000000002
 30
0.0
 11
353.9369517280808
 21
685.2472714870396
 31
0.0
 70
32
 71
5
 42
45.00000000000011
 73
0
 74
0
 75
0
100
AcDbAlignedDimension
 13
389.5
 23
805.0
 33
0.0
 14
389.5
 24
760.0
 34
0.0
 50
90.0
100
AcDbRotatedDimension
  0
MTEXT
  5
7EA
330
1F
100
AcDbEntity
  8
0
100
AcDbMText
 10
1069.544946997001
 20
849.0983551054292
 30
0.0
 40
20.0
 41
253.4101060059984
 46
0.0
 71
1
 72
5
  1
{\fSimSun|b0|i0|c134|p2;\P}
101
Embedded Object
 70
1
 10
1.0
 20
0.0
 30
0.0
 11
1069.544946997001
 21
849.0983551054292
 31
0.0
 40
253.4101060059984
 41
0.0
 42
253.4101060059984
 43
20.0
 71
2
 72
2
 44
120.4550530029992
 45
12.5
 73
0
 74
0
 46
13.18435754189944
 46
0.0
  0
TEXT
  5
7EB
330
1F
100
AcDbEntity
  8
0
100
AcDbText
 10
1071.662417746325
 20
836.4005393891407
 30
0.0
 40
88.93377772688382
  1
 
100
AcDbText
  0
LINE
  5
80A
330
1F
100
AcDbEntity
  8
0
100
AcDbLine
 10
206.5
 20
1298.0500000000002
 30
0.0
 11
206.5
 21
1347.1000000000001
 31
0.0
  0
LINE
  5
80C
330
1F
100
AcDbEntity
  8
0
100
AcDbLine
 10
1012.0
 20
1347.1000000000001
 30
0.0
 11
1012.0
 21
131.75
 31
0.0
  0
LINE
  5
83A
330
1F
100
AcDbEntity
  8
0
100
AcDbLine
 10
918.25
 20
131.75
 30
0.0
 11
918.25
 21
50.0
 31
0.0
  0
LINE
  5
83B
330
1F
100
AcDbEntity
  8
0
100
AcDbLine
 10
918.25
 20
50.0
 30
0.0
 11
179.25
 21
50.0
 31
0.0
  0
LINE
  5
83D
330
1F
100
AcDbEntity
  8
0
100
AcDbLine
 10
918.25
 20
38.0
 30
0.0
 11
99.65
 21
38.0
 31
0.0
  0
LINE
  5
85E
330
1F
100
AcDbEntity
  8
0
100
AcDbLine
 10
43.0
 20
1359.1000000000001
 30
0.0
 11
1012.0
 21
1359.1000000000001
 31
0.0
  0
LINE
  5
85F
330
1F
100
AcDbEntity
  8
0
100
AcDbLine
 10
1012.0
 20
1347.1000000000001
 30
0.0
 11
1012.0
 21
1359.1000000000001
 31
0.0
  0
LINE
  5
860
330
1F
100
AcDbEntity
  8
0
100
AcDbLine
 10
918.25
 20
38.0
 30
0.0
 11
1000.0
 21
38.0
 31
0.0
  0
LINE
  5
862
330
1F
100
AcDbEntity
  8
0
100
AcDbLine
 10
1000.0
 20
38.0
 30
0.0
 11
1012.0
 21
38.0
 31
0.0
  0
LINE
  5
863
330
1F
100
AcDbEntity
  8
0
100
AcDbLine
 10
1012.0
 20
38.0
 30
0.0
 11
1012.0
 21
131.75
 31
0.0
  0
LINE
  5
867
330
1F
100
AcDbEntity
  8
0
100
AcDbLine
 10
99.65
 20
38.0
 30
0.0
 11
87.65
 21
38.0
 31
0.0
  0
LINE
  5
868
330
1F
100
AcDbEntity
  8
0
100
AcDbLine
 10
87.65
 20
38.0
 30
0.0
 11
87.65
 21
119.75
 31
0.0
  0
LINE
  5
86A
330
1F
100
AcDbEntity
  8
0
100
AcDbLine
 10
87.65
 20
119.75
 30
0.0
 11
31.0
 21
119.75
 31
0.0
  0
LINE
  5
86B
330
1F
100
AcDbEntity
  8
0
100
AcDbLine
 10
31.0
 20
119.75
 30
0.0
 11
31.0
 21
339.95000000000005
 31
0.0
  0
LINE
  5
86C
330
1F
100
AcDbEntity
  8
0
100
AcDbLine
 10
31.0
 20
339.95000000000005
 30
0.0
 11
110.55000000000001
 21
339.95000000000005
 31
0.0
  0
LINE
  5
86D
330
1F
100
AcDbEntity
  8
0
100
AcDbLine
 10
110.55000000000001
 20
339.95000000000005
 30
0.0
 11
110.55000000000001
 21
1099.65
 31
0.0
  0
LINE
  5
86E
330
1F
100
AcDbEntity
  8
0
100
AcDbLine
 10
110.55000000000001
 20
1099.65
 30
0.0
 11
31.0
 21
1099.65
 31
0.0
  0
LINE
  5
870
330
1F
100
AcDbEntity
  8
0
100
AcDbLine
 10
31.0
 20
1099.65
 30
0.0
 11
31.0
 21
1099.65
 31
0.0
  0
LINE
  5
871
330
1F
100
AcDbEntity
  8
0
100
AcDbLine
 10
31.0
 20
1099.65
 30
0.0
 11
31.0
 21
1359.1000000000001
 31
0.0
  0
LINE
  5
872
330
1F
100
AcDbEntity
  8
0
100
AcDbLine
 10
31.0
 20
1359.1000000000001
 30
0.0
 11
43.0
 21
1359.1000000000001
 31
0.0
  0
ENDSEC
  0
SECTION
  2
OBJECTS
  0
DICTIONARY
  5
C
330
0
100
AcDbDictionary
281
1
  3
ACAD_ASSOCNETWORK
350
4DA
  3
ACAD_CIP_PREVIOUS_PRODUCT_INFO
350
216
  3
ACAD_COLOR
350
6B
  3
ACAD_DETAILVIEWSTYLE
350
21B
  3
ACAD_GROUP
350
D
  3
ACAD_LAST_SAVED_VERSION_INFO
350
3A4
  3
ACAD_LAYOUT
350
1A
  3
ACAD_MATERIAL
350
6A
  3
ACAD_MLEADERSTYLE
350
12D
  3
ACAD_MLINESTYLE
350
17
  3
ACAD_PLOTSETTINGS
350
19
  3
ACAD_PLOTSTYLENAME
350
E
  3
ACAD_SCALELIST
350
10C
  3
ACAD_SECTIONVIEWSTYLE
350
219
  3
ACAD_TABLESTYLE
350
7E
  3
ACAD_VISUALSTYLE
350
EF
  3
ACDB_RECOMPOSE_DATA
350
89A
  3
AcDbVariableDictionary
350
5E
  3
EZDXF_META
350
89D
  0
DICTIONARY
  5
1FF
330
2
100
AcDbDictionary
280
1
281
1
  3
ACAD_LAYERSTATES
360
200
  0
DICTIONARY
  5
1CE
330
1F
100
AcDbDictionary
280
1
281
1
  3
ACAD_ASSOCNETWORK
360
4D8
  0
DICTIONARY
  5
532
330
529
100
AcDbDictionary
280
1
281
1
  3
ACAD_DIMASSOC
360
538
  0
DICTIONARY
  5
548
330
539
100
AcDbDictionary
280
1
281
1
  3
ACAD_DIMASSOC
360
554
  0
DICTIONARY
  5
562
330
555
100
AcDbDictionary
280
1
281
1
  3
ACAD_DIMASSOC
360
56C
  0
DICTIONARY
  5
57A
330
56D
100
AcDbDictionary
280
1
281
1
  3
ACAD_DIMASSOC
360
584
  0
DICTIONARY
  5
592
330
585
100
AcDbDictionary
280
1
281
1
  3
ACAD_DIMASSOC
360
59C
  0
DICTIONARY
  5
5AA
330
59D
100
AcDbDictionary
280
1
281
1
  3
ACAD_DIMASSOC
360
5B4
  0
DICTIONARY
  5
5C2
330
5B5
100
AcDbDictionary
280
1
281
1
  3
ACAD_DIMASSOC
360
5CC
  0
DICTIONARY
  5
5DC
330
5CD
100
AcDbDictionary
280
1
281
1
  3
ACAD_DIMASSOC
360
5E8
  0
DICTIONARY
  5
5F6
330
5E9
100
AcDbDictionary
280
1
281
1
  3
ACAD_DIMASSOC
360
600
  0
DICTIONARY
  5
60E
330
601
100
AcDbDictionary
280
1
281
1
  3
ACAD_DIMASSOC
360
618
  0
DICTIONARY
  5
626
330
619
100
AcDbDictionary
280
1
281
1
  3
ACAD_DIMASSOC
360
630
  0
DICTIONARY
  5
640
330
631
100
AcDbDictionary
280
1
281
1
  3
ACAD_DIMASSOC
360
64C
  0
DICTIONARY
  5
65A
330
64D
100
AcDbDictionary
280
1
281
1
  3
ACAD_DIMASSOC
360
664
  0
DICTIONARY
  5
672
330
665
100
AcDbDictionary
280
1
281
1
  3
ACAD_DIMASSOC
360
67C
  0
DICTIONARY
  5
68A
330
67D
100
AcDbDictionary
280
1
281
1
  3
ACAD_DIMASSOC
360
694
  0
DICTIONARY
  5
6A4
330
695
100
AcDbDictionary
280
1
281
1
  3
ACAD_DIMASSOC
360
6B0
  0
DICTIONARY
  5
6BE
330
6B1
100
AcDbDictionary
280
1
281
1
  3
ACAD_DIMASSOC
360
6C8
  0
DICTIONARY
  5
6D8
330
6C9
100
AcDbDictionary
280
1
281
1
  3
ACAD_DIMASSOC
360
6E4
  0
DICTIONARY
  5
6F2
330
6E5
100
AcDbDictionary
280
1
281
1
  3
ACAD_DIMASSOC
360
6FC
  0
DICTIONARY
  5
70C
330
6FD
100
AcDbDictionary
280
1
281
1
  3
ACAD_DIMASSOC
360
718
  0
DICTIONARY
  5
726
330
719
100
AcDbDictionary
280
1
281
1
  3
ACAD_DIMASSOC
360
730
  0
DICTIONARY
  5
76E
330
761
100
AcDbDictionary
280
1
281
1
  3
ACAD_DIMASSOC
360
778
  0
DICTIONARY
  5
786
330
779
100
AcDbDictionary
280
1
281
1
  3
ACAD_DIMASSOC
360
790
  0
DICTIONARY
  5
79E
330
791
100
AcDbDictionary
280
1
281
1
  3
ACAD_DIMASSOC
360
7A8
  0
DICTIONARY
  5
7B6
330
7A9
100
AcDbDictionary
280
1
281
1
  3
ACAD_DIMASSOC
360
7C0
  0
DICTIONARY
  5
7D0
330
7C1
100
AcDbDictionary
280
1
281
1
  3
ACAD_DIMASSOC
360
7DC
  0
DICTIONARY
  5
4DA
102
{ACAD_REACTORS
330
C
102
}
330
C
100
AcDbDictionary
281
1
  3
ACAD_ASSOCNETWORK
350
4DB
  0
XRECORD
  5
216
102
{ACAD_REACTORS
330
C
102
}
330
C
100
AcDbXrecord
280
1
300
ACD
300
2026
300

  0
DICTIONARY
  5
6B
102
{ACAD_REACTORS
330
C
102
}
330
C
100
AcDbDictionary
281
1
  0
DICTIONARY
  5
21B
102
{ACAD_REACTORS
330
C
102
}
330
C
100
AcDbDictionary
281
1
  3
Metric50
350
21C
  0
DICTIONARY
  5
D
102
{ACAD_REACTORS
330
C
102
}
330
C
100
AcDbDictionary
281
1
  0
XRECORD
  5
3A4
102
{ACAD_REACTORS
330
C
102
}
330
C
100
AcDbXrecord
280
1
300
{939455F3-5A99-3847-B0EC-48F9CB005F54}
301
{8BB3E360-09C5-4F44-9003-E0396F904CD5}
302
{939455F3-5A99-3847-B0EC-48F9CB005F54}
303
C:\Users\24414\Desktop\会议室\Drawing1.dwg
  0
DICTIONARY
  5
1A
102
{ACAD_REACTORS
330
C
102
}
330
C
100
AcDbDictionary
281
1
  3
Model
350
22
  3
布局1
350
D3
  3
布局2
350
D7
  0
DICTIONARY
  5
6A
102
{ACAD_REACTORS
330
C
102
}
330
C
100
AcDbDictionary
281
1
  3
ByBlock
350
ED
  3
ByLayer
350
EC
  3
Global
350
EE
  0
DICTIONARY
  5
12D
102
{ACAD_REACTORS
330
C
102
}
330
C
100
AcDbDictionary
281
1
  3
Annotative
350
13B
  3
Standard
350
12E
  0
DICTIONARY
  5
17
102
{ACAD_REACTORS
330
C
102
}
330
C
100
AcDbDictionary
281
1
  3
Standard
350
18
  0
DICTIONARY
  5
19
102
{ACAD_REACTORS
330
C
102
}
330
C
100
AcDbDictionary
281
1
  0
ACDBDICTIONARYWDFLT
  5
E
102
{ACAD_REACTORS
330
C
102
}
330
C
100
AcDbDictionary
281
1
  3
Normal
350
F
100
AcDbDictionaryWithDefault
340
F
  0
DICTIONARY
  5
10C
102
{ACAD_REACTORS
330
C
102
}
330
C
100
AcDbDictionary
281
1
  3
A0
350
10D
  3
A1
350
1BE
  3
A2
350
1BF
  3
A3
350
1C0
  3
A4
350
1C1
  3
A5
350
1C2
  3
A6
350
1C3
  3
A7
350
1C4
  3
A8
350
1C5
  3
A9
350
1C6
  3
B0
350
1C7
  3
B1
350
1C8
  3
B2
350
1C9
  3
B3
350
1CA
  3
B4
350
1CB
  3
B5
350
1CC
  3
B6
350
1CD
  0
DICTIONARY
  5
219
102
{ACAD_REACTORS
330
C
102
}
330
C
100
AcDbDictionary
281
1
  3
Metric50
350
21A
  0
DICTIONARY
  5
7E
102
{ACAD_REACTORS
330
C
102
}
330
C
100
AcDbDictionary
281
1
  3
Standard
350
7F
  0
DICTIONARY
  5
EF
102
{ACAD_REACTORS
330
C
102
}
330
C
100
AcDbDictionary
281
1
  3
2dWireframe
350
F5
  3
Basic
350
F4
  3
Brighten
350
FB
  3
ColorChange
350
FF
  3
Conceptual
350
F8
  3
Dim
350
FA
  3
EdgeColorOff
350
1E6
  3
Facepattern
350
FE
  3
Flat
350
F0
  3
FlatWithEdges
350
F1
  3
Gouraud
350
F2
  3
GouraudWithEdges
350
F3
  3
Hidden
350
F7
  3
JitterOff
350
1E4
  3
Linepattern
350
FD
  3
OverhangOff
350
1E5
  3
Realistic
350
F9
  3
Shaded
350
1F3
  3
Shaded with edges
350
1F2
  3
Shades of Gray
350
1EF
  3
Sketchy
350
1F0
  3
Thicken
350
FC
  3
Wireframe
350
F6
  3
X-Ray
350
1F1
  0
XRECORD
  5
89A
102
{ACAD_REACTORS
330
C
102
}
330
C
100
AcDbXrecord
280
1
 90
1
330
7F
  0
DICTIONARY
  5
5E
102
{ACAD_REACTORS
330
C
102
}
330
C
100
AcDbDictionary
281
1
  3
CANNOSCALE
350
146
  3
CENTEREXE
350
259
  3
CENTERLTYPEFILE
350
25A
  3
CMLEADERSTYLE
350
145
  3
CTABLESTYLE
350
84
  3
CVIEWDETAILSTYLE
350
227
  3
CVIEWSECTIONSTYLE
350
228
  3
DIMASSOC
350
5F
  3
HIDETEXT
350
63
  3
LAYEREVAL
350
1AE
  3
LAYERNOTIFY
350
1AF
  0
DICTIONARY
  5
200
102
{ACAD_REACTORS
330
1FF
102
}
330
1FF
100
AcDbDictionary
281
1
  0
DICTIONARY
  5
4D8
102
{ACAD_REACTORS
330
1CE
102
}
330
1CE
100
AcDbDictionary
281
1
  3
ACAD_ASSOCNETWORK
350
4D9
  0
DIMASSOC
  5
538
102
{ACAD_REACTORS
330
532
102
}
330
532
100
AcDbDimAssoc
330
529
 90
2
 70
0
 71
0
  1
AcDbOsnapPointRef
 72
3
331
3F2
 73
2
 91
0
 40
3.141592653589793
 10
303.9999999999999
 20
346.9999999999999
 30
0.0
 75
0
  0
DIMASSOC
  5
554
102
{ACAD_REACTORS
330
548
102
}
330
548
100
AcDbDimAssoc
330
539
 90
3
 70
0
 71
0
  1
AcDbOsnapPointRef
 72
1
331
3F5
 73
2
 91
0
 40
1.0
 10
218.9999999999999
 20
347.0
 30
0.0
 75
0
  1
AcDbOsnapPointRef
 72
13
331
518
 73
2
 91
0
 40
0.0
 10
164.0
 20
347.0
 30
0.0
 75
0
  0
DIMASSOC
  5
56C
102
{ACAD_REACTORS
330
562
102
}
330
562
100
AcDbDimAssoc
330
555
 90
3
 70
0
 71
0
  1
AcDbOsnapPointRef
 72
6
331
518
 73
2
 91
0
 40
0.5000000000000001
 10
164.0
 20
207.0
 30
0.0
332
517
 74
2
 92
0
 75
0
  1
AcDbOsnapPointRef
 72
13
331
517
 73
2
 91
0
 40
0.0
 10
303.9999999999999
 20
207.0
 30
0.0
 75
0
  0
DIMASSOC
  5
584
102
{ACAD_REACTORS
330
57A
102
}
330
57A
100
AcDbDimAssoc
330
56D
 90
3
 70
0
 71
0
  1
AcDbOsnapPointRef
 72
1
331
40B
 73
2
 91
0
 40
1.0
 10
484.0
 20
260.0
 30
0.0
 75
0
  1
AcDbOsnapPointRef
 72
1
331
409
 73
2
 91
0
 40
1.0
 10
624.0
 20
260.0
 30
0.0
 75
0
  0
DIMASSOC
  5
59C
102
{ACAD_REACTORS
330
592
102
}
330
592
100
AcDbDimAssoc
330
585
 90
3
 70
0
 71
0
  1
AcDbOsnapPointRef
 72
1
331
409
 73
2
 91
0
 40
1.0
 10
624.0
 20
260.0
 30
0.0
 75
0
  1
AcDbOsnapPointRef
 72
1
331
40A
 73
2
 91
0
 40
1.0
 10
624.0
 20
185.0
 30
0.0
 75
0
  0
DIMASSOC
  5
5B4
102
{ACAD_REACTORS
330
5AA
102
}
330
5AA
100
AcDbDimAssoc
330
59D
 90
3
 70
0
 71
0
  1
AcDbOsnapPointRef
 72
13
331
3FF
 73
2
 91
0
 40
0.0
 10
709.4634483594746
 20
260.0
 30
0.0
 75
0
  1
AcDbOsnapPointRef
 72
13
331
401
 73
2
 91
0
 40
0.0
 10
1064.463448359475
 20
260.0
 30
0.0
 75
0
  0
DIMASSOC
  5
5CC
102
{ACAD_REACTORS
330
5C2
102
}
330
5C2
100
AcDbDimAssoc
330
5B5
 90
3
 70
0
 71
0
  1
AcDbOsnapPointRef
 72
13
331
401
 73
2
 91
0
 40
0.0
 10
1064.463448359475
 20
260.0
 30
0.0
 75
0
  1
AcDbOsnapPointRef
 72
1
331
401
 73
2
 91
0
 40
1.0
 10
1065.0
 20
110.0
 30
0.0
 75
0
  0
DIMASSOC
  5
5E8
102
{ACAD_REACTORS
330
5DC
102
}
330
5DC
100
AcDbDimAssoc
330
5CD
 90
3
 70
0
 71
0
  1
AcDbOsnapPointRef
 72
13
331
4D7
 73
2
 91
0
 40
0.0
 10
1149.731724179737
 20
279.1
 30
0.0
 75
0
  1
AcDbOsnapPointRef
 72
13
331
4C8
 73
2
 91
0
 40
0.0
 10
1156.731724179737
 20
279.1
 30
0.0
 75
0
  0
DIMASSOC
  5
600
102
{ACAD_REACTORS
330
5F6
102
}
330
5F6
100
AcDbDimAssoc
330
5E9
 90
3
 70
0
 71
0
  1
AcDbOsnapPointRef
 72
13
331
4C8
 73
2
 91
0
 40
0.0
 10
1156.731724179737
 20
279.1
 30
0.0
 75
0
  1
AcDbOsnapPointRef
 72
13
331
4E1
 73
2
 91
0
 40
0.0
 10
1156.731724179737
 20
90.90000000000003
 30
0.0
 75
0
  0
DIMASSOC
  5
618
102
{ACAD_REACTORS
330
60E
102
}
330
60E
100
AcDbDimAssoc
330
601
 90
3
 70
0
 71
0
  1
AcDbOsnapPointRef
 72
13
331
449
 73
2
 91
0
 40
0.0
 10
110.0
 20
632.0
 30
0.0
 75
0
  1
AcDbOsnapPointRef
 72
13
331
44A
 73
2
 91
0
 40
0.0
 10
250.0
 20
632.0
 30
0.0
 75
0
  0
DIMASSOC
  5
630
102
{ACAD_REACTORS
330
626
102
}
330
626
100
AcDbDimAssoc
330
619
 90
3
 70
0
 71
0
  1
AcDbOsnapPointRef
 72
13
331
44A
 73
2
 91
0
 40
0.0
 10
250.0
 20
632.0
 30
0.0
 75
0
  1
AcDbOsnapPointRef
 72
1
331
44A
 73
2
 91
0
 40
1.0
 10
250.0
 20
557.0
 30
0.0
 75
0
  0
DIMASSOC
  5
64C
102
{ACAD_REACTORS
330
640
102
}
330
640
100
AcDbDimAssoc
330
631
 90
3
 70
0
 71
0
  1
AcDbOsnapPointRef
 72
13
331
3E2
 73
2
 91
0
 40
0.0
 10
330.0
 20
460.0
 30
0.0
 75
0
  1
AcDbOsnapPointRef
 72
13
331
3E3
 73
2
 91
0
 40
0.0
 10
390.0
 20
460.0
 30
0.0
 75
0
  0
DIMASSOC
  5
664
102
{ACAD_REACTORS
330
65A
102
}
330
65A
100
AcDbDimAssoc
330
64D
 90
3
 70
0
 71
0
  1
AcDbOsnapPointRef
 72
13
331
3E1
 73
2
 91
0
 40
0.0
 10
330.0
 20
580.0
 30
0.0
 75
0
  1
AcDbOsnapPointRef
 72
13
331
3E2
 73
2
 91
0
 40
0.0
 10
330.0
 20
460.0
 30
0.0
 75
0
  0
DIMASSOC
  5
67C
102
{ACAD_REACTORS
330
672
102
}
330
672
100
AcDbDimAssoc
330
665
 90
3
 70
0
 71
0
  1
AcDbOsnapPointRef
 72
1
331
3E3
 73
2
 91
0
 40
1.0
 10
390.0
 20
465.0
 30
0.0
 75
0
  1
AcDbOsnapPointRef
 72
13
331
3D7
 73
2
 91
0
 40
0.0
 10
920.0
 20
465.0
 30
0.0
 75
0
  0
DIMASSOC
  5
694
102
{ACAD_REACTORS
330
68A
102
}
330
68A
100
AcDbDimAssoc
330
67D
 90
3
 70
0
 71
0
  1
AcDbOsnapPointRef
 72
13
331
3D7
 73
2
 91
0
 40
0.0
 10
920.0
 20
465.0
 30
0.0
 75
0
  1
AcDbOsnapPointRef
 72
13
331
3D8
 73
2
 91
0
 40
0.0
 10
920.0
 20
695.0
 30
0.0
 75
0
  0
DIMASSOC
  5
6B0
102
{ACAD_REACTORS
330
6A4
102
}
330
6A4
100
AcDbDimAssoc
330
695
 90
3
 70
0
 71
0
  1
AcDbOsnapPointRef
 72
13
331
3CC
 73
2
 91
0
 40
0.0
 10
1145.0
 20
428.0
 30
0.0
 75
0
  1
AcDbOsnapPointRef
 72
13
331
3CB
 73
2
 91
0
 40
0.0
 10
1190.0
 20
428.0
 30
0.0
 75
0
  0
DIMASSOC
  5
6C8
102
{ACAD_REACTORS
330
6BE
102
}
330
6BE
100
AcDbDimAssoc
330
6B1
 90
3
 70
0
 71
0
  1
AcDbOsnapPointRef
 72
13
331
3BD
 73
2
 91
0
 40
0.0
 10
1190.0
 20
728.0
 30
0.0
 75
0
  1
AcDbOsnapPointRef
 72
13
331
3C6
 73
2
 91
0
 40
0.0
 10
1190.0
 20
628.0
 30
0.0
 75
0
  0
DIMASSOC
  5
6E4
102
{ACAD_REACTORS
330
6D8
102
}
330
6D8
100
AcDbDimAssoc
330
6C9
 90
3
 70
0
 71
0
  1
AcDbOsnapPointRef
 72
1
331
2E9
 73
2
 91
0
 40
1.0
 10
34.0
 20
708.0
 30
0.0
 75
0
  1
AcDbOsnapPointRef
 72
13
331
2E9
 73
2
 91
0
 40
0.0
 10
0.0
 20
708.0
 30
0.0
 75
0
  0
DIMASSOC
  5
6FC
102
{ACAD_REACTORS
330
6F2
102
}
330
6F2
100
AcDbDimAssoc
330
6E5
 90
3
 70
0
 71
0
  1
AcDbOsnapPointRef
 72
13
331
2E8
 73
2
 91
0
 40
0.0
 10
34.0
 20
788.0
 30
0.0
 75
0
  1
AcDbOsnapPointRef
 72
1
331
2E9
 73
2
 91
0
 40
1.0
 10
34.0
 20
708.0
 30
0.0
 75
0
  0
DIMASSOC
  5
718
102
{ACAD_REACTORS
330
70C
102
}
330
70C
100
AcDbDimAssoc
330
6FD
 90
3
 70
0
 71
0
  1
AcDbOsnapPointRef
 72
1
331
35B
 73
2
 91
0
 40
1.0
 10
329.5
 20
805.0
 30
0.0
 75
0
  1
AcDbOsnapPointRef
 72
13
331
35C
 73
2
 91
0
 40
0.0
 10
329.5
 20
745.0
 30
0.0
 75
0
  0
DIMASSOC
  5
730
102
{ACAD_REACTORS
330
726
102
}
330
726
100
AcDbDimAssoc
330
719
 90
3
 70
0
 71
0
  1
AcDbOsnapPointRef
 72
13
331
35C
 73
2
 91
0
 40
0.0
 10
329.5
 20
745.0
 30
0.0
 75
0
  1
AcDbOsnapPointRef
 72
13
331
35D
 73
2
 91
0
 40
0.0
 10
249.5
 20
745.0
 30
0.0
 75
0
  0
DIMASSOC
  5
778
102
{ACAD_REACTORS
330
76E
102
}
330
76E
100
AcDbDimAssoc
330
761
 90
3
 70
0
 71
0
  1
AcDbOsnapPointRef
 72
13
331
350
 73
2
 91
0
 40
0.0
 10
961.0
 20
760.0
 30
0.0
 75
0
  1
AcDbOsnapPointRef
 72
13
331
351
 73
2
 91
0
 40
0.0
 10
881.0
 20
760.0
 30
0.0
 75
0
  0
DIMASSOC
  5
790
102
{ACAD_REACTORS
330
786
102
}
330
786
100
AcDbDimAssoc
330
779
 90
3
 70
0
 71
0
  1
AcDbOsnapPointRef
 72
13
331
34D
 73
2
 91
0
 40
0.0
 10
874.5
 20
760.0
 30
0.0
 75
0
  1
AcDbOsnapPointRef
 72
1
331
34D
 73
2
 91
0
 40
1.0
 10
774.5
 20
760.0
 30
0.0
 75
0
  0
DIMASSOC
  5
7A8
102
{ACAD_REACTORS
330
79E
102
}
330
79E
100
AcDbDimAssoc
330
791
 90
3
 70
0
 71
0
  1
AcDbOsnapPointRef
 72
13
331
354
 73
2
 91
0
 40
0.0
 10
759.5
 20
760.0
 30
0.0
 75
0
  1
AcDbOsnapPointRef
 72
1
331
354
 73
2
 91
0
 40
1.0
 10
509.5
 20
760.0
 30
0.0
 75
0
  0
DIMASSOC
  5
7C0
102
{ACAD_REACTORS
330
7B6
102
}
330
7B6
100
AcDbDimAssoc
330
7A9
 90
3
 70
0
 71
0
  1
AcDbOsnapPointRef
 72
13
331
358
 73
2
 91
0
 40
0.0
 10
489.5
 20
760.0
 30
0.0
 75
0
  1
AcDbOsnapPointRef
 72
1
331
358
 73
2
 91
0
 40
1.0
 10
389.5
 20
760.0
 30
0.0
 75
0
  0
DIMASSOC
  5
7DC
102
{ACAD_REACTORS
330
7D0
102
}
330
7D0
100
AcDbDimAssoc
330
7C1
 90
3
 70
0
 71
0
  1
AcDbOsnapPointRef
 72
1
331
359
 73
2
 91
0
 40
1.0
 10
389.5
 20
805.0
 30
0.0
 75
0
  1
AcDbOsnapPointRef
 72
13
331
359
 73
2
 91
0
 40
0.0
 10
389.5
 20
760.0
 30
0.0
 75
0
  0
ACAD_PROXY_OBJECT
  5
4DB
102
{ACAD_REACTORS
330
4DA
102
}
330
4DA
100
AcDbProxyObject
 90
499
 91
518
 71
33
 97
377
 70
0
161
51
310
40AAAAA4050140
330
0
360
0
330
4D9
 94
0
  0
ACDBDETAILVIEWSTYLE
  5
21C
102
{ACAD_REACTORS
330
21B
102
}
330
21B
100
AcDbModelDocViewStyle
 70
0
  3
Metric50
290
0
300
Metric50
 90
0
100
AcDbDetailViewStyle
 70
0
 71
0
 90
3
 71
1
340
11
 62
256
 40
5.0
340
0
 62
256
 40
5.0
300

 40
0.0
280
1
 71
2
340
16
 90
25
 62
256
 71
3
340
11
 62
256
 40
5.0
 90
0
 40
15.0
 90
1
300
%<\AcVar ViewDetailId>% (%<\AcVar ViewScale \f "%sn">%)
 71
4
340
16
 90
25
 62
256
340
16
 90
25
 62
256
280
0
  0
LAYOUT
  5
22
102
{ACAD_XDICTIONARY
360
205
102
}
102
{ACAD_REACTORS
330
1A
102
}
330
1A
100
AcDbPlotSettings
  1

  2
none_device
  4
ISO_A4_(210.00_x_297.00_MM)
  6

 40
7.5
 41
20.0
 42
7.5
 43
20.0
 44
210.0
 45
297.0
 46
11.54999923706055
 47
-13.65000009536743
 48
0.0
 49
0.0
140
0.0
141
0.0
142
1.0
143
8.704084754739808
 70
11952
 72
1
 73
0
 74
0
  7

 75
0
 76
0
 77
2
 78
300
147
0.1148885871608098
148
0.0
149
0.0
100
AcDbLayout
  1
Model
 70
1
 71
0
 10
0.0
 20
0.0
 11
12.0
 21
9.0
 12
0.0
 22
0.0
 32
0.0
 14
0.0
 24
0.0
 34
0.0
 15
0.0
 25
0.0
 35
0.0
146
0.0
 13
0.0
 23
0.0
 33
0.0
 16
1.0
 26
0.0
 36
0.0
 17
0.0
 27
1.0
 37
0.0
 76
0
330
1F
331
EA
1001
ACAD_PSEXT
1000
None
1000
None
1000
Not applicable
1000
The layout will not be plotted unless a new plotter configuration name is selected.
1070
0
  0
LAYOUT
  5
D3
102
{ACAD_REACTORS
330
1A
102
}
330
1A
100
AcDbPlotSettings
  1

  2
C:\Documents and Settings\basas\Application Data\Autodesk\AutoCAD 2005\R16.1\enu\plotters\Default Windows System Printer.pc3
  4

  6

 40
0.0
 41
0.0
 42
0.0
 43
0.0
 44
0.0
 45
0.0
 46
0.0
 47
0.0
 48
0.0
 49
0.0
140
0.0
141
0.0
142
1.0
143
1.0
 70
688
 72
0
 73
0
 74
5
  7

 75
16
 76
0
 77
2
 78
300
147
1.0
148
0.0
149
0.0
100
AcDbLayout
  1
布局1
 70
1
 71
1
 10
0.0
 20
0.0
 11
12.0
 21
9.0
 12
0.0
 22
0.0
 32
0.0
 14
0.0
 24
0.0
 34
0.0
 15
0.0
 25
0.0
 35
0.0
146
0.0
 13
0.0
 23
0.0
 33
0.0
 16
1.0
 26
0.0
 36
0.0
 17
0.0
 27
1.0
 37
0.0
 76
0
330
D2
  0
LAYOUT
  5
D7
102
{ACAD_REACTORS
330
1A
102
}
330
1A
100
AcDbPlotSettings
  1

  2
C:\Documents and Settings\basas\Application Data\Autodesk\AutoCAD 2005\R16.1\enu\plotters\Default Windows System Printer.pc3
  4

  6

 40
0.0
 41
0.0
 42
0.0
 43
0.0
 44
0.0
 45
0.0
 46
0.0
 47
0.0
 48
0.0
 49
0.0
140
0.0
141
0.0
142
1.0
143
1.0
 70
688
 72
0
 73
0
 74
5
  7

 75
16
 76
0
 77
2
 78
300
147
1.0
148
0.0
149
0.0
100
AcDbLayout
  1
布局2
 70
1
 71
2
 10
0.0
 20
0.0
 11
12.0
 21
9.0
 12
0.0
 22
0.0
 32
0.0
 14
0.0
 24
0.0
 34
0.0
 15
0.0
 25
0.0
 35
0.0
146
0.0
 13
0.0
 23
0.0
 33
0.0
 16
1.0
 26
0.0
 36
0.0
 17
0.0
 27
1.0
 37
0.0
 76
0
330
D6
  0
MATERIAL
  5
ED
102
{ACAD_XDICTIONARY
360
1F9
102
}
102
{ACAD_REACTORS
330
6A
102
}
330
6A
100
AcDbMaterial
  1
ByBlock
  2

 70
0
 40
1.0
 71
0
 41
1.0
 91
-1023410177
 42
1.0
 72
1
  3

 73
2
 74
1
 75
1
 44
0.5
 73
0
 45
1.0
 46
1.0
 77
1
  4

 78
2
 79
1
170
1
 48
1.0
171
1
  6

172
2
173
1
174
1
140
1.0
141
1.0
175
1
  7

176
2
177
1
178
1
143
1.0
179
1
  8

270
2
271
1
272
1
145
1.0
146
1.0
273
1
  9

274
2
275
1
276
1
 42
1.0
 72
1
  3

 73
1
 74
1
 75
1
 94
63
  0
MATERIAL
  5
EC
102
{ACAD_XDICTIONARY
360
1F7
102
}
102
{ACAD_REACTORS
330
6A
102
}
330
6A
100
AcDbMaterial
  1
ByLayer
  2

 70
0
 40
1.0
 71
0
 41
1.0
 91
-1023410177
 42
1.0
 72
1
  3

 73
2
 74
1
 75
1
 44
0.5
 73
0
 45
1.0
 46
1.0
 77
1
  4

 78
2
 79
1
170
1
 48
1.0
171
1
  6

172
2
173
1
174
1
140
1.0
141
1.0
175
1
  7

176
2
177
1
178
1
143
1.0
179
1
  8

270
2
271
1
272
1
145
1.0
146
1.0
273
1
  9

274
2
275
1
276
1
 42
1.0
 72
1
  3

 73
1
 74
1
 75
1
 94
63
  0
MATERIAL
  5
EE
102
{ACAD_XDICTIONARY
360
173
102
}
102
{ACAD_REACTORS
330
6A
102
}
330
6A
100
AcDbMaterial
  1
Global
  2

 70
0
 40
1.0
 71
0
 41
1.0
 91
-1023410177
 42
1.0
 72
1
  3

 73
2
 74
1
 75
1
 43
0.0007999999797903
 43
0.0
 43
0.0
 43
0.0
 43
0.0
 43
0.0007999999797903
 43
0.0
 43
0.0
 43
0.0
 43
0.0
 43
1.0
 43
0.0
 43
0.0
 43
0.0
 43
0.0
 43
1.0
 44
0.5
 73
0
 45
1.0
 46
1.0
 77
1
  4

 78
2
 79
1
170
1
 48
1.0
171
1
  6

172
2
173
1
174
1
 49
0.0007999999797903
 49
0.0
 49
0.0
 49
0.0
 49
0.0
 49
0.0007999999797903
 49
0.0
 49
0.0
 49
0.0
 49
0.0
 49
1.0
 49
0.0
 49
0.0
 49
0.0
 49
0.0
 49
1.0
140
1.0
141
1.0
175
1
  7

176
2
177
1
178
1
142
0.0007999999797903
142
0.0
142
0.0
142
0.0
142
0.0
142
0.0007999999797903
142
0.0
142
0.0
142
0.0
142
0.0
142
1.0
142
0.0
142
0.0
142
0.0
142
0.0
142
1.0
143
1.0
179
1
  8

270
2
271
1
272
1
144
0.0007999999797903
144
0.0
144
0.0
144
0.0
144
0.0
144
0.0007999999797903
144
0.0
144
0.0
144
0.0
144
0.0
144
1.0
144
0.0
144
0.0
144
0.0
144
0.0
144
1.0
145
1.0
146
1.0
273
1
  9

274
2
275
1
276
1
 42
1.0
 72
1
  3

 73
1
 74
1
 75
1
 94
63
1001
ACAD
1070
-1
1070
3
1070
0
1000

1071
0
1070
0
  0
MLEADERSTYLE
  5
13B
102
{ACAD_REACTORS
330
12D
102
}
330
12D
100
AcDbMLeaderStyle
179
2
170
2
171
1
172
0
 90
2
 40
0.0
 41
0.0
173
1
 91
-1056964608
340
14
 92
-2
290
1
 42
2.0
291
1
 43
8.0
  3
Standard
341
0
 44
4.0
300

342
11
174
1
175
1
176
0
178
1
 93
-1056964608
 45
4.0
292
0
297
0
 46
4.0
293
1
343
0
 94
-1056964608
 47
1.0
 49
1.0
140
1.0
294
1
141
0.0
177
0
142
1.0
295
0
296
1
143
3.75
271
0
272
9
273
9
298
0
  0
MLEADERSTYLE
  5
12E
102
{ACAD_REACTORS
330
12D
102
}
330
12D
100
AcDbMLeaderStyle
179
2
170
2
171
1
172
0
 90
2
 40
0.0
 41
0.0
173
1
 91
-1056964608
340
14
 92
-2
290
1
 42
2.0
291
1
 43
8.0
  3
Standard
341
0
 44
4.0
300

342
11
174
1
175
1
176
0
178
1
 93
-1056964608
 45
4.0
292
0
297
0
 46
4.0
293
1
343
0
 94
-1056964608
 47
1.0
 49
1.0
140
1.0
294
1
141
0.0
177
0
142
1.0
295
0
296
0
143
3.75
271
0
272
9
273
9
298
0
  0
MLINESTYLE
  5
18
102
{ACAD_REACTORS
330
17
102
}
330
17
100
AcDbMlineStyle
  2
STANDARD
 70
0
  3

 62
256
 51
90.0
 52
90.0
 71
2
 49
0.5
 62
256
  6
BYLAYER
 49
-0.5
 62
256
  6
BYLAYER
  0
ACDBPLACEHOLDER
  5
F
102
{ACAD_REACTORS
330
E
102
}
330
E
  0
SCALE
  5
10D
102
{ACAD_REACTORS
330
10C
102
}
330
10C
100
AcDbScale
 70
0
300
1:1
140
1.0
141
1.0
290
1
  0
SCALE
  5
1BE
102
{ACAD_REACTORS
330
10C
102
}
330
10C
100
AcDbScale
 70
0
300
1:2
140
1.0
141
2.0
290
0
  0
SCALE
  5
1BF
102
{ACAD_REACTORS
330
10C
102
}
330
10C
100
AcDbScale
 70
0
300
1:4
140
1.0
141
4.0
290
0
  0
SCALE
  5
1C0
102
{ACAD_REACTORS
330
10C
102
}
330
10C
100
AcDbScale
 70
0
300
1:5
140
1.0
141
5.0
290
0
  0
SCALE
  5
1C1
102
{ACAD_REACTORS
330
10C
102
}
330
10C
100
AcDbScale
 70
0
300
1:8
140
1.0
141
8.0
290
0
  0
SCALE
  5
1C2
102
{ACAD_REACTORS
330
10C
102
}
330
10C
100
AcDbScale
 70
0
300
1:10
140
1.0
141
10.0
290
0
  0
SCALE
  5
1C3
102
{ACAD_REACTORS
330
10C
102
}
330
10C
100
AcDbScale
 70
0
300
1:16
140
1.0
141
16.0
290
0
  0
SCALE
  5
1C4
102
{ACAD_REACTORS
330
10C
102
}
330
10C
100
AcDbScale
 70
0
300
1:20
140
1.0
141
20.0
290
0
  0
SCALE
  5
1C5
102
{ACAD_REACTORS
330
10C
102
}
330
10C
100
AcDbScale
 70
0
300
1:30
140
1.0
141
30.0
290
0
  0
SCALE
  5
1C6
102
{ACAD_REACTORS
330
10C
102
}
330
10C
100
AcDbScale
 70
0
300
1:40
140
1.0
141
40.0
290
0
  0
SCALE
  5
1C7
102
{ACAD_REACTORS
330
10C
102
}
330
10C
100
AcDbScale
 70
0
300
1:50
140
1.0
141
50.0
290
0
  0
SCALE
  5
1C8
102
{ACAD_REACTORS
330
10C
102
}
330
10C
100
AcDbScale
 70
0
300
1:100
140
1.0
141
100.0
290
0
  0
SCALE
  5
1C9
102
{ACAD_REACTORS
330
10C
102
}
330
10C
100
AcDbScale
 70
0
300
2:1
140
2.0
141
1.0
290
0
  0
SCALE
  5
1CA
102
{ACAD_REACTORS
330
10C
102
}
330
10C
100
AcDbScale
 70
0
300
4:1
140
4.0
141
1.0
290
0
  0
SCALE
  5
1CB
102
{ACAD_REACTORS
330
10C
102
}
330
10C
100
AcDbScale
 70
0
300
8:1
140
8.0
141
1.0
290
0
  0
SCALE
  5
1CC
102
{ACAD_REACTORS
330
10C
102
}
330
10C
100
AcDbScale
 70
0
300
10:1
140
10.0
141
1.0
290
0
  0
SCALE
  5
1CD
102
{ACAD_REACTORS
330
10C
102
}
330
10C
100
AcDbScale
 70
0
300
100:1
140
100.0
141
1.0
290
0
  0
ACDBSECTIONVIEWSTYLE
  5
21A
102
{ACAD_REACTORS
330
219
102
}
330
219
100
AcDbModelDocViewStyle
 70
0
  3
Metric50
290
0
300
Metric50
 90
0
100
AcDbSectionViewStyle
 70
0
 71
0
 90
102
 71
1
340
11
 62
256
 40
5.0
340
0
340
0
 62
256
 40
5.0
300
I, O, Q, S, X, Z
 40
10.0
 90
0
 40
2.5
 90
0
 71
2
340
16
 90
25
 62
256
340
16
 90
50
 62
256
 40
5.0
 40
2.5
 40
5.0
 71
3
340
11
 62
256
 40
5.0
 90
0
 40
15.0
 90
1
300
%<\AcVar ViewSectionStartId>%-%<\AcVar ViewSectionEndId>% (%<\AcVar ViewScale \f "%sn">%)
 71
4
 62
256
 62
257
300
ANSI31
 40
1.0
 90
0
290
0
290
0
 90
6
 40
0.0
 40
1.570796326794897
 40
0.2617993877991494
 40
1.308996938995747
 40
-0.2617993877991494
 40
1.832595714594046
  0
TABLESTYLE
  5
7F
102
{ACAD_XDICTIONARY
360
898
102
}
102
{ACAD_REACTORS
330
7E
102
}
330
7E
100
AcDbTableStyle
  3
Standard
 70
0
 71
0
 40
1.5
 41
1.5
280
0
281
0
  7
Standard
140
4.5
170
2
 62
0
 63
257
283
0
 90
512
 91
0
  1

274
-2
284
1
 64
0
275
-2
285
1
 65
0
276
-2
286
1
 66
0
277
-2
287
1
 67
0
278
-2
288
1
 68
0
279
-2
289
1
 69
0
  7
Standard
140
6.0
170
5
 62
0
 63
257
283
0
 90
512
 91
0
  1

274
-2
284
1
 64
0
275
-2
285
1
 65
0
276
-2
286
1
 66
0
277
-2
287
1
 67
0
278
-2
288
1
 68
0
279
-2
289
1
 69
0
  7
Standard
140
4.5
170
5
 62
0
 63
257
283
0
 90
512
 91
0
  1

274
-2
284
1
 64
0
275
-2
285
1
 65
0
276
-2
286
1
 66
0
277
-2
287
1
 67
0
278
-2
288
1
 68
0
279
-2
289
1
 69
0
  0
VISUALSTYLE
  5
F5
102
{ACAD_REACTORS
330
EF
102
}
330
EF
100
AcDbVisualStyle
  2
2dWireframe
 70
4
177
3
291
0
 70
58
 90
0
176
1
 90
2
176
1
 90
1
176
1
 90
0
176
1
 40
0.6
176
1
 40
30.0
176
1
 62
7
420
16777215
176
1
 90
1
176
1
 90
4
176
1
 62
7
176
1
 62
257
176
1
 90
1
176
1
 90
1
176
1
 40
1.0
176
1
 90
0
176
1
 62
257
176
1
 40
1.0
176
1
 90
1
176
1
 90
6
176
1
 90
2
176
1
 62
7
176
1
 90
5
176
1
 90
0
176
1
 90
0
176
1
290
0
176
1
 90
1
176
1
 40
0.0
176
1
 90
0
176
1
290
1
176
1
290
1
176
1
290
0
176
1
290
0
176
1
290
0
176
1
290
0
176
1
290
0
176
1
290
0
176
1
290
0
176
1
 90
50
176
1
 40
0.0
176
1
 40
1.0
176
1
 90
0
176
1
 62
18
420
0
176
1
 90
50
176
1
 90
3
176
1
 62
5
420
255
176
1
290
0
176
1
 90
50
176
1
 90
50
176
1
 90
50
176
1
290
0
176
1
 90
50
176
1
 62
256
176
0
 40
1.0
176
0
 90
2
176
1
  1
strokes_ogs.tif
176
1
290
0
176
1
 40
1.0
176
1
 40
1.0
176
1
  0
VISUALSTYLE
  5
F4
102
{ACAD_REACTORS
330
EF
102
}
330
EF
100
AcDbVisualStyle
  2
Basic
 70
7
177
3
291
1
 70
58
 90
1
176
1
 90
0
176
1
 90
1
176
1
 90
0
176
1
 40
0.6
176
1
 40
30.0
176
1
 62
7
420
16777215
176
1
 90
0
176
1
 90
4
176
1
 62
7
176
1
 62
257
176
1
 90
1
176
1
 90
1
176
1
 40
1.0
176
1
 90
8
176
1
 62
7
176
1
 40
1.0
176
1
 90
1
176
1
 90
6
176
1
 90
2
176
1
 62
7
176
1
 90
5
176
1
 90
0
176
1
 90
0
176
1
290
0
176
1
 90
1
176
1
 40
0.0
176
1
 90
0
176
1
290
0
176
1
290
1
176
1
290
1
176
1
290
0
176
1
290
0
176
1
290
0
176
1
290
0
176
1
290
0
176
1
290
0
176
1
 90
50
176
1
 40
0.0
176
1
 40
1.0
176
1
 90
0
176
1
 62
18
420
0
176
1
 90
50
176
1
 90
3
176
1
 62
5
420
255
176
1
290
0
176
1
 90
50
176
1
 90
50
176
1
 90
50
176
1
290
0
176
1
 90
50
176
1
 62
256
176
0
 40
1.0
176
0
 90
2
176
1
  1
strokes_ogs.tif
176
1
290
0
176
1
 40
1.0
176
1
 40
1.0
176
1
  0
VISUALSTYLE
  5
FB
102
{ACAD_REACTORS
330
EF
102
}
330
EF
100
AcDbVisualStyle
  2
Brighten
 70
12
177
3
291
1
 70
58
 90
2
176
1
 90
2
176
1
 90
1
176
1
 90
0
176
1
 40
0.6
176
1
 40
30.0
176
1
 62
7
420
16777215
176
1
 90
1
176
1
 90
4
176
1
 62
7
176
1
 62
257
176
1
 90
1
176
1
 90
1
176
1
 40
1.0
176
1
 90
8
176
1
 62
7
176
1
 40
1.0
176
1
 90
1
176
1
 90
6
176
1
 90
2
176
1
 62
7
176
1
 90
5
176
1
 90
0
176
1
 90
0
176
1
290
0
176
1
 90
1
176
1
 40
50.0
176
1
 90
0
176
1
290
0
176
1
290
1
176
1
290
1
176
1
290
0
176
1
290
0
176
1
290
0
176
1
290
0
176
1
290
0
176
1
290
0
176
1
 90
50
176
1
 40
0.0
176
1
 40
1.0
176
1
 90
0
176
1
 62
18
420
0
176
1
 90
50
176
1
 90
3
176
1
 62
5
420
255
176
1
290
0
176
1
 90
50
176
1
 90
50
176
1
 90
50
176
1
290
0
176
1
 90
50
176
1
 62
256
176
0
 40
1.0
176
0
 90
2
176
1
  1
strokes_ogs.tif
176
1
290
0
176
1
 40
1.0
176
1
 40
1.0
176
1
  0
VISUALSTYLE
  5
FF
102
{ACAD_REACTORS
330
EF
102
}
330
EF
100
AcDbVisualStyle
  2
ColorChange
 70
16
177
3
291
1
 70
58
 90
2
176
1
 90
2
176
1
 90
3
176
1
 90
0
176
1
 40
0.6
176
1
 40
30.0
176
1
 62
8
420
8421504
176
1
 90
1
176
1
 90
4
176
1
 62
7
176
1
 62
257
176
1
 90
1
176
1
 90
1
176
1
 40
1.0
176
1
 90
8
176
1
 62
8
420
8421504
176
1
 40
1.0
176
1
 90
1
176
1
 90
6
176
1
 90
2
176
1
 62
7
176
1
 90
5
176
1
 90
0
176
1
 90
0
176
1
290
0
176
1
 90
1
176
1
 40
0.0
176
1
 90
0
176
1
290
0
176
1
290
1
176
1
290
1
176
1
290
0
176
1
290
0
176
1
290
0
176
1
290
0
176
1
290
0
176
1
290
0
176
1
 90
50
176
1
 40
0.0
176
1
 40
1.0
176
1
 90
0
176
1
 62
18
420
0
176
1
 90
50
176
1
 90
3
176
1
 62
5
420
255
176
1
290
0
176
1
 90
50
176
1
 90
50
176
1
 90
50
176
1
290
0
176
1
 90
50
176
1
 62
256
176
0
 40
1.0
176
0
 90
2
176
1
  1
strokes_ogs.tif
176
1
290
0
176
1
 40
1.0
176
1
 40
1.0
176
1
  0
VISUALSTYLE
  5
F8
102
{ACAD_REACTORS
330
EF
102
}
330
EF
100
AcDbVisualStyle
  2
Conceptual
 70
9
177
3
291
0
 70
58
 90
3
176
1
 90
2
176
1
 90
1
176
1
 90
0
176
1
 40
0.6
176
1
 40
30.0
176
1
 62
7
420
16777215
176
1
 90
2
176
1
 90
2
176
1
 62
7
176
1
 62
257
176
1
 90
1
176
1
 90
1
176
1
 40
40.0
176
1
 90
8
176
1
 62
7
176
1
 40
1.0
176
1
 90
1
176
1
 90
6
176
1
 90
2
176
1
 62
7
176
1
 90
3
176
1
 90
0
176
1
 90
0
176
1
290
0
176
1
 90
1
176
1
 40
0.0
176
1
 90
0
176
1
290
0
176
1
290
1
176
1
290
1
176
1
290
0
176
1
290
0
176
1
290
0
176
1
290
0
176
1
290
0
176
1
290
0
176
1
 90
50
176
1
 40
0.0
176
1
 40
1.0
176
1
 90
0
176
1
 62
18
420
0
176
1
 90
50
176
1
 90
3
176
1
 62
5
420
255
176
1
290
0
176
1
 90
50
176
1
 90
50
176
1
 90
50
176
1
290
0
176
1
 90
50
176
1
 62
256
176
0
 40
1.0
176
0
 90
2
176
1
  1
strokes_ogs.tif
176
1
290
0
176
1
 40
1.0
176
1
 40
1.0
176
1
  0
VISUALSTYLE
  5
FA
102
{ACAD_REACTORS
330
EF
102
}
330
EF
100
AcDbVisualStyle
  2
Dim
 70
11
177
3
291
1
 70
58
 90
2
176
1
 90
2
176
1
 90
1
176
1
 90
0
176
1
 40
0.6
176
1
 40
30.0
176
1
 62
7
420
16777215
176
1
 90
1
176
1
 90
4
176
1
 62
7
176
1
 62
257
176
1
 90
1
176
1
 90
1
176
1
 40
1.0
176
1
 90
8
176
1
 62
7
176
1
 40
1.0
176
1
 90
1
176
1
 90
6
176
1
 90
2
176
1
 62
7
176
1
 90
5
176
1
 90
0
176
1
 90
0
176
1
290
0
176
1
 90
1
176
1
 40
-50.0
176
1
 90
0
176
1
290
0
176
1
290
1
176
1
290
1
176
1
290
0
176
1
290
0
176
1
290
0
176
1
290
0
176
1
290
0
176
1
290
0
176
1
 90
50
176
1
 40
0.0
176
1
 40
1.0
176
1
 90
0
176
1
 62
18
420
0
176
1
 90
50
176
1
 90
3
176
1
 62
5
420
255
176
1
290
0
176
1
 90
50
176
1
 90
50
176
1
 90
50
176
1
290
0
176
1
 90
50
176
1
 62
256
176
0
 40
1.0
176
0
 90
2
176
1
  1
strokes_ogs.tif
176
1
290
0
176
1
 40
1.0
176
1
 40
1.0
176
1
  0
VISUALSTYLE
  5
1E6
102
{ACAD_REACTORS
330
EF
102
}
330
EF
100
AcDbVisualStyle
  2
EdgeColorOff
 70
22
177
3
291
1
 70
58
 90
2
176
0
 90
2
176
0
 90
0
176
0
 90
0
176
0
 40
0.6
176
0
 40
30.0
176
0
 62
7
420
16777215
176
0
 90
1
176
0
 90
4
176
0
 62
7
176
0
 62
257
176
0
 90
1
176
0
 90
1
176
0
 40
1.0
176
0
 90
8
176
2
 62
7
176
0
 40
1.0
176
0
 90
1
176
0
 90
6
176
0
 90
2
176
0
 62
7
176
0
 90
5
176
0
 90
0
176
0
 90
0
176
0
290
0
176
0
 90
1
176
0
 40
0.0
176
0
 90
0
176
0
290
0
176
1
290
1
176
1
290
1
176
1
290
0
176
1
290
0
176
1
290
0
176
1
290
0
176
1
290
0
176
1
290
0
176
1
 90
50
176
1
 40
0.0
176
1
 40
1.0
176
1
 90
0
176
1
 62
18
420
0
176
1
 90
50
176
1
 90
3
176
1
 62
5
420
255
176
1
290
0
176
1
 90
50
176
1
 90
50
176
1
 90
50
176
1
290
0
176
1
 90
50
176
1
 62
256
176
0
 40
1.0
176
0
 90
2
176
1
  1
strokes_ogs.tif
176
1
290
0
176
1
 40
1.0
176
1
 40
1.0
176
1
  0
VISUALSTYLE
  5
FE
102
{ACAD_REACTORS
330
EF
102
}
330
EF
100
AcDbVisualStyle
  2
Facepattern
 70
15
177
3
291
1
 70
58
 90
2
176
1
 90
2
176
1
 90
1
176
1
 90
0
176
1
 40
0.6
176
1
 40
30.0
176
1
 62
7
420
16777215
176
1
 90
1
176
1
 90
4
176
1
 62
7
176
1
 62
257
176
1
 90
1
176
1
 90
1
176
1
 40
1.0
176
1
 90
8
176
1
 62
7
176
1
 40
1.0
176
1
 90
1
176
1
 90
6
176
1
 90
2
176
1
 62
7
176
1
 90
5
176
1
 90
0
176
1
 90
0
176
1
290
0
176
1
 90
1
176
1
 40
0.0
176
1
 90
0
176
1
290
0
176
1
290
1
176
1
290
1
176
1
290
0
176
1
290
0
176
1
290
0
176
1
290
0
176
1
290
0
176
1
290
0
176
1
 90
50
176
1
 40
0.0
176
1
 40
1.0
176
1
 90
0
176
1
 62
18
420
0
176
1
 90
50
176
1
 90
3
176
1
 62
5
420
255
176
1
290
0
176
1
 90
50
176
1
 90
50
176
1
 90
50
176
1
290
0
176
1
 90
50
176
1
 62
256
176
0
 40
1.0
176
0
 90
2
176
1
  1
strokes_ogs.tif
176
1
290
0
176
1
 40
1.0
176
1
 40
1.0
176
1
  0
VISUALSTYLE
  5
F0
102
{ACAD_REACTORS
330
EF
102
}
330
EF
100
AcDbVisualStyle
  2
Flat
 70
0
177
3
291
1
 70
58
 90
2
176
1
 90
1
176
1
 90
1
176
1
 90
2
176
1
 40
0.6
176
1
 40
30.0
176
1
 62
7
420
16777215
176
1
 90
0
176
1
 90
0
176
1
 62
7
176
1
 62
257
176
1
 90
1
176
1
 90
1
176
1
 40
1.0
176
1
 90
8
176
1
 62
7
176
1
 40
1.0
176
1
 90
1
176
1
 90
6
176
1
 90
2
176
1
 62
7
176
1
 90
5
176
1
 90
0
176
1
 90
0
176
1
290
0
176
1
 90
13
176
1
 40
0.0
176
1
 90
0
176
1
290
0
176
1
290
1
176
1
290
1
176
1
290
0
176
1
290
0
176
1
290
0
176
1
290
0
176
1
290
0
176
1
290
0
176
1
 90
50
176
1
 40
0.0
176
1
 40
1.0
176
1
 90
0
176
1
 62
18
420
0
176
1
 90
50
176
1
 90
3
176
1
 62
5
420
255
176
1
290
0
176
1
 90
50
176
1
 90
50
176
1
 90
50
176
1
290
0
176
1
 90
50
176
1
 62
256
176
0
 40
1.0
176
0
 90
2
176
1
  1
strokes_ogs.tif
176
1
290
0
176
1
 40
1.0
176
1
 40
1.0
176
1
  0
VISUALSTYLE
  5
F1
102
{ACAD_REACTORS
330
EF
102
}
330
EF
100
AcDbVisualStyle
  2
FlatWithEdges
 70
1
177
3
291
1
 70
58
 90
2
176
1
 90
1
176
1
 90
1
176
1
 90
2
176
1
 40
0.6
176
1
 40
30.0
176
1
 62
7
420
16777215
176
1
 90
1
176
1
 90
0
176
1
 62
7
176
1
 62
257
176
1
 90
1
176
1
 90
1
176
1
 40
1.0
176
1
 90
0
176
1
 62
257
176
1
 40
1.0
176
1
 90
1
176
1
 90
6
176
1
 90
2
176
1
 62
7
176
1
 90
5
176
1
 90
0
176
1
 90
0
176
1
290
0
176
1
 90
13
176
1
 40
0.0
176
1
 90
0
176
1
290
0
176
1
290
1
176
1
290
1
176
1
290
0
176
1
290
0
176
1
290
0
176
1
290
0
176
1
290
0
176
1
290
0
176
1
 90
50
176
1
 40
0.0
176
1
 40
1.0
176
1
 90
0
176
1
 62
18
420
0
176
1
 90
50
176
1
 90
3
176
1
 62
5
420
255
176
1
290
0
176
1
 90
50
176
1
 90
50
176
1
 90
50
176
1
290
0
176
1
 90
50
176
1
 62
256
176
0
 40
1.0
176
0
 90
2
176
1
  1
strokes_ogs.tif
176
1
290
0
176
1
 40
1.0
176
1
 40
1.0
176
1
  0
VISUALSTYLE
  5
F2
102
{ACAD_REACTORS
330
EF
102
}
330
EF
100
AcDbVisualStyle
  2
Gouraud
 70
2
177
3
291
1
 70
58
 90
2
176
1
 90
2
176
1
 90
1
176
1
 90
2
176
1
 40
0.6
176
1
 40
30.0
176
1
 62
7
420
16777215
176
1
 90
0
176
1
 90
0
176
1
 62
7
176
1
 62
257
176
1
 90
1
176
1
 90
1
176
1
 40
1.0
176
1
 90
0
176
1
 62
7
176
1
 40
1.0
176
1
 90
1
176
1
 90
6
176
1
 90
2
176
1
 62
7
176
1
 90
5
176
1
 90
0
176
1
 90
0
176
1
290
0
176
1
 90
13
176
1
 40
0.0
176
1
 90
0
176
1
290
0
176
1
290
1
176
1
290
1
176
1
290
0
176
1
290
0
176
1
290
0
176
1
290
0
176
1
290
0
176
1
290
0
176
1
 90
50
176
1
 40
0.0
176
1
 40
1.0
176
1
 90
0
176
1
 62
18
420
0
176
1
 90
50
176
1
 90
3
176
1
 62
5
420
255
176
1
290
0
176
1
 90
50
176
1
 90
50
176
1
 90
50
176
1
290
0
176
1
 90
50
176
1
 62
256
176
0
 40
1.0
176
0
 90
2
176
1
  1
strokes_ogs.tif
176
1
290
0
176
1
 40
1.0
176
1
 40
1.0
176
1
  0
VISUALSTYLE
  5
F3
102
{ACAD_REACTORS
330
EF
102
}
330
EF
100
AcDbVisualStyle
  2
GouraudWithEdges
 70
3
177
3
291
1
 70
58
 90
2
176
1
 90
2
176
1
 90
1
176
1
 90
2
176
1
 40
0.6
176
1
 40
30.0
176
1
 62
7
420
16777215
176
1
 90
1
176
1
 90
0
176
1
 62
7
176
1
 62
257
176
1
 90
1
176
1
 90
1
176
1
 40
1.0
176
1
 90
0
176
1
 62
257
176
1
 40
1.0
176
1
 90
1
176
1
 90
6
176
1
 90
2
176
1
 62
7
176
1
 90
5
176
1
 90
0
176
1
 90
0
176
1
290
0
176
1
 90
13
176
1
 40
0.0
176
1
 90
0
176
1
290
0
176
1
290
1
176
1
290
1
176
1
290
0
176
1
290
0
176
1
290
0
176
1
290
0
176
1
290
0
176
1
290
0
176
1
 90
50
176
1
 40
0.0
176
1
 40
1.0
176
1
 90
0
176
1
 62
18
420
0
176
1
 90
50
176
1
 90
3
176
1
 62
5
420
255
176
1
290
0
176
1
 90
50
176
1
 90
50
176
1
 90
50
176
1
290
0
176
1
 90
50
176
1
 62
256
176
0
 40
1.0
176
0
 90
2
176
1
  1
strokes_ogs.tif
176
1
290
0
176
1
 40
1.0
176
1
 40
1.0
176
1
  0
VISUALSTYLE
  5
F7
102
{ACAD_REACTORS
330
EF
102
}
330
EF
100
AcDbVisualStyle
  2
Hidden
 70
6
177
3
291
0
 70
58
 90
1
176
1
 90
2
176
1
 90
2
176
1
 90
0
176
1
 40
0.6
176
1
 40
30.0
176
1
 62
7
420
16777215
176
1
 90
2
176
1
 90
2
176
1
 62
7
176
1
 62
257
176
1
 90
2
176
1
 90
1
176
1
 40
40.0
176
1
 90
0
176
1
 62
257
176
1
 40
1.0
176
1
 90
1
176
1
 90
6
176
1
 90
2
176
1
 62
7
176
1
 90
3
176
1
 90
0
176
1
 90
0
176
1
290
0
176
1
 90
1
176
1
 40
0.0
176
1
 90
0
176
1
290
0
176
1
290
1
176
1
290
1
176
1
290
0
176
1
290
0
176
1
290
0
176
1
290
0
176
1
290
0
176
1
290
0
176
1
 90
50
176
1
 40
0.0
176
1
 40
1.0
176
1
 90
0
176
1
 62
18
420
0
176
1
 90
50
176
1
 90
3
176
1
 62
5
420
255
176
1
290
0
176
1
 90
50
176
1
 90
50
176
1
 90
50
176
1
290
0
176
1
 90
50
176
1
 62
256
176
0
 40
1.0
176
0
 90
2
176
1
  1
strokes_ogs.tif
176
1
290
0
176
1
 40
1.0
176
1
 40
1.0
176
1
  0
VISUALSTYLE
  5
1E4
102
{ACAD_REACTORS
330
EF
102
}
330
EF
100
AcDbVisualStyle
  2
JitterOff
 70
20
177
3
291
1
 70
58
 90
2
176
0
 90
2
176
0
 90
0
176
0
 90
0
176
0
 40
0.6
176
0
 40
30.0
176
0
 62
7
420
16777215
176
0
 90
1
176
0
 90
4
176
0
 62
7
176
0
 62
257
176
0
 90
1
176
0
 90
1
176
0
 40
1.0
176
0
 90
10
176
2
 62
7
176
0
 40
1.0
176
0
 90
1
176
0
 90
6
176
0
 90
2
176
0
 62
7
176
0
 90
5
176
0
 90
0
176
0
 90
0
176
0
290
0
176
0
 90
1
176
0
 40
0.0
176
0
 90
0
176
0
290
0
176
1
290
1
176
1
290
1
176
1
290
0
176
1
290
0
176
1
290
0
176
1
290
0
176
1
290
0
176
1
290
0
176
1
 90
50
176
1
 40
0.0
176
1
 40
1.0
176
1
 90
0
176
1
 62
18
420
0
176
1
 90
50
176
1
 90
3
176
1
 62
5
420
255
176
1
290
0
176
1
 90
50
176
1
 90
50
176
1
 90
50
176
1
290
0
176
1
 90
50
176
1
 62
256
176
0
 40
1.0
176
0
 90
2
176
1
  1
strokes_ogs.tif
176
1
290
0
176
1
 40
1.0
176
1
 40
1.0
176
1
  0
VISUALSTYLE
  5
FD
102
{ACAD_REACTORS
330
EF
102
}
330
EF
100
AcDbVisualStyle
  2
Linepattern
 70
14
177
3
291
1
 70
58
 90
2
176
1
 90
2
176
1
 90
1
176
1
 90
0
176
1
 40
0.6
176
1
 40
30.0
176
1
 62
7
420
16777215
176
1
 90
1
176
1
 90
4
176
1
 62
7
176
1
 62
257
176
1
 90
7
176
1
 90
7
176
1
 40
1.0
176
1
 90
8
176
1
 62
7
176
1
 40
1.0
176
1
 90
1
176
1
 90
6
176
1
 90
2
176
1
 62
7
176
1
 90
5
176
1
 90
0
176
1
 90
0
176
1
290
0
176
1
 90
1
176
1
 40
0.0
176
1
 90
0
176
1
290
0
176
1
290
1
176
1
290
1
176
1
290
0
176
1
290
0
176
1
290
0
176
1
290
0
176
1
290
0
176
1
290
0
176
1
 90
50
176
1
 40
0.0
176
1
 40
1.0
176
1
 90
0
176
1
 62
18
420
0
176
1
 90
50
176
1
 90
3
176
1
 62
5
420
255
176
1
290
0
176
1
 90
50
176
1
 90
50
176
1
 90
50
176
1
290
0
176
1
 90
50
176
1
 62
256
176
0
 40
1.0
176
0
 90
2
176
1
  1
strokes_ogs.tif
176
1
290
0
176
1
 40
1.0
176
1
 40
1.0
176
1
  0
VISUALSTYLE
  5
1E5
102
{ACAD_REACTORS
330
EF
102
}
330
EF
100
AcDbVisualStyle
  2
OverhangOff
 70
21
177
3
291
1
 70
58
 90
2
176
0
 90
2
176
0
 90
0
176
0
 90
0
176
0
 40
0.6
176
0
 40
30.0
176
0
 62
7
420
16777215
176
0
 90
1
176
0
 90
4
176
0
 62
7
176
0
 62
257
176
0
 90
1
176
0
 90
1
176
0
 40
1.0
176
0
 90
9
176
2
 62
7
176
0
 40
1.0
176
0
 90
1
176
0
 90
6
176
0
 90
2
176
0
 62
7
176
0
 90
5
176
0
 90
0
176
0
 90
0
176
0
290
0
176
0
 90
1
176
0
 40
0.0
176
0
 90
0
176
0
290
0
176
1
290
1
176
1
290
1
176
1
290
0
176
1
290
0
176
1
290
0
176
1
290
0
176
1
290
0
176
1
290
0
176
1
 90
50
176
1
 40
0.0
176
1
 40
1.0
176
1
 90
0
176
1
 62
18
420
0
176
1
 90
50
176
1
 90
3
176
1
 62
5
420
255
176
1
290
0
176
1
 90
50
176
1
 90
50
176
1
 90
50
176
1
290
0
176
1
 90
50
176
1
 62
256
176
0
 40
1.0
176
0
 90
2
176
1
  1
strokes_ogs.tif
176
1
290
0
176
1
 40
1.0
176
1
 40
1.0
176
1
  0
VISUALSTYLE
  5
F9
102
{ACAD_REACTORS
330
EF
102
}
330
EF
100
AcDbVisualStyle
  2
Realistic
 70
8
177
3
291
0
 70
58
 90
2
176
1
 90
3
176
1
 90
0
176
1
 90
2
176
1
 40
0.6
176
1
 40
30.0
176
1
 62
7
420
16777215
176
1
 90
0
176
1
 90
0
176
1
 62
7
176
1
 62
257
176
1
 90
1
176
1
 90
1
176
1
 40
1.0
176
1
 90
8
176
1
 62
257
176
1
 40
1.0
176
1
 90
1
176
1
 90
6
176
1
 90
2
176
1
 62
7
176
1
 90
3
176
1
 90
0
176
1
 90
0
176
1
290
0
176
1
 90
13
176
1
 40
0.0
176
1
 90
0
176
1
290
0
176
1
290
1
176
1
290
1
176
1
290
0
176
1
290
0
176
1
290
0
176
1
290
0
176
1
290
0
176
1
290
0
176
1
 90
50
176
1
 40
0.0
176
1
 40
1.0
176
1
 90
0
176
1
 62
18
420
0
176
1
 90
50
176
1
 90
3
176
1
 62
5
420
255
176
1
290
0
176
1
 90
50
176
1
 90
50
176
1
 90
50
176
1
290
0
176
1
 90
50
176
1
 62
256
176
0
 40
1.0
176
0
 90
2
176
1
  1
strokes_ogs.tif
176
1
290
0
176
1
 40
1.0
176
1
 40
1.0
176
1
  0
VISUALSTYLE
  5
1F3
102
{ACAD_REACTORS
330
EF
102
}
330
EF
100
AcDbVisualStyle
  2
Shaded
 70
27
177
3
291
0
 70
58
 90
2
176
1
 90
2
176
1
 90
1
176
1
 90
2
176
1
 40
0.6
176
1
 40
30.0
176
1
 62
7
420
16777215
176
1
 90
0
176
1
 90
4
176
1
 62
7
176
1
 62
257
176
1
 90
1
176
1
 90
1
176
1
 40
1.0
176
1
 90
8
176
1
 62
257
176
1
 40
1.0
176
1
 90
1
176
1
 90
6
176
1
 90
2
176
1
 62
8
420
7895160
176
1
 90
3
176
1
 90
0
176
1
 90
0
176
1
290
0
176
1
 90
5
176
1
 40
0.0
176
1
 90
0
176
1
290
0
176
1
290
1
176
1
290
1
176
1
290
0
176
1
290
0
176
1
290
0
176
1
290
0
176
1
290
0
176
1
290
0
176
1
 90
50
176
1
 40
0.0
176
1
 40
1.0
176
1
 90
0
176
1
 62
18
420
0
176
1
 90
50
176
1
 90
3
176
1
 62
5
420
255
176
1
290
0
176
1
 90
50
176
1
 90
50
176
1
 90
50
176
1
290
0
176
1
 90
50
176
1
 62
256
176
0
 40
1.0
176
0
 90
2
176
1
  1
strokes_ogs.tif
176
1
290
0
176
1
 40
1.0
176
1
 40
1.0
176
1
  0
VISUALSTYLE
  5
1F2
102
{ACAD_REACTORS
330
EF
102
}
330
EF
100
AcDbVisualStyle
  2
Shaded with edges
 70
26
177
3
291
0
 70
58
 90
2
176
1
 90
2
176
1
 90
1
176
1
 90
2
176
1
 40
0.6
176
1
 40
30.0
176
1
 62
7
420
16777215
176
1
 90
1
176
1
 90
2
176
1
 62
7
176
1
 62
257
176
1
 90
2
176
1
 90
1
176
1
 40
1.0
176
1
 90
8
176
1
 62
257
176
1
 40
1.0
176
1
 90
1
176
1
 90
6
176
1
 90
2
176
1
 62
7
176
1
 90
3
176
1
 90
0
176
1
 90
0
176
1
290
0
176
1
 90
5
176
1
 40
0.0
176
1
 90
0
176
1
290
0
176
1
290
1
176
1
290
1
176
1
290
0
176
1
290
0
176
1
290
0
176
1
290
0
176
1
290
0
176
1
290
0
176
1
 90
50
176
1
 40
0.0
176
1
 40
1.0
176
1
 90
0
176
1
 62
18
420
0
176
1
 90
50
176
1
 90
3
176
1
 62
5
420
255
176
1
290
0
176
1
 90
50
176
1
 90
50
176
1
 90
50
176
1
290
0
176
1
 90
50
176
1
 62
256
176
0
 40
1.0
176
0
 90
2
176
1
  1
strokes_ogs.tif
176
1
290
0
176
1
 40
1.0
176
1
 40
1.0
176
1
  0
VISUALSTYLE
  5
1EF
102
{ACAD_REACTORS
330
EF
102
}
330
EF
100
AcDbVisualStyle
  2
Shades of Gray
 70
23
177
3
291
0
 70
58
 90
2
176
1
 90
2
176
1
 90
3
176
1
 90
0
176
1
 40
0.6
176
1
 40
30.0
176
1
 62
7
420
16777215
176
1
 90
2
176
1
 90
2
176
1
 62
7
176
1
 62
7
176
1
 90
1
176
1
 90
1
176
1
 40
40.0
176
1
 90
8
176
1
 62
7
176
1
 40
1.0
176
1
 90
1
176
1
 90
6
176
1
 90
2
176
1
 62
7
176
1
 90
3
176
1
 90
0
176
1
 90
0
176
1
290
0
176
1
 90
1
176
1
 40
0.0
176
1
 90
0
176
1
290
0
176
1
290
1
176
1
290
1
176
1
290
0
176
1
290
0
176
1
290
0
176
1
290
0
176
1
290
0
176
1
290
0
176
1
 90
50
176
1
 40
0.0
176
1
 40
1.0
176
1
 90
0
176
1
 62
18
420
0
176
1
 90
50
176
1
 90
3
176
1
 62
5
420
255
176
1
290
0
176
1
 90
50
176
1
 90
50
176
1
 90
50
176
1
290
0
176
1
 90
50
176
1
 62
256
176
0
 40
1.0
176
0
 90
2
176
1
  1
strokes_ogs.tif
176
1
290
0
176
1
 40
1.0
176
1
 40
1.0
176
1
  0
VISUALSTYLE
  5
1F0
102
{ACAD_REACTORS
330
EF
102
}
330
EF
100
AcDbVisualStyle
  2
Sketchy
 70
24
177
3
291
0
 70
58
 90
1
176
1
 90
2
176
1
 90
2
176
1
 90
0
176
1
 40
0.6
176
1
 40
30.0
176
1
 62
7
420
16777215
176
1
 90
2
176
1
 90
2
176
1
 62
7
176
1
 62
7
176
1
 90
1
176
1
 90
1
176
1
 40
40.0
176
1
 90
11
176
1
 62
7
176
1
 40
1.0
176
1
 90
1
176
1
 90
6
176
1
 90
2
176
1
 62
7
176
1
 90
6
176
1
 90
0
176
1
 90
0
176
1
290
0
176
1
 90
1
176
1
 40
0.0
176
1
 90
0
176
1
290
0
176
1
290
1
176
1
290
1
176
1
290
0
176
1
290
0
176
1
290
0
176
1
290
0
176
1
290
0
176
1
290
0
176
1
 90
50
176
1
 40
0.0
176
1
 40
1.0
176
1
 90
0
176
1
 62
18
420
0
176
1
 90
50
176
1
 90
3
176
1
 62
5
420
255
176
1
290
0
176
1
 90
50
176
1
 90
50
176
1
 90
50
176
1
290
0
176
1
 90
50
176
1
 62
256
176
0
 40
1.0
176
0
 90
2
176
1
  1
strokes_ogs.tif
176
1
290
0
176
1
 40
1.0
176
1
 40
1.0
176
1
  0
VISUALSTYLE
  5
FC
102
{ACAD_REACTORS
330
EF
102
}
330
EF
100
AcDbVisualStyle
  2
Thicken
 70
13
177
3
291
1
 70
58
 90
2
176
1
 90
2
176
1
 90
1
176
1
 90
0
176
1
 40
0.6
176
1
 40
30.0
176
1
 62
7
420
16777215
176
1
 90
1
176
1
 90
4
176
1
 62
7
176
1
 62
257
176
1
 90
1
176
1
 90
1
176
1
 40
1.0
176
1
 90
12
176
1
 62
7
176
1
 40
1.0
176
1
 90
1
176
1
 90
6
176
1
 90
2
176
1
 62
7
176
1
 90
5
176
1
 90
0
176
1
 90
0
176
1
290
0
176
1
 90
1
176
1
 40
0.0
176
1
 90
0
176
1
290
0
176
1
290
1
176
1
290
1
176
1
290
0
176
1
290
0
176
1
290
0
176
1
290
0
176
1
290
0
176
1
290
0
176
1
 90
50
176
1
 40
0.0
176
1
 40
1.0
176
1
 90
0
176
1
 62
18
420
0
176
1
 90
50
176
1
 90
3
176
1
 62
5
420
255
176
1
290
0
176
1
 90
50
176
1
 90
50
176
1
 90
50
176
1
290
0
176
1
 90
50
176
1
 62
256
176
0
 40
1.0
176
0
 90
2
176
1
  1
strokes_ogs.tif
176
1
290
0
176
1
 40
1.0
176
1
 40
1.0
176
1
  0
VISUALSTYLE
  5
F6
102
{ACAD_REACTORS
330
EF
102
}
330
EF
100
AcDbVisualStyle
  2
Wireframe
 70
5
177
3
291
0
 70
58
 90
0
176
1
 90
2
176
1
 90
0
176
1
 90
0
176
1
 40
0.6
176
1
 40
30.0
176
1
 62
7
420
16777215
176
1
 90
1
176
1
 90
4
176
1
 62
7
176
1
 62
257
176
1
 90
1
176
1
 90
1
176
1
 40
1.0
176
1
 90
0
176
1
 62
257
176
1
 40
1.0
176
1
 90
1
176
1
 90
6
176
1
 90
2
176
1
 62
7
176
1
 90
3
176
1
 90
0
176
1
 90
0
176
1
290
0
176
1
 90
1
176
1
 40
0.0
176
1
 90
0
176
1
290
0
176
1
290
1
176
1
290
1
176
1
290
0
176
1
290
0
176
1
290
0
176
1
290
0
176
1
290
0
176
1
290
0
176
1
 90
50
176
1
 40
0.0
176
1
 40
1.0
176
1
 90
0
176
1
 62
18
420
0
176
1
 90
50
176
1
 90
3
176
1
 62
5
420
255
176
1
290
0
176
1
 90
50
176
1
 90
50
176
1
 90
50
176
1
290
0
176
1
 90
50
176
1
 62
256
176
0
 40
1.0
176
0
 90
2
176
1
  1
strokes_ogs.tif
176
1
290
0
176
1
 40
1.0
176
1
 40
1.0
176
1
  0
VISUALSTYLE
  5
1F1
102
{ACAD_REACTORS
330
EF
102
}
330
EF
100
AcDbVisualStyle
  2
X-Ray
 70
25
177
3
291
0
 70
58
 90
2
176
1
 90
2
176
1
 90
1
176
1
 90
1
176
1
 40
0.5
176
1
 40
30.0
176
1
 62
7
420
16777215
176
1
 90
1
176
1
 90
0
176
1
 62
7
176
1
 62
257
176
1
 90
1
176
1
 90
1
176
1
 40
1.0
176
1
 90
8
176
1
 62
7
176
1
 40
1.0
176
1
 90
1
176
1
 90
6
176
1
 90
2
176
1
 62
7
176
1
 90
3
176
1
 90
0
176
1
 90
0
176
1
290
0
176
1
 90
13
176
1
 40
0.0
176
1
 90
0
176
1
290
0
176
1
290
1
176
1
290
1
176
1
290
0
176
1
290
0
176
1
290
0
176
1
290
0
176
1
290
0
176
1
290
0
176
1
 90
50
176
1
 40
0.0
176
1
 40
1.0
176
1
 90
0
176
1
 62
18
420
0
176
1
 90
50
176
1
 90
3
176
1
 62
5
420
255
176
1
290
0
176
1
 90
50
176
1
 90
50
176
1
 90
50
176
1
290
0
176
1
 90
50
176
1
 62
256
176
0
 40
1.0
176
0
 90
2
176
1
  1
strokes_ogs.tif
176
1
290
0
176
1
 40
1.0
176
1
 40
1.0
176
1
  0
DICTIONARYVAR
  5
146
102
{ACAD_REACTORS
330
5E
102
}
330
5E
100
DictionaryVariables
280
0
  1
1:1
  0
DICTIONARYVAR
  5
259
102
{ACAD_REACTORS
330
5E
102
}
330
5E
100
DictionaryVariables
280
0
  1
3.500000
  0
DICTIONARYVAR
  5
25A
102
{ACAD_REACTORS
330
5E
102
}
330
5E
100
DictionaryVariables
280
0
  1
acadiso.lin
  0
DICTIONARYVAR
  5
145
102
{ACAD_REACTORS
330
5E
102
}
330
5E
100
DictionaryVariables
280
0
  1
Standard
  0
DICTIONARYVAR
  5
84
102
{ACAD_REACTORS
330
5E
102
}
330
5E
100
DictionaryVariables
280
0
  1
Standard
  0
DICTIONARYVAR
  5
227
102
{ACAD_REACTORS
330
5E
102
}
330
5E
100
DictionaryVariables
280
0
  1
Metric50
  0
DICTIONARYVAR
  5
228
102
{ACAD_REACTORS
330
5E
102
}
330
5E
100
DictionaryVariables
280
0
  1
Metric50
  0
DICTIONARYVAR
  5
5F
102
{ACAD_REACTORS
330
5E
102
}
330
5E
100
DictionaryVariables
280
0
  1
2
  0
DICTIONARYVAR
  5
63
102
{ACAD_REACTORS
330
5E
102
}
330
5E
100
DictionaryVariables
280
0
  1
1
  0
DICTIONARYVAR
  5
1AE
102
{ACAD_REACTORS
330
5E
102
}
330
5E
100
DictionaryVariables
280
0
  1
0
  0
DICTIONARYVAR
  5
1AF
102
{ACAD_REACTORS
330
5E
102
}
330
5E
100
DictionaryVariables
280
0
  1
0
  0
ACAD_PROXY_OBJECT
  5
4D9
102
{ACAD_REACTORS
330
4D8
102
}
330
4D8
100
AcDbProxyObject
 90
499
 91
518
 71
33
 97
377
 70
0
161
59
310
40A406AAA40501C0
330
4DB
360
0
360
4DC
 94
0
  0
DICTIONARY
  5
205
330
22
100
AcDbDictionary
280
1
281
1
  0
DICTIONARY
  5
1F9
330
ED
100
AcDbDictionary
280
1
281
1
  3
FBXASSET
360
1FA
  0
DICTIONARY
  5
1F7
330
EC
100
AcDbDictionary
280
1
281
1
  3
FBXASSET
360
1F8
  0
DICTIONARY
  5
173
330
EE
100
AcDbDictionary
280
1
281
1
  3
FBXASSET
360
1FB
  0
DICTIONARY
  5
898
330
7F
100
AcDbDictionary
280
1
281
1
  3
ACAD_ROUNDTRIP_2008_TABLESTYLE_CELLSTYLEMAP
360
899
  0
ACAD_PROXY_OBJECT
  5
4DC
330
4D9
100
AcDbProxyObject
 90
499
 91
519
 71
33
 97
377
 70
0
162
1640
311
46104018C010C01BC01B801CC01D001C8018401A401B801940190010801BC01D401B8019001940190013001A401B80194011A4100630043006F006E00730074007200610069006E006500640049006D0070006C00690063006900740050006F0069006E00740045904018C014001BC01A401B801D0010C01D401C801D80194
311
010C01BC01B801CC01D001C8018401A401B801D0011C4100630050006F0069006E00740043006F0069006E0063006900640065006E006300650043006F006E00730074007200610069006E007400
161
2986
310
40A40504AA90254D4C81A354411112028310241C81A10409092068510143C8122040D112048910344C82228405152048B10345C8123040D192088D20C812108500C543B0D24F6FB48A013533333332E2E2814000000000000785FC2A1D86927B7DA45009A999999997171408A8761A49EDF6914026A66666666E5590241D02
310
4211401800FFFFFFFF419084090741802D094050A01804FFFFFFFF4190A4090941802D0F4091144C062A1D86927B7DA45009A999999997171409A150EC3493DBED22804D4CCCCCCCB8B8A04543B0D24F689492013533333332E2E281220812228A00C007FFFFFFFA1E88A048821E0168920489A3403009FFFFFFFE87A26812
310
2487805A288120E88004A2A8122E8C80C543B0D24F689492013533333332E2E2814000000000000785FC2A1D86927B44A49009A999999997171408A8761A49ED12924027266666666E559024590245D1A01800FFFFFFFF455174091645402D184051901804FFFFFFFF455194091845402D1A409124580240
330
4D9
360
0
360
0
360
4DF
360
4DE
360
4E0
330
4DE
330
0
330
0
330
4DF
330
0
330
0
330
4E0
330
0
330
0
 94
0
  0
XRECORD
  5
1FA
102
{ACAD_REACTORS
330
1F9
102
}
330
1F9
100
AcDbXrecord
280
1
 70
1
 90
429727718
  1
D62C5603-E3A1-4AEA-B7FB-FE5D8D0755AF
310
504B03040A0000080000CC70623B3DEE336E79000000790000001B0000006175746F6465736B2D64657369676E2D7061636B6167652E786D6C3C3F786D6C2076657273696F6E3D22312E302220656E636F64696E673D227574662D3822203F3E3C666F726D6174733E3C666F726D61743E687474703A2F2F736368656D612E
310
6175746F6465736B2E636F6D2F64657369676E2D7061636B6167652F323030393C2F666F726D61743E3C2F666F726D6174733E504B0304140006080800CC70623BD486FD9CA0000000F4000000130000005B436F6E74656E745F54797065735D2E786D6C7D8EC10E82300C865F65E91D8A1E8C310C0EEA1BF002731658846E
310
D98AC1B77784ABF1D8FE5FBFBF75BBCE937A534CCEB38643598122B6FEE978D0B0485F9C41B54DDD7D022595594E1A469170414C76A4D9A4D207E29CF43ECE46F218070CC6BECC4078ACAA135ACF422C856C0E68EA1BF5669944DDD7BCDE7B1F8E415D77AECB980613C2E4AC91FC167A2B244592486606FC29C8FD7F045B9A
310
EF7053A7E60B504B0304140006080800CC70623B853B8169EB0000007C01000008000000636F72652E786D6C8D90416EC3201045AF62CDB6C206821CC7C244919D9CA01740401C94182C03558F5F9C3852BBEB6A467FFE9B197D7EFC9E1EC5975982F5AE035262288C535E5B377690E21535501C055FBC8FBF6C503839990E
310
5619041F179FE64D52DE45E362569DD7661365082642A11EB9E920A89B99642953CC8E702F67A9EE7234257977194EC9EAE275C4EABCCF5EAD5940D4AC6F0E35A568B8F43562CD7046CD199FD07E60174276A7BE677B5EADB0E0D14EEFFB6A31321A0D82627C4084204C3F096B71DD52F6819B16635EADF63F509AF53FA164
310
5DDCD1EDDD17164090FCC8732078B56691CB33A85CD7DCC40F504B0304140006080800CC70623B55019EA25F0000007C00000007000000636E782E786D6C4DCB3B0E80201045D1AD90E915ED2CF8AC45050C11660C8261F98AB1B07AC9C97D42D718D865D3E909258CFD00CCE24AC6E326A164D74DC0B4128928FF32603847
310
2BA13128B1252AC747C6BAB984FC68F0B87FE8960A5C09FE86CFB69FBA01504B0304140006080800CC70623BDBABAAF470010000D40300000C0000006662782F636F72652E786D6CC553D16E823014FD95A6AF4B694182CC941A83FA05FB810A9511A125A5257EFE2E82712ECEB8A7F100CD39F7F69E734AF9FADC366850B6
310
AF8DCE7018308C942E4C59EB2AC3DE1D498AD15A706B8CFB56869196ADCAF00863C12B6B7C374385D14E6907A836A59A41D9F7CA615434B0C8705F7CAA5606D23BA8E84F41278B93AC54100640439DE0BDB320004D43C63716C7C399D30917DCFBBA9CD9BA8469F5B156168B24CED3F7248AC8769F27244EB73B92EED8862C
310
B7F13E0C179B3C8F979C8ECD82BBBABDAA2BAC924E9558448CBD9330242CFA08E3154B5651FCC6D215639C8EE5774DBE2B5F6CF2B5768B68963BB5F5588420E442FC700B1139D4CB01F450C1E918227C2E09DF070D8140C84E1E9AAB8F1340832A9CB13130A5F1376A908D57309505ECF2A0DF179C4E9D30F5B239B87E3823
310
7A79C6F31DE1A8A5AEC08474B03C7837EAE4938639B44E5932B833D2C6B6B279CDC613877FA26EE21F4A2A4C63EC7F29A2F301D1F9F7A0E37D145F504B0304140006080800CC70623B9C113CC27E0000009D0000000B0000006662782F636E782E786D6C4DCCDF0A83201C86E15B91DFB94BFB330DD428C8FB886521330DA7
310
6397BF1A1DECE883878F57749FCDA1B7892F1BBC047A23808C7F84D9FA55424E0BE6803A256208E9EF06C84F9B91703228B1C690F78B66B34CD9A5439DF5CF0BFBF65E35BCA1B8D6A5C6F540381E886698B5741C695F9503EBA150A2F8958E3DC3EA0B504B0304140006080800CC70623B7DF2F77C2A010000120200003100
310
00006662782F41393633353835312D344632462D344230382D423046372D3739314545314133324237412F636F72652E786D6C8D51DB8EC22014FC15C2939B0D2DB4B45643319AE817EC0F6041255A68B86CFCFC856D4D76DF7CE190393373060EDB3DC707F856CE6B6B7A480A0C81328395DA5C7B18C3057510EC3873D686
310
3F34088C18550F330C39BB3A1BA7051AAC09CA84841A2BD5020AEF55806078A44B0FFD7053A328440C89E1EFC52486BBB8AA8214A99D789CF9E05200300FC927E4FB4D5B375D43103D5527440FB843077C5AA3F5861C8F645F5787F59E95B390B318B55CE45AA638FAA2957BD7248B390B7A7CC51F9C124149C82B8C378810
310
84AB2F42B7B8DD56F413775B8C5999E9FF4471926F8AA236A1AE96B8B3CC434E5839373893369E1FAF30EA395917409EB7F26AF8801C171837A4A6AC9C89E9F9C9B1A58BA30FD6A5EF5DDDCF894B9AD9B6A59C957943A9FCAE2FD5BC4DFE03504B0304140006080800CC70623BAD7543B64E01000033030000300000006662
310
782F41393633353835312D344632462D344230382D423046372D3739314545314133324237412F636E782E786D6CD593CD6EC32010845F0571AD6CE3D48AD20813A9873E410FBD12D82434182C7EAAE6EDBB2424CD25871E7B41D6EC30B3FA84F9E67BB2E40B4234DE8DB46F1925E094D7C6ED479AD3AE5951B2113C789FEE
310
6C943839C1488B4C05DF079FE72A69D8C96C13AAD6B8631503449F83828872B949AC57D26200B826A308D316B4064D6E46FCDA41C05550DC9E483A00797BFD207EFB092A45DE9514C1BBD22178396BD39D891265658C238DEA00936C654E5E433CB65A26D9F6EDB5EBC14EBF49A45CB856E66048291F6939A9A81BB5C89177
310
38143CA680F4AA299D66A042CEB3354A2684DC9D8D178FE0D9B8B41CAAD720F880EE7EF93C0C18769E099ECC04D5A102C8049A8A05632F4DDF376CF1DE0F6BB65C2F8627B65A33C6BB62177CEBBDAD973006829F89F22E814B54F4BC2BE347F8AA8F681390B50FA73F804400B5F542E796F19FF974E7F78DB802FE05E20750
310
4B0304140006080800CC70623BE75B7789680500003C100000340000006662782F41393633353835312D344632462D344230382D423046372D3739314545314133324237412F6F626A656374732E786D6CAD575B8F9B3818FD2B887D06C22499CB8AA1CA655245D5B455A356FB305264C061D8018C6C3393D95FBFC7600890
310
A4CD5EF210B0B1BFEBF98E3F7B1FF6596ABC522E1296DF9BAE3D320D9A872C4AF2F8DE2CE5CEBA358D0FBEC719939D65A691938CDE9B6ADAF4BD98B3B2D05311DD91329583D9D5FC0F438434A7A611A644887B5384CF34233629258BA878B12322891DEFF6B66BD70BFB62634E8AE781D082709A4B588AF91C528CDA28B73F
310
1C998EEF39EABBEFA97FBD6A7C7E9553F9D3D79FE442923C3C523610337627CB87ABE99D359D4CC6D6E4FACAB5E6ABF9D2726FC6A3C5F56271377BB88362213924694B38DD99FE47C48627A1E7D49F5A8BB5E1A74C0A599ED3B0F21F1E56366B89112D681E218F0915D0D6F17AD41FBA2A369DCF6335D62ABBD39779D5DDD1
310
11D4D8DE3CBB96B2E04FB8202E41051754A1AA8E8F76B4C6DFE810B580B1547F4B84911149794252234D024EF8BBE963A95AE27B3D310A9D5C215C7960FAEE415ED75694C6AFB17BCACA5D99A60A9AA65F217B0BFC53292ACB92BF283FAD0D3621576592CB5BED907C2FA8E9DF794E35E97BEA31BED21FEB401ABB94C44839
310
DCACBF0E1C5DA8DA5B2F4DFFD32AD86F543D9E565E7056502E157C00AD2671CD534549AB752FCA9CDA00677A313F04E51B22FF19E57B300579E3C97EB29F682D92935CEC18CF901B7B54FD8C51F362B56FC72FE0B3C1EAE335EDCCBF5AEC39ADB17DC238973F804BA5E6F6BFE7AF1FB32E523BE9F3BD571418E3631DCA4D48
310
5250CF639223210A9446CA30052EDF057BD35F8329C1ECD84552BF0DC8D18BE7BCE23BFE6BD960AB4A7DE79923A103BEBD80F911CBAA2C60DB19B01CF164A5583B772EE6D3FFA56666CBCDA74DC97724A48F9A58967497E489C4D979006FD7A05E227A1EBDD0F737C623387A9C844D3709995625106D157315F8B8392CD4E0
310
A0B9A720C4BE9829CEF37EA1E13111214D53925356365ADA634861B52519DD27A00AEB808EAF0628E6F435519D446F45CF2C9CF5214F0A15B2F6D06B79DA3EE3CBF7F56780D2F4E7EF73A0F5E5B02A38D07DC852C6B7C1FBB6664213E0C39E3EBA7FF4E1AD23EA2829407C85E586727488B751B2DB9502BC7B228A3FD68B6E
310
A65A22397E690AA8D158D7E404EC8CDA235CC3B7D1898680131CEC2CDF2638C65196279577750F15884AEE19F94199155B92B13297978469D4F8D358DF0AEF7631E28DC8F0D9F437D5D39A83B2231A1D52D543813A824EF8D44BCFF2FA6A31BD1E8DAD87F1CCB526B3879935BF59CDADD5C37479BB1CDD4CA7B3556B516589
310
EF352754B706114D9C885EC9131DE6EFEB43D99AFE2391C2F958179413D7CFEF6B1B6DB1E7600F00DE6E5C67454A339A4BA2E0FBA85ED26F045D454F463DBFCE484C2F90F2E5E3666003662ED8F755951A7D1BECD5B30B550B2785C8E7320B7292A4838DDA71BBC863ED7613CAF659337A3354231D4FF4A182A54904C2898C
310
98B28C4AD0CE056CCF332A80986E571EE9DBC305BB5FEB7E509220A58D25CF042D712A806AC0AD0C657FDEF80D2D9CEAA2EE4D1C76F60BFE74219A06527D6F82DF6412526107381E55E353090704D085B52408A8913C4ED159D79BDA71BB4BC506F4831350EB6F975CD22D69BF7AC49B91A2C0A9DDA3D5CA36AD20FC478E37
310
E61844E2352865EBCB61A275A65283CAAA9DD27703B4102F5AF51EF5F573B75CBB5AD38BC845F7A49F82A0966A49C2E3EA5EA0ECD326CD965F1DB402C6FA8B51A4658C5C5E2EC9E214602E55810345408596591009A82E7E7FFACA19EEA299B14A0081A705CB3296EBC14CDF658DCD336EA6D1136881AAEB87B81AB9EE53D5
310
F5EB8BC8362082DA24122F98680A4E7930C01A0079749CEA14382A0783E5EBA5A10F8C098456A03D6A4AEB6BB881E2513747552A5DB22C7EDAF83BD5528081A365F7FF06504B0304140006080000CC70623B000000000000000000000000350000006662782F41393633353835312D344632462D344230382D423046372D37
310
39314545314133324237412F76657274696365732E62696E504B0304140006080800CC70623BF270F1330600000004000000360000006662782F41393633353835312D344632462D344230382D423046372D3739314545314133324237412F747269616E676C65732E62696E636660600000504B0304140006080000CC7062
310
3B000000000000000000000000370000006662782F41393633353835312D344632462D344230382D423046372D3739314545314133324237412F617474726962757465732E62696E504B0304140006080800CC70623B08DA0BD19000000041010000360000006662782F41393633353835312D344632462D344230382D4230
310
46372D3739314545314133324237412F6469726563746F72792E786D6C858F410AC3201045AF22B36F53E9A60B35CBEEBAE80D244E44489C6234F4F835464A48035D0DF398FF9F8AF63D0E6CC63039F212F8F9020C7D47C6792B21C5FE7403D62A1188E2E60C98D7234A5830286103A55745067B9D86B8A3CF9C7F90C11DE6
310
07FB144396D7B6A82D282E9A152AD114D5EF2CB866EEE831B8EEA07A7BB5A8D7D61A2BAAEB7FD5F70921FF497D00504B0304140006080800CC70623BEDD1DC58FD000000A00100003B0000006662782F41393633353835312D344632462D344230382D423046372D3739314545314133324237412F7265736F75726365732F
310
636F72652E786D6C8D504B6E833010BD0A9A6D65B00922041947112427E8052C33A156828DFCA97AFC9A40A576D7CDCCE87D344F8F9FBFE667F689CE6B6B3A6039850C8DB2A336530731DC4903D95970676DF82583CCC8193B5861107C72362E3BA4AC096842428D1D7107A5F7182053CF7474E0D507CE32973124857FE48B
310
540F3961CEF244279DE03EB81420DB9EAC1384436FA353E879B1B182C7A8C75DA3C7F453DF353A1075D537A7BA6464B8F535A99AE14A9A2BBD90E350DD183B5CFABE3AF262350B1EF4FC9351399401471025A527C218A1E53BAB5A5AB765F5469B96525EACF23FA6B88CFF34456DC2A1DCE36E360F82A5202F42F062ED2BAD
310
579969AFDD8A6F504B010214000A0000080000CC70623B3DEE336E79000000790000001B00000000000000000000000000000000006175746F6465736B2D64657369676E2D7061636B6167652E786D6C504B01021400140006080800CC70623BD486FD9CA0000000F40000001300000000000000000000000000B20000005B
310
436F6E74656E745F54797065735D2E786D6C504B01021400140006080800CC70623B853B8169EB0000007C010000080000000000000000000000000083010000636F72652E786D6C504B01021400140006080800CC70623B55019EA25F0000007C000000070000000000000000000000000094020000636E782E786D6C504B
310
01021400140006080800CC70623BDBABAAF470010000D40300000C00000000000000000000000000180300006662782F636F72652E786D6C504B01021400140006080800CC70623B9C113CC27E0000009D0000000B00000000000000000000000000B20400006662782F636E782E786D6C504B01021400140006080800CC70
310
623B7DF2F77C2A010000120200003100000000000000000000000000590500006662782F41393633353835312D344632462D344230382D423046372D3739314545314133324237412F636F72652E786D6C504B01021400140006080800CC70623BAD7543B64E010000330300003000000000000000000000000000D2060000
310
6662782F41393633353835312D344632462D344230382D423046372D3739314545314133324237412F636E782E786D6C504B01021400140006080800CC70623BE75B7789680500003C10000034000000000000000000000000006E0800006662782F41393633353835312D344632462D344230382D423046372D3739314545
310
314133324237412F6F626A656374732E786D6C504B01021400140006080000CC70623B0000000000000000000000003500000000000000000000000000280E00006662782F41393633353835312D344632462D344230382D423046372D3739314545314133324237412F76657274696365732E62696E504B01021400140006
310
080800CC70623BF270F133060000000400000036000000000000000000000000007B0E00006662782F41393633353835312D344632462D344230382D423046372D3739314545314133324237412F747269616E676C65732E62696E504B01021400140006080000CC70623B0000000000000000000000003700000000000000
310
000000000000D50E00006662782F41393633353835312D344632462D344230382D423046372D3739314545314133324237412F617474726962757465732E62696E504B01021400140006080800CC70623B08DA0BD1900000004101000036000000000000000000000000002A0F00006662782F41393633353835312D344632
310
462D344230382D423046372D3739314545314133324237412F6469726563746F72792E786D6C504B01021400140006080800CC70623BEDD1DC58FD000000A00100003B000000000000000000000000000E1000006662782F41393633353835312D344632462D344230382D423046372D3739314545314133324237412F7265
310
736F75726365732F636F72652E786D6C504B0506000000000E000E0080040000641100000000
  0
XRECORD
  5
1F8
102
{ACAD_REACTORS
330
1F7
102
}
330
1F7
100
AcDbXrecord
280
1
 70
1
 90
429727718
  1
30362254-06B7-45E0-A893-8CFA70E3D6BC
310
504B03040A0000080000CC70623B3DEE336E79000000790000001B0000006175746F6465736B2D64657369676E2D7061636B6167652E786D6C3C3F786D6C2076657273696F6E3D22312E302220656E636F64696E673D227574662D3822203F3E3C666F726D6174733E3C666F726D61743E687474703A2F2F736368656D612E
310
6175746F6465736B2E636F6D2F64657369676E2D7061636B6167652F323030393C2F666F726D61743E3C2F666F726D6174733E504B0304140006080800CC70623BD486FD9CA0000000F4000000130000005B436F6E74656E745F54797065735D2E786D6C7D8EC10E82300C865F65E91D8A1E8C310C0EEA1BF002731658846E
310
D98AC1B77784ABF1D8FE5FBFBF75BBCE937A534CCEB38643598122B6FEE978D0B0485F9C41B54DDD7D022595594E1A469170414C76A4D9A4D207E29CF43ECE46F218070CC6BECC4078ACAA135ACF422C856C0E68EA1BF5669944DDD7BCDE7B1F8E415D77AECB980613C2E4AC91FC167A2B244592486606FC29C8FD7F045B9A
310
EF7053A7E60B504B0304140006080800CC70623B1EC5D7A3EB0000007C01000008000000636F72652E786D6C8D90416EC3201045AF82665B6103C6756C6122AB4D4ED00B204C5C94182C03558F5F9C3852BBEB6A467FFE9B197D71FC9E6FE8CBACC17AD7032D0820E3B41FAD9B7A48F1820F808E52ACDEC75F36404ECDA687
310
4D0629A6D5A76597B477D1B89855E747B38B2A041301E95B6E7A08FAD3CCAA50296647B8168BD2573599823EBB0CA76447F43862C7BCCF5EAC59410E4DDD9C7973C2755553CCCFA4C603E3040F1565ED3B1FDE4E432BCA0D9622DAF9795FAF464533826484B498524CD807E51D79ED187F21878E10516EF63F505AC67F42C9
310
BA58B1FDDD071640D2FCC87D2045B96591CB3DA85CB7DCE40F504B0304140006080800CC70623B55019EA25F0000007C00000007000000636E782E786D6C4DCB3B0E80201045D1AD90E915ED2CF8AC45050C11660C8261F98AB1B07AC9C97D42D718D865D3E909258CFD00CCE24AC6E326A164D74DC0B4128928FF32603847
310
2BA13128B1252AC747C6BAB984FC68F0B87FE8960A5C09FE86CFB69FBA01504B0304140006080800CC70623B8C9102E971010000D40300000C0000006662782F636F72652E786D6CC5535B6E833010BC8AE5DF0A6C08340F1947A84D4ED00B38C6A128602363A31CBFCB234A53A551FA553EC09AD9F5CE8C31DB9E9B1AF5CA
310
7695D1198E428A91D2D214952E33ECDD315861B4E5CC1AE3BE9561A445A3323CC098B3D21ADFCE9034DA29ED00D5A6503328BA4E398C640D8B0C77F253352214DE4145770A5B214FA2546114020D759C75CE8200340D19DE981F0F6746269C33EFAB6266AB02A655C74A59CCF365BADC27CB5D902ED22848F6340DF238A141
310
BE88E2F57B92BFEDF23523433367AE6A2EEAA455C2A902F398D2751045018D3FA264435F3771F242571B4A1919CA6F9A7C5B3CD9E42BED16F12C776AEB308F40C848FC700B1139D4891EF410CEC810227CC6846F8386402064270EF5C5C709A05E49676C024C61FC95EA45ED154CA5211D1FF4FB8291A913A68E9B83EBBB33
310
E2A7673CDE118E5AE8124C0807CB8377834E366998436B950D7A7746DAD846D4CFD978E0F04FD455FC5D49D2D4C6FE9722321F10997F0F32DC47FE05504B0304140006080800CC70623BFFEA85907E0000009D0000000B0000006662782F636E782E786D6C4DCCD10A83201886E15B91FFDC95D95A811AB6F23E625948A6C3
310
E9D8E5AF46073BFAE0E1E365ED67B3E8ADC3CB78C7815C7240DA3DFC64DCC221C519D7805AC182F7F1EF06C88D9BE6703008B6049F9E274D7A1E938DBB5AE3D6131B2589BA0D3D965551E0B2EA732C9B9A624AAEB41E3A557677029960D9AFB4EF11165F504B0304140006080800CC70623B4FEEA4082C0100001202000031
310
0000006662782F39464131463745442D413632322D343644302D413938332D3331353338454246344243312F636F72652E786D6C8D515B6EC32010BC0AE2AB55850DD871ED0813254D72825EC00192A2C460F1A872FC42ED48ED5F7E00CDCECCCEB26C731F6FE05B39AFADE921293004CA082BB5B9F43086336A21D870E6AC
310
0D7F68109861543DCC30E4ECE26C9C164858139409093556AA051CBC570102714B8F1E7AF1A5C6A11862480C7F2DA6415C878B2A4891CA89C7990F2E050073937C42DE1DB7E4F87ED8A36D4329AA9B3D46DBAEAD504556557BD81DEBDD0761E52CE42C462D17B996298E3E6BE59E35C962CE821E1FF18553435012728A7187
310
0841987E927A8D9B35ADDF70BBC6989599FE4F1427F9A4286A132ABAC49D651EF234CD5CE04CDA78BA3DC2A8FB645D00B9DF8B57E215725C60BCA2A463E54C4CE327C7A65E1C7DB02E7DEFCBF594B864C5CA6CDBD49C957943E9FA5D5FBAF336F90F504B0304140006080800CC70623BAD7543B64E01000033030000300000
310
006662782F39464131463745442D413632322D343644302D413938332D3331353338454246344243312F636E782E786D6CD593CD6EC32010845F0571AD6CE3D48AD20813A9873E410FBD12D82434182C7EAAE6EDBB2424CD25871E7B41D6EC30B3FA84F9E67BB2E40B4234DE8DB46F1925E094D7C6ED479AD3AE5951B2113C
310
789FEE6C943839C1488B4C05DF079FE72A69D8C96C13AAD6B8631503449F83828872B949AC57D26200B826A308D316B4064D6E46FCDA41C05550DC9E483A00797BFD207EFB092A45DE9514C1BBD22178396BD39D891265658C238DEA00936C654E5E433CB65A26D9F6EDB5EBC14EBF49A45CB856E66048291F6939A9A81BB5
310
C8917738143CA680F4AA299D66A042CEB3354A2684DC9D8D178FE0D9B8B41CAAD720F880EE7EF93C0C18769E099ECC04D5A102C8049A8A05632F4DDF376CF1DE0F6BB65C2F8627B65A33C6BB62177CEBBDAD973006829F89F22E814B54F4BC2BE347F8AA8F681390B50FA73F804400B5F542E796F19FF974E7F78DB802FE05
310
E207504B0304140006080800CC70623B16AB87BA640500003C100000340000006662782F39464131463745442D413632322D343644302D413938332D3331353338454246344243312F6F626A656374732E786D6CAD575B6FA33818FD2B887DE6924B3BED8A326A92B68A663B534DD4D13E548A0C38942D60649B369D5FBFC7
310
600890A493BDE42160637FD7F31D7FF63E6FB3D478A55C242CBF3247B66B1A340F5994E4F19559CA8D75611A9F7D8F33263BCB4C232719BD32D5B4E97B316765A1A722BA21652A07B3B7B33F0D11D29C9A46981221AE4C113ED38CD8A4942CA2E2C58E882476BCD9DA23BB5ED8171B73523C0F841684D35CC252CCE79062D4
310
468DFA43D7747CCF51DF7D4FFDEB5593E3AB9CCA9FBEFE241792E4E19EB28198C968BAB8199F5D5A67D3E9C49A9E8F47D6EC76B6B0469F26EEFC7C3EBFBCBEB98462213924694B38DD98FE1D62C393D073EA4FADC5DAF04326852CCF6958F90F0F2B9BB5C48816348F90C7840A68EB78EDF68723159BCEE7891A6B95DDE9D3
310
BCEAEEE8086A6C6F9E5D4B59F0175C10A7A0820BAA5055C7473B5AE3CFDD452D602CD5DF12616444529E90D448938013FE6EFA58AA96F85E4F8C42275708571E98FE6827AF6B2B4AE3D7D83D64E5A64C53054DD3AF90BD06FEA9149565C94FCA0F6B834DC85599E4F2423B24DF0B6AFA979E534DFA9E7A4CC6FA631D486393
310
921829879BF5D781A373557BCB85E97FB90DB62B558F8795179C15944B051F40AB495CF35451D26A4727654E6D8033BD98EF82F21D91FF8AF2DD9982BCF1643BDD4EB516C9492E368C67C88DED563FC36D5EACF66DFF057C3658BDBFA69DF9578B3DA735B64F18C7F20770A9D45CFCF7FCF563D6456A277DBEF78A02637CA2
310
43B90A490AEAB94F72244481D24819A6C0E59B606BFA4B3025981DBB48EAB701D97BF19C577CC77F2D1B6C55A9EF3C732474C0B727303F625995056C3B02963D9EAC146BE78EC5FCEC7FA999EBC5EACBAAE41B12D27B4D2C0BBA49F244E2ECDC81B76B502F113D8F5EE8FB1BE3111CDD4FC2AA9B844CAB1288B68AB90A7CDC
310
1C166AB0D3DC5310625FCC14E779BFD0709F8890A629C9292B1B2DED31A4B0DA928CEE135085754027E3018A397D4D5427D15BD1330B677DC8934285AC3DF45A9EB68FF8F2B8FC0A509AFEECFD0FF2DE25CC6047F7214B195F07EFEB9A094D800F7BFAE8FED187B78EA8A3A400F115961BCAD1215E47C966530AF0EE8128FE
310
58CEBB996A8964FFA529A046635D9353B0336A8F700DDF46271A024E70B0B37C9DE01847591E54DED53D54202AB947E4076556AC49C6CA5C9E1226B7F1A7B1BE15DEED62C41B91E1B3E9AFAAA735036547343A925075041DF0A9979E893B391F8FCFA6967B3EFB644DCF6E5CEBFAE272625DCC6FAF3FB93793C5F90CE1EF57
310
407342756B10D1C489E8953CD1617E5CEECAD6F4EF8914CE5D5D504E5C3F1F9736DA62CFC11E00BCDDB8CC8A9466349744C1F75EBDA4DF09BA8A9E8C7A7E9991989E20E5DBDD6A6003664ED8F7A04A8DBE0DF6EAD9B9AA858342E47399053949D2C146EDB85DE4B176BB0965FBAC19BD19AA918E27FA50C1D22402E144464C
310
59462568E704B6E71915404CB72B8FF4EDE184DDAF753F284990D2C6926782963815403548A70C657FDEF80D2D9CEAA2AE4C1C76F60BFE74219A06527D6582DF6412526107381E55E353090704D085B52408D0933C4ED159D79BDA71BB4BC506F4831350EB6F979CD22D69BF7AC49B91A2C0A9DDA3D5CA36AD20FC478E37E6
310
1844E2352865EBCB6EA275A652E3836BE04EFB400BF1A2556F515F1FBB35B2AB35BD889C744FFA1004B5544B121E57F70215746DD2F5E2C1412B602CBF19455AC6C8E5E9922C4E01E65215385004546899059180EAFCF7A707CE7017CD8CDB0410789AB32C63B91E5CEBBBACB17AC6CD347A022D5075FD106377347AAABA7E
310
7D11590744509B44E205134DC1290F06580320F78E537D3D73540E06CB970B431F185308AD40BBD794D6D77003C5A36E8EAA54BA64597CD8F83BD552A080A365F7FF06504B0304140006080000CC70623B000000000000000000000000350000006662782F39464131463745442D413632322D343644302D413938332D3331
310
353338454246344243312F76657274696365732E62696E504B0304140006080800CC70623BF270F1330600000004000000360000006662782F39464131463745442D413632322D343644302D413938332D3331353338454246344243312F747269616E676C65732E62696E636660600000504B0304140006080000CC70623B
310
000000000000000000000000370000006662782F39464131463745442D413632322D343644302D413938332D3331353338454246344243312F617474726962757465732E62696E504B0304140006080800CC70623B08DA0BD19000000041010000360000006662782F39464131463745442D413632322D343644302D413938
310
332D3331353338454246344243312F6469726563746F72792E786D6C858F410AC3201045AF22B36F53E9A60B35CBEEBAE80D244E44489C6234F4F835464A48035D0DF398FF9F8AF63D0E6CC63039F212F8F9020C7D47C6792B21C5FE7403D62A1188E2E60C98D7234A5830286103A55745067B9D86B8A3CF9C7F90C11DE607
310
FB144396D7B6A82D282E9A152AD114D5EF2CB866EEE831B8EEA07A7BB5A8D7D61A2BAAEB7FD5F70921FF497D00504B0304140006080800CC70623B0D6EF93BFE000000A00100003B0000006662782F39464131463745442D413632322D343644302D413938332D3331353338454246344243312F7265736F75726365732F63
310
6F72652E786D6C8D50596E833010BD0A9ADFCA60B334011947A8694ED00B586642AC041B79A97AFC9A40A5F6AF3F33A3B7689E1E3F7DCD8FEC139DD7D6F4C0720A191A65476DA61E62B892236427C19DB5E1970C322367EC618541F0C9D9B8EC90B226A009093576C41D94DE63804C3DD2D18357379C652E63480A7FCF17A9
310
EE72C29CE5894E3AC17D702940B63D59270887DE46A7D0F36263058F518FBB468FE9A7BE6A7420864373B8D4873369AA8691FA421B3294352543C5CAF65C0F6FEF43CB8BD52C78D0F34F46E550061C419494B6843142CB0F5677F4B52BEB177AEC28E5C52AFF638ACBF84F53D42654E51E77B379102C05791282176B5F693D
310
CB4C7BED567C03504B010214000A0000080000CC70623B3DEE336E79000000790000001B00000000000000000000000000000000006175746F6465736B2D64657369676E2D7061636B6167652E786D6C504B01021400140006080800CC70623BD486FD9CA0000000F40000001300000000000000000000000000B20000005B
310
436F6E74656E745F54797065735D2E786D6C504B01021400140006080800CC70623B1EC5D7A3EB0000007C010000080000000000000000000000000083010000636F72652E786D6C504B01021400140006080800CC70623B55019EA25F0000007C000000070000000000000000000000000094020000636E782E786D6C504B
310
01021400140006080800CC70623B8C9102E971010000D40300000C00000000000000000000000000180300006662782F636F72652E786D6C504B01021400140006080800CC70623BFFEA85907E0000009D0000000B00000000000000000000000000B30400006662782F636E782E786D6C504B01021400140006080800CC70
310
623B4FEEA4082C0100001202000031000000000000000000000000005A0500006662782F39464131463745442D413632322D343644302D413938332D3331353338454246344243312F636F72652E786D6C504B01021400140006080800CC70623BAD7543B64E010000330300003000000000000000000000000000D5060000
310
6662782F39464131463745442D413632322D343644302D413938332D3331353338454246344243312F636E782E786D6C504B01021400140006080800CC70623B16AB87BA640500003C1000003400000000000000000000000000710800006662782F39464131463745442D413632322D343644302D413938332D3331353338
310
454246344243312F6F626A656374732E786D6C504B01021400140006080000CC70623B0000000000000000000000003500000000000000000000000000270E00006662782F39464131463745442D413632322D343644302D413938332D3331353338454246344243312F76657274696365732E62696E504B01021400140006
310
080800CC70623BF270F133060000000400000036000000000000000000000000007A0E00006662782F39464131463745442D413632322D343644302D413938332D3331353338454246344243312F747269616E676C65732E62696E504B01021400140006080000CC70623B0000000000000000000000003700000000000000
310
000000000000D40E00006662782F39464131463745442D413632322D343644302D413938332D3331353338454246344243312F617474726962757465732E62696E504B01021400140006080800CC70623B08DA0BD190000000410100003600000000000000000000000000290F00006662782F39464131463745442D413632
310
322D343644302D413938332D3331353338454246344243312F6469726563746F72792E786D6C504B01021400140006080800CC70623B0D6EF93BFE000000A00100003B000000000000000000000000000D1000006662782F39464131463745442D413632322D343644302D413938332D3331353338454246344243312F7265
310
736F75726365732F636F72652E786D6C504B0506000000000E000E0080040000641100000000
  0
XRECORD
  5
1FB
102
{ACAD_REACTORS
330
173
102
}
330
173
100
AcDbXrecord
280
1
 70
0
 90
1673772943
  1
ECE7A1D2-D628-4531-984C-D00F80459256
310
504B03040A0000080000CC70623B3DEE336E79000000790000001B0000006175746F6465736B2D64657369676E2D7061636B6167652E786D6C3C3F786D6C2076657273696F6E3D22312E302220656E636F64696E673D227574662D3822203F3E3C666F726D6174733E3C666F726D61743E687474703A2F2F736368656D612E
310
6175746F6465736B2E636F6D2F64657369676E2D7061636B6167652F323030393C2F666F726D61743E3C2F666F726D6174733E504B0304140006080800CC70623BD486FD9CA0000000F4000000130000005B436F6E74656E745F54797065735D2E786D6C7D8EC10E82300C865F65E91D8A1E8C310C0EEA1BF002731658846E
310
D98AC1B77784ABF1D8FE5FBFBF75BBCE937A534CCEB38643598122B6FEE978D0B0485F9C41B54DDD7D022595594E1A469170414C76A4D9A4D207E29CF43ECE46F218070CC6BECC4078ACAA135ACF422C856C0E68EA1BF5669944DDD7BCDE7B1F8E415D77AECB980613C2E4AC91FC167A2B244592486606FC29C8FD7F045B9A
310
EF7053A7E60B504B0304140006080800CC70623BD9DDAED0EC0000007C01000008000000636F72652E786D6C8D90416EC3201045AF82665B61836D9CD8C2444DD39CA01740405C94182C03558F5F9C3852BBEB6A467FFE9B197D7EF89E6EE8CB2CC17A37002D0820E394D7D68D03A478C17B4007C117EFE32F1B20272733C0
310
2A83E0E3E2D3BC49CABB685CCCAAF3DA6CA20CC14440EA969B0182FA34932C648AD911AEC52CD5558EA6A0CF2EC329598D1E47ACCEFBECC59A050463A7EA5833865FEBDD0E37353BE3EE8DBDE3F6786A48D375FBF6CC78B9C282473B3DEFABC5C86834888A900E538A49F5419B9EB47DD5BC907D4F082F57FB1F28CDFA9F50
310
B22ED6D5F6EE030B20687EE43E10BC5CB3C8E51E54AE6B6EE207504B0304140006080800CC70623B55019EA25F0000007C00000007000000636E782E786D6C4DCB3B0E80201045D1AD90E915ED2CF8AC45050C11660C8261F98AB1B07AC9C97D42D718D865D3E909258CFD00CCE24AC6E326A164D74DC0B4128928FF326038
310
472BA13128B1252AC747C6BAB984FC68F0B87FE8960A5C09FE86CFB69FBA01504B0304140006080800CC70623BA24EB22D72010000D40300000C0000006662782F636F72652E786D6CC5535B6E833010BC8AE5DF0A6C5E49888CA3A6694ED00B38E05014B091B1518EDFE511A5A9D228FD2A1F60CDEC7A67C6986DCE4D8D7A
310
69BA4AAB0C073EC548AA5C17952A33ECECD15B61B4E1CC686DBF9561A44423333CC098B3D268D7CE50AE9595CA02AA74216750749DB418E5352C32DCE59FB211BE70162ABA93DF8AFC244AE9073ED050C759670D0840D390E18DF9F1706664C23973AE2A66B62A605A75ACA4C13C4976E1364A12EF355A2EBD384AF65EFA96
310
BC7B8BED2EA6719AAE16FB8491A199335B351775B991C2CA02F390D2D40B028F861F41BCA68B7518BFD0D59A524686F29B26D7164F36B94AD9289CE54E6D1DE6010819891F6E21228B3AD1831EC219194284CF98F06DD01008846CC5A1BEF83801D4CBDC6A1303536877A57A513B0953A94FC707FDBE6064EA84A9E3E6E0FA
310
EE8CF0E9198F7784A316AA0413C2C2F2E0ECA0934D1AE6D05A69BCDE9E91D2A611F573361E38FC1375157F5752AE6B6DFE4B11990F88CCBF0719EE23FF02504B0304140006080800CC70623B408A7D3B7C0000009D0000000B0000006662782F636E782E786D6C4DCCD10A83201886E15B91FFDC552A92A0064DBC8F581632
310
D3703A76F9ABD1C18E3E78F878E5F0D9027ABBFCF2292AE86E2D20171F69F6715550CB827B40839639A5F2770314A7CD293819B45C73AAFB45B35BA61ACAA1C1C7E7855C58C15BC331339661262CC762340413D68D77DA5B42298546CBE6573AF60CEB2F504B0304140006080800CC70623B449FB9BD290100001202000031
310
0000006662782F36394639363044362D344446342D343946362D394244322D3234314243333846323333332F636F72652E786D6C8D515B6EC32010BC0AE22B55850D98B871848994463E412FE002495162B07854397EA176A4F62F3F2C9A9D991D587EB84F37F0AD7D30CEF6905418026DA553C65E7A98E219ED203808EE9D
310
8B7F6810D871D23D2C3014FCE25D9A57483A1BB58D19B54EE9151C43D0110279CB971E06F9A5A7B11A53CC8C70ADE6515EC78BAE4895DB992778883E0700CB907242D17643D7E2538BD869608875438BBAE38922CAC8F1BDD90DB4691A5E2F42C153326A951B95E398B3D1FE599322163C9AE9115F7A3D46ADA0A018778810
310
84E907617BDCEE297BC5BB3DC6BC2EF47FA234AB2745C9D8D8D035EE220B50105E2F0DC1954B9FB747187D9F9D8FA0CCDB042D5FA0C015C65B42DF78BD10F3F3B363CB56C7109DCFDFBBB97E662ED92EB62D13BC2E1BCAE5777DB9966D8A1F504B0304140006080800CC70623BAD7543B64E01000033030000300000006662
310
782F36394639363044362D344446342D343946362D394244322D3234314243333846323333332F636E782E786D6CD593CD6EC32010845F0571AD6CE3D48AD20813A9873E410FBD12D82434182C7EAAE6EDBB2424CD25871E7B41D6EC30B3FA84F9E67BB2E40B4234DE8DB46F1925E094D7C6ED479AD3AE5951B2113C789FEE
310
6C943839C1488B4C05DF079FE72A69D8C96C13AAD6B8631503449F83828872B949AC57D26200B826A308D316B4064D6E46FCDA41C05550DC9E483A00797BFD207EFB092A45DE9514C1BBD22178396BD39D891265658C238DEA00936C654E5E433CB65A26D9F6EDB5EBC14EBF49A45CB856E66048291F6939A9A81BB5C89177
310
38143CA680F4AA299D66A042CEB3354A2684DC9D8D178FE0D9B8B41CAAD720F880EE7EF93C0C18769E099ECC04D5A102C8049A8A05632F4DDF376CF1DE0F6BB65C2F8627B65A33C6BB62177CEBBDAD973006829F89F22E814B54F4BC2BE347F8AA8F681390B50FA73F804400B5F542E796F19FF974E7F78DB802FE05E20750
310
4B0304140006080800CC70623B8D05915C650500003B100000340000006662782F36394639363044362D344446342D343946362D394244322D3234314243333846323333332F6F626A656374732E786D6CAD575B6FA33814FE2B887D06429276DA1565D4266D158D3A339A6846FB502932E050B66023DB74D2FDF5FB190C01
310
9276B2973C046C8ECFF53B17071F77456EBD502133CEAE6CDF9DD81665314F32965ED995DA3A17B6F5310C04E7AA47665B8C14F4CAD6DB7618A48257A5D94AE89654B91AEDDEDDFC61C998326A5B714EA4BCB265FC440BE2924AF184CA6737218AB8E976E7FA6E4338649B0A523E8D98964450A6A029F619B8588D52FE7039
310
B1BD30F0F4F730D0FF866AF6369557DB33949F31A9088B0F848DD8CCFCF9F2767A76E99CCDE733677E3EF59D9BBB9BA5E37F984D16E78BC5E5F5ED25044B25C0C96822E8D60EEFE11B91C581D77CEA34368A1F5329E68CD1B8B61F16D63A1B8E092D294B10C78C4A48EB593D192E7DED9BDEE7995E1B91FDEDD3ACEA9FE831
310
6A756F9F7D4D79F4274C90A7A04248AA51D5F8C718DAE06FB2F75AC4796EBE65D22A88A22223B995679120E2D50E41AA49C260C046A35368846B0BECD0DFF3EBEB8AD4F835768F69B9ADF25C43D30E6B646F807FAA64AD59F61715C7A54127C4AACA98BA3006A9D792DAE165E0D59B61A01FB3A9F9D838D2DAE62445C86166
310
F37564E842E7DE6A69879FEEA2DD5AE7E371E1A5E025154AC307D06A03D73EB5978C58FFA4C8E9033066E0F3BD53BEC1F39F91BE7B55103791EDE6BBB991A2046172CB4581D8B893FA674DDA17A77B3B7C413D1B511FD2743BFF8A38F03A658705E3ADF8015C3A3417FF3D7E439FF591DA0B5F18BC20C1B8981957AE6392A3
310
F43C640C01D1A0B4728E2DD4F26DB4B3C3152A252A3B4E913CEC1C72F012782FF88EFF8637AA552DBEF76408E8A8DE9E50F9E1CB3A2DA0DB1B6039A893B56063DC5B3E3FFB5F72E67AB9FEB4AEC496C4F4C1149625DD662C53E89D7BF0F6151A046260D1337DFDC94502430F83B0EE07A130A224BCAD7DAE1D9FB6CD422FF6
310
920702629C4BB9AE79C12F243C6432A6794E18E5552BA56B431AAB5D91317302B2B071E86C3A42B1A02F999E24061403B5D0EB639195DA655DD3EBEAB4FB862DDF579F014AD0E73C22F99E28DA57FB98E75C6CA2D74D53086D600F4786E0FE3144B771A8A7B900F03594DB8A633CBC49B2EDB69228BB479CF863B5E807AAAB
310
23872F6DFEB4129B949CA33823F58830E86D65621E10047D9DB34D862E8EAC3C2ABC2F7B2C40D67CDFE01F5545B92105AF983AC54D93D69E56FB8E797F88913F898A9FEC705D3F9D1B54EC8426FB500D40A03BD0119B06E1B95DDC7EB8F6975367793EBD70E66733DFB9BC982F9CE564727731999F5D4ECFCE3B8D6A4DC2A0
310
6D50FD148437D110834A64C6CDDF57FBACB5C307A2A477DFE4939736CFEF2B175371E0E10CF0DD1D5C15654E0BCA14D1E87DD02FF93782A162C0A3D95F1524A52770F972BF1EE9809D13CE7DD599467F8ECE9ADD85CE85A34CD45355448C64F9E8A031DC2D596ACC6E5DD93D9B82DE2EF5CAF81363A8E47996A0DE24564A79
310
4115AACE09C55E14540231FDA13C319787134EBF34E3A022514E5B4D9E0826E25C02D5805B15ABE1BEF51B26383D445DD9E875EE33FE4C22DA16427D65A3BCA92CA6D28DD01DF5DC53330704308475351050232CCD31583787BA75774AFB06E5070DD0C8EF484E19968C5D83BA5B90B244D31E54D55A372320FE4786B7EA58
310
44E135AA5467CB7EA333A61683CC6A8C3257034C10CF46F40EF9F5BE59BE5BD30C3C72D235E95D10345C1D45445A5F0BB47E46A5EBE5570F9380B5FA629579952296A773720405982B9DE04011506178964401AA8BDF1FBF0A8EAB6861DD6580C0E38217056766716DAEB2D6FA0917D3E4116581EADB879C4E7CFFB11EFACD
310
3D641311495D92C8676CB409A72D18610D803CE8A626049E8EC1887CB5B44CC39883690DDA8399B4B9855B481E7D71D4A9D22F96E5BB73BF5793020C02137BF837504B0304140006080000CC70623B000000000000000000000000350000006662782F36394639363044362D344446342D343946362D394244322D32343142
310
43333846323333332F76657274696365732E62696E504B0304140006080800CC70623BF270F1330600000004000000360000006662782F36394639363044362D344446342D343946362D394244322D3234314243333846323333332F747269616E676C65732E62696E636660600000504B0304140006080000CC70623B0000
310
00000000000000000000370000006662782F36394639363044362D344446342D343946362D394244322D3234314243333846323333332F617474726962757465732E62696E504B0304140006080800CC70623B08DA0BD19000000041010000360000006662782F36394639363044362D344446342D343946362D394244322D
310
3234314243333846323333332F6469726563746F72792E786D6C858F410AC3201045AF22B36F53E9A60B35CBEEBAE80D244E44489C6234F4F835464A48035D0DF398FF9F8AF63D0E6CC63039F212F8F9020C7D47C6792B21C5FE7403D62A1188E2E60C98D7234A5830286103A55745067B9D86B8A3CF9C7F90C11DE607FB14
310
4396D7B6A82D282E9A152AD114D5EF2CB866EEE831B8EEA07A7BB5A8D7D61A2BAAEB7FD5F70921FF497D00504B0304140006080800CC70623BCA768048FE000000A00100003B0000006662782F36394639363044362D344446342D343946362D394244322D3234314243333846323333332F7265736F75726365732F636F72
310
652E786D6C8D50596E833010BD0A9ADFCA60D600328E9AA639412F609909B1126CE4A5EAF16B0295DABFFECC8CDEA2797AECF8353F924FB44E193D409E5248504B332A3D0D10FC95B4901C39B3C6F85F3248B49871801506CE266BC2B243D2688FDA47549B11775038871E12F988C7004EDE7016A9083E2ADC3D5D84BC8B09
310
D33C8D74D471E6BC8D0192EDC93A815B742658898E651BCB59086ADC356A8C3FD555A1055ED7E7E254D615792D0F075295F585746FF53B694EE78A565DD736979A65AB9933AFE69F8CD2A2F038022F28ED489E135A7CE4554F9BBEA85E68DB53CAB255FEC71496F19FA6A0B42F8B3DEE6673C0F318E4497096AD7DC5F52C33
310
EEB55BFE0D504B010214000A0000080000CC70623B3DEE336E79000000790000001B00000000000000000000000000000000006175746F6465736B2D64657369676E2D7061636B6167652E786D6C504B01021400140006080800CC70623BD486FD9CA0000000F40000001300000000000000000000000000B20000005B436F
310
6E74656E745F54797065735D2E786D6C504B01021400140006080800CC70623BD9DDAED0EC0000007C010000080000000000000000000000000083010000636F72652E786D6C504B01021400140006080800CC70623B55019EA25F0000007C000000070000000000000000000000000095020000636E782E786D6C504B0102
310
1400140006080800CC70623BA24EB22D72010000D40300000C00000000000000000000000000190300006662782F636F72652E786D6C504B01021400140006080800CC70623B408A7D3B7C0000009D0000000B00000000000000000000000000B50400006662782F636E782E786D6C504B01021400140006080800CC70623B
310
449FB9BD290100001202000031000000000000000000000000005A0500006662782F36394639363044362D344446342D343946362D394244322D3234314243333846323333332F636F72652E786D6C504B01021400140006080800CC70623BAD7543B64E010000330300003000000000000000000000000000D20600006662
310
782F36394639363044362D344446342D343946362D394244322D3234314243333846323333332F636E782E786D6C504B01021400140006080800CC70623B8D05915C650500003B10000034000000000000000000000000006E0800006662782F36394639363044362D344446342D343946362D394244322D32343142433338
310
46323333332F6F626A656374732E786D6C504B01021400140006080000CC70623B0000000000000000000000003500000000000000000000000000250E00006662782F36394639363044362D344446342D343946362D394244322D3234314243333846323333332F76657274696365732E62696E504B010214001400060808
310
00CC70623BF270F13306000000040000003600000000000000000000000000780E00006662782F36394639363044362D344446342D343946362D394244322D3234314243333846323333332F747269616E676C65732E62696E504B01021400140006080000CC70623B00000000000000000000000037000000000000000000
310
00000000D20E00006662782F36394639363044362D344446342D343946362D394244322D3234314243333846323333332F617474726962757465732E62696E504B01021400140006080800CC70623B08DA0BD190000000410100003600000000000000000000000000270F00006662782F36394639363044362D344446342D
310
343946362D394244322D3234314243333846323333332F6469726563746F72792E786D6C504B01021400140006080800CC70623BCA768048FE000000A00100003B000000000000000000000000000B1000006662782F36394639363044362D344446342D343946362D394244322D3234314243333846323333332F7265736F
310
75726365732F636F72652E786D6C504B0506000000000E000E0080040000621100000000
  0
CELLSTYLEMAP
  5
899
102
{ACAD_REACTORS
330
898
102
}
330
898
100
AcDbCellStyleMap
 90
3
300
CELLSTYLE
  1
TABLEFORMAT_BEGIN
 90
5
170
1
 91
0
 92
32768
 62
257
 93
1
300
CONTENTFORMAT
  1
CONTENTFORMAT_BEGIN
 90
0
 91
0
 92
512
 93
0
300

 40
0.0
140
1.0
 94
5
 62
0
340
11
144
6.0
309
CONTENTFORMAT_END
171
1
301
MARGIN
  1
CELLMARGIN_BEGIN
 40
1.5
 40
1.5
 40
1.5
 40
1.5
 40
4.5
 40
4.5
309
CELLMARGIN_END
 94
6
 95
1
302
GRIDFORMAT
  1
GRIDFORMAT_BEGIN
 90
0
 91
1
 62
0
 92
-2
340
14
 93
0
 40
1.125
309
GRIDFORMAT_END
 95
2
302
GRIDFORMAT
  1
GRIDFORMAT_BEGIN
 90
0
 91
1
 62
0
 92
-2
340
14
 93
0
 40
1.125
309
GRIDFORMAT_END
 95
4
302
GRIDFORMAT
  1
GRIDFORMAT_BEGIN
 90
0
 91
1
 62
0
 92
-2
340
14
 93
0
 40
1.125
309
GRIDFORMAT_END
 95
8
302
GRIDFORMAT
  1
GRIDFORMAT_BEGIN
 90
0
 91
1
 62
0
 92
-2
340
14
 93
0
 40
1.125
309
GRIDFORMAT_END
 95
16
302
GRIDFORMAT
  1
GRIDFORMAT_BEGIN
 90
0
 91
1
 62
0
 92
-2
340
14
 93
0
 40
1.125
309
GRIDFORMAT_END
 95
32
302
GRIDFORMAT
  1
GRIDFORMAT_BEGIN
 90
0
 91
1
 62
0
 92
-2
340
14
 93
0
 40
1.125
309
GRIDFORMAT_END
309
TABLEFORMAT_END
  1
CELLSTYLE_BEGIN
 90
1
 91
1
300
_TITLE
309
CELLSTYLE_END
300
CELLSTYLE
  1
TABLEFORMAT_BEGIN
 90
5
170
1
 91
0
 92
0
 62
257
 93
1
300
CONTENTFORMAT
  1
CONTENTFORMAT_BEGIN
 90
0
 91
0
 92
512
 93
0
300

 40
0.0
140
1.0
 94
5
 62
0
340
11
144
4.5
309
CONTENTFORMAT_END
171
1
301
MARGIN
  1
CELLMARGIN_BEGIN
 40
1.5
 40
1.5
 40
1.5
 40
1.5
 40
4.5
 40
4.5
309
CELLMARGIN_END
 94
6
 95
1
302
GRIDFORMAT
  1
GRIDFORMAT_BEGIN
 90
0
 91
1
 62
0
 92
-2
340
14
 93
0
 40
1.125
309
GRIDFORMAT_END
 95
2
302
GRIDFORMAT
  1
GRIDFORMAT_BEGIN
 90
0
 91
1
 62
0
 92
-2
340
14
 93
0
 40
1.125
309
GRIDFORMAT_END
 95
4
302
GRIDFORMAT
  1
GRIDFORMAT_BEGIN
 90
0
 91
1
 62
0
 92
-2
340
14
 93
0
 40
1.125
309
GRIDFORMAT_END
 95
8
302
GRIDFORMAT
  1
GRIDFORMAT_BEGIN
 90
0
 91
1
 62
0
 92
-2
340
14
 93
0
 40
1.125
309
GRIDFORMAT_END
 95
16
302
GRIDFORMAT
  1
GRIDFORMAT_BEGIN
 90
0
 91
1
 62
0
 92
-2
340
14
 93
0
 40
1.125
309
GRIDFORMAT_END
 95
32
302
GRIDFORMAT
  1
GRIDFORMAT_BEGIN
 90
0
 91
1
 62
0
 92
-2
340
14
 93
0
 40
1.125
309
GRIDFORMAT_END
309
TABLEFORMAT_END
  1
CELLSTYLE_BEGIN
 90
2
 91
1
300
_HEADER
309
CELLSTYLE_END
300
CELLSTYLE
  1
TABLEFORMAT_BEGIN
 90
5
170
1
 91
0
 92
0
 62
257
 93
1
300
CONTENTFORMAT
  1
CONTENTFORMAT_BEGIN
 90
0
 91
0
 92
512
 93
0
300

 40
0.0
140
1.0
 94
2
 62
0
340
11
144
4.5
309
CONTENTFORMAT_END
171
1
301
MARGIN
  1
CELLMARGIN_BEGIN
 40
1.5
 40
1.5
 40
1.5
 40
1.5
 40
4.5
 40
4.5
309
CELLMARGIN_END
 94
6
 95
1
302
GRIDFORMAT
  1
GRIDFORMAT_BEGIN
 90
0
 91
1
 62
0
 92
-2
340
14
 93
0
 40
1.125
309
GRIDFORMAT_END
 95
2
302
GRIDFORMAT
  1
GRIDFORMAT_BEGIN
 90
0
 91
1
 62
0
 92
-2
340
14
 93
0
 40
1.125
309
GRIDFORMAT_END
 95
4
302
GRIDFORMAT
  1
GRIDFORMAT_BEGIN
 90
0
 91
1
 62
0
 92
-2
340
14
 93
0
 40
1.125
309
GRIDFORMAT_END
 95
8
302
GRIDFORMAT
  1
GRIDFORMAT_BEGIN
 90
0
 91
1
 62
0
 92
-2
340
14
 93
0
 40
1.125
309
GRIDFORMAT_END
 95
16
302
GRIDFORMAT
  1
GRIDFORMAT_BEGIN
 90
0
 91
1
 62
0
 92
-2
340
14
 93
0
 40
1.125
309
GRIDFORMAT_END
 95
32
302
GRIDFORMAT
  1
GRIDFORMAT_BEGIN
 90
0
 91
1
 62
0
 92
-2
340
14
 93
0
 40
1.125
309
GRIDFORMAT_END
309
TABLEFORMAT_END
  1
CELLSTYLE_BEGIN
 90
3
 91
2
300
_DATA
309
CELLSTYLE_END
  0
ACAD_PROXY_OBJECT
  5
4DF
330
4DC
100
AcDbProxyObject
 90
499
 91
520
 71
33
 97
377
 70
0
161
76
310
40AF3C363FFFC81D2020
330
4C7
330
0
330
0
360
0
 94
0
  0
ACAD_PROXY_OBJECT
  5
4DE
330
4DC
100
AcDbProxyObject
 90
499
 91
520
 71
33
 97
377
 70
0
161
76
310
40AF3C363FFFC8152020
330
4D7
330
0
330
0
360
0
 94
0
  0
ACAD_PROXY_OBJECT
  5
4E0
330
4DC
100
AcDbProxyObject
 90
499
 91
520
 71
33
 97
377
 70
0
161
76
310
40AF3C363FFFC8252020
330
4C8
330
0
330
0
360
0
 94
0
  0
DICTIONARY
  5
89D
330
C
100
AcDbDictionary
280
1
281
1
  3
WRITTEN_BY_EZDXF
350
89E
  0
DICTIONARYVAR
  5
89E
330
89D
100
DictionaryVariables
280
0
  1
1.4.4 @ 2026-09-25T16:16:42.892349+00:00
  0
ENDSEC
  0
SECTION
  2
ACDSDATA
 70
2
 71
2
  0
ACDSSCHEMA
 90
0
  1
AcDb_Thumbnail_Schema
  2
AcDbDs::ID
280
10
 91
8
  2
Thumbnail_Data
280
15
 91
0
101
ACDSRECORD
 95
0
 90
2
  2
AcDbDs::TreatedAsObjectData
280
1
291
1
101
ACDSRECORD
 95
0
 90
3
  2
AcDbDs::Legacy
280
1
291
1
101
ACDSRECORD
  1
AcDbDs::ID
 90
4
  2
AcDs:Indexable
280
1
291
1
101
ACDSRECORD
  1
AcDbDs::ID
 90
5
  2
AcDbDs::HandleAttribute
280
7
282
1
  0
ACDSSCHEMA
 90
1
  1
AcDb3DSolid_ASM_Data
  2
AcDbDs::ID
280
10
 91
8
  2
ASM_Data
280
15
 91
0
101
ACDSRECORD
 95
1
 90
2
  2
AcDbDs::TreatedAsObjectData
280
1
291
1
101
ACDSRECORD
 95
1
 90
3
  2
AcDbDs::Legacy
280
1
291
1
101
ACDSRECORD
  1
AcDbDs::ID
 90
4
  2
AcDs:Indexable
280
1
291
1
101
ACDSRECORD
  1
AcDbDs::ID
 90
5
  2
AcDbDs::HandleAttribute
280
7
282
1
  0
ACDSSCHEMA
 90
2
  1
AcDbDs::TreatedAsObjectDataSchema
  2
AcDbDs::TreatedAsObjectData
280
1
 91
0
  0
ACDSSCHEMA
 90
3
  1
AcDbDs::LegacySchema
  2
AcDbDs::Legacy
280
1
 91
0
  0
ACDSSCHEMA
 90
4
  1
AcDbDs::IndexedPropertySchema
  2
AcDs:Indexable
280
1
 91
0
  0
ACDSSCHEMA
 90
5
  1
AcDbDs::HandleAttributeSchema
  2
AcDbDs::HandleAttribute
280
7
 91
1
284
1
  0
ACDSRECORD
 90
0
  2
AcDbDs::ID
280
10
320
22
  2
Thumbnail_Data
280
15
 94
1461
310
89504E470D0A1A0A0000000D49484452000001000000006B0803000000AFE8AC7900000300504C5445212830FFFFFF2128300000000000000000000000000000000000000000000000000000330000660000990000CC0000FF0033000033330033660033990033CC0033FF0066000066330066660066990066CC0066FF0099
310
000099330099660099990099CC0099FF00CC0000CC3300CC6600CC9900CCCC00CCFF00FF0000FF3300FF6600FF9900FFCC00FFFF3300003300333300663300993300CC3300FF3333003333333333663333993333CC3333FF3366003366333366663366993366CC3366FF3399003399333399663399993399CC3399FF33CC00
310
33CC3333CC6633CC9933CCCC33CCFF33FF0033FF3333FF6633FF9933FFCC33FFFF6600006600336600666600996600CC6600FF6633006633336633666633996633CC6633FF6666006666336666666666996666CC6666FF6699006699336699666699996699CC6699FF66CC0066CC3366CC6666CC9966CCCC66CCFF66FF0066
310
FF3366FF6666FF9966FFCC66FFFF9900009900339900669900999900CC9900FF9933009933339933669933999933CC9933FF9966009966339966669966999966CC9966FF9999009999339999669999999999CC9999FF99CC0099CC3399CC6699CC9999CCCC99CCFF99FF0099FF3399FF6699FF9999FFCC99FFFFCC0000CC00
310
33CC0066CC0099CC00CCCC00FFCC3300CC3333CC3366CC3399CC33CCCC33FFCC6600CC6633CC6666CC6699CC66CCCC66FFCC9900CC9933CC9966CC9999CC99CCCC99FFCCCC00CCCC33CCCC66CCCC99CCCCCCCCCCFFCCFF00CCFF33CCFF66CCFF99CCFFCCCCFFFFFF0000FF0033FF0066FF0099FF00CCFF00FFFF3300FF3333
310
FF3366FF3399FF33CCFF33FFFF6600FF6633FF6666FF6699FF66CCFF66FFFF9900FF9933FF9966FF9999FF99CCFF99FFFFCC00FFCC33FFCC66FFCC99FFCCCCFFCCFFFFFF00FFFF33FFFF66FFFF99FFFFCCFFFFFF0000000D0D0D1A1A1A2828283535354343435050505D5D5D6B6B6B787878868686939393A1A1A1AEAEAEBB
310
BBBBC9C9C9D6D6D6E4E4E4F1F1F1FFFFFF0000000000000000000000000000000000000000000000000000000000002E4550F10000022A4944415478DAED9BC99284201044EBFFFF37EF1331336D60BBB19B4525B7B6438167D60668B63558EF86876762409F0DA31580980030B2B952C090C14457009C2800A7C34196280E
310
77215F5302200002E009C0B963FBBD2BF90B9F9FDE009C7AF0BC585F190358C2E05E01E9EC6328609B12EA01ECF5609979209B0270984A1013D8DED4612A7F971EEAA7E22850502BCC3581EA30787D0197B780330CCE2BBC43030021804CA7D5AD27520036BE1C4E422C2580DE0B21B0D80020002613F001A0FB705C02B069
310
001017006B22341580453601C26AF0050598053701018800E0A1BC140001A00150B28ABBA60210DD04927444006402219DA000C4CE045F02C0B437280508800008C0180091334101706302261FF0C671F9289BA36602B01680ECB53347008A0E78B600D8DDC79B08DDCFAD1F00D6BD41F400703E3156050C0A894E018C7C52
310
722E7F773CDB8234D49FAA5F1207511478B56FB2301814C07B3648F3C94C781318E0EBB3D4B6A0135C0FC04D66570C009400AC1EC0C9D54B00DB0729A9E57103C00900F42F1C1C03A853D327F5801195C3F9C97B1B80EFE0436F025F2E0B160DC0FD1404400004A00500CD1199D71400A654B82279694B7DFEDF3F0F807C05
310
A0490148EBA2D800CC29003401806B00FB745800E299403700D85CA0004402807477D06F14300158134045321B550116DD0404400004206A222400ED00E07F3D40003A9880112E8995EFE5AEB5283ABF5B32131080F900E87786A6F4ED1F40D3691706003F05C62FF57E4C0A810000000049454E44AE42608277956006006A
310
ED277E16B5C001B2BDE87C396CAD8A5701F05E0899FD8075004A4400789E064B774F2C348065FFE5ABFD801FCDDEC9E9916991780000000049454E44AE426082
  0
ENDSEC
  0
EOF
